<?xml version="1.0" encoding="utf-8"?>
<!-- Generator: Adobe Illustrator 26.2.1, SVG Export Plug-In . SVG Version: 6.00 Build 0)  -->
<svg version="1.1" id="Layer_1" xmlns="http://www.w3.org/2000/svg" xmlns:xlink="http://www.w3.org/1999/xlink" x="0px" y="0px"
	 viewBox="0 0 83.6 84" style="enable-background:new 0 0 83.6 84;" xml:space="preserve">
<style type="text/css">
	.st0{fill:#FFFFFF;}
	.st1{fill:url(#SVGID_1_);}
	.st2{fill:#712F49;}
	.st3{fill:#601531;}
</style>
<path class="st0" d="M9.5,51.2c0,0,0.2-2.1-0.5-2.8c-0.2-0.5-1.2-2.3-1.1-3.7C7.8,44.8,5.7,50,5.5,52c0,0.7,0,1.8,1.5,3.1
	c0.5,0.5,1.8,2,1.8,2.7c0,0.1,0.3,0.1,0.3,0.1s0.5-1.3,2.5-2.5c0.6-0.4,1.3-0.7,1.8-2.7c0.1-0.7,0.4-2.5,1.4-4.5
	c-0.1,0-1.9,0.9-2.7,1.4c-0.3,0.1-1.8,0.7-2.2,1.6C9.8,51.3,9.6,51.4,9.5,51.2z"/>
<path class="st0" d="M12.8,55.4c0,0-1,1.5-2.3,2.2c-0.2,0.2-1.3,1.2-1.5,2.3c-0.1,0-0.3-0.1-0.3-0.1s0-1.3-0.8-2
	c-0.4-0.4-1.8-2.3-2-2.6c-0.3-0.3-0.4-0.8-0.7-1.4c0,0-0.7,5.5-0.4,7.2c0,0,0.3,1.5,1.9,2.7c0.5,0.4,1.8,1.3,2.6,2.4
	c0.1,0,0.7-1.7,1.7-2.6c0.3-0.4,1-1.2,1.3-1.7C12.5,61.5,12.9,61.7,12.8,55.4z"/>
<path class="st0" d="M12.4,74.7c0,0-2.9-1.9-4-2c-0.4-0.2-1.8-0.6-2.5-4.3C5.5,66.3,5,63.1,5,63.1s0.1-0.1,0.2,0
	c0.1,0.2,0.5,1.4,1.9,2.5c0.5,0.3,2.2,1.5,2.7,2.9c0.1,0.1,0.3,0,0.3,0s-0.2-1.4,1-2.9c0.4-0.6,1.3-1.2,1.7-2.6
	c0.1,0,0.2-0.1,0.2,0.1c0,0.1,0.1,2.2,0.6,3.4c0.1,0.5,1,2.1,0.3,4c-0.2,0.7-0.9,2-1,2.5C12.7,73.4,12.4,74.1,12.4,74.7z"/>
<path class="st0" d="M32,75.5c0,0-3.3,0.1-5.1,1.5c-0.3,0.1-1.4,0.5-3-0.7c-0.5-0.2-4.6-2.8-5.1-3.2c0-0.2,1.8,0.2,3-0.2
	c0.8-0.2,2.9-0.3,4,0.3c0,0,0.3-0.2,0.1-0.4c-0.2-0.2-1.6-0.8-1.8-3c-0.1-1-0.3-2.6-0.3-2.8c0.1-0.1,2.3,1.8,4.1,2.6
	c0.4,0.3,2.4,1.1,2.5,3C30.3,72.9,30.2,73.5,32,75.5z"/>
<path class="st0" d="M30.3,70.7c0,0,1.4,2,1.8,3.2c0.2,0.4,0.8,1.4,1.9,2.2c0,0.2,0,0.2,0,0.2s-2.1-0.1-3.4,0.5
	c-0.4,0.2-2.2,1-3.6,1c0.1,0.2,2.4,1.5,6,2.1c0.7,0.2,1.7,0.6,3.2-0.3c0.6-0.3,2-2.1,3.8-2.5c0.1-0.1-1.9-1.7-2.3-2.8
	c-0.2-0.3-0.9-1.8-3-2c0,0-3.3-0.7-4.1-1.5C30.4,70.7,30.4,70.7,30.3,70.7z"/>
<path class="st0" d="M36.4,80.5c0,0,6.8,0.6,8,0.2c0.5-0.2,1.5-0.7,2.5-2.7c0.3-0.3,1-1.4,1.6-1.7c0-0.2-0.4-0.2-1.3-0.8
	c-0.6-0.4-2.3-1.8-2.8-2.2c0,0-1.5-0.6-3.3-0.4c-0.7,0-3-0.1-3.7-0.3c0.2,0.3,1.4,0.9,2.5,2.6c0.6,0.6,1.4,1.4,2.6,1.8
	c0,0.1,0.1,0.2,0,0.2s-1.8-0.1-3.3,1.3C38.7,78.7,37.2,80.3,36.4,80.5z"/>
<path class="st0" d="M44.9,72.7c0,0,1.8,0,2.9-0.3c0.4-0.1,2.3-0.7,3.3-0.9c0.5,0,1.3-0.2,3.9,1.6c0.3,0.1,1.3,0.2,1.3,0.2
	s0,0.1,0,0.2c0,0.1-1.1,1.2-1.1,2.4c0,0.3-0.2,2.4-1.8,3c-0.6,0.2-3.3,1.3-7.1,1.7c-0.1-0.1,0.1-0.2,0.7-0.9
	c0.6-0.7,1.7-2.5,2.3-2.9c0.7-0.4,1.9-0.8,2-0.9s0-0.3-0.1-0.3c-0.1,0-1.6,0.4-3.3-0.8c-0.4-0.2-1.9-1.6-2.3-1.7
	C45.3,73.1,45,72.9,44.9,72.7z"/>
<path class="st0" d="M63.5,68.3c0,0-1.3,0.2-3-0.3c-0.6-0.1-2-0.7-3.7,0.4c-0.6,0.3-3.3,2.1-4.6,2.3c0.1,0.2,0.3,0.3,0.4,0.3
	c0.1,0,1.7,0.3,2.6,0.9c0.3,0.2,2,0.6,2.6,0.5c0,0.2-1.4,1.6-1.3,2.7c-0.1,0.3-0.7,2.2-1.4,2.9c0.3,0,4.3-1.6,6.1-3
	c1-0.7,1.5-0.8,1.7-2.8c0.1-1.8,0-2.5,0.2-2.9c0.2-0.4,0.4-0.9,0.4-0.9S63.6,68.4,63.5,68.3z"/>
<linearGradient id="SVGID_1_" gradientUnits="userSpaceOnUse" x1="500.5779" y1="-476.8879" x2="771.2963" y2="-309.0922" gradientTransform="matrix(0.3125 0 0 -0.3125 -123.6055 -101.4789)">
	<stop  offset="0" style="stop-color:#601531"/>
	<stop  offset="1" style="stop-color:#CB715D"/>
</linearGradient>
<path class="st1" d="M83.6,42c0,23.1-18.7,41.8-41.8,41.8S0,65.1,0,42C0,18.9,18.7,0.2,41.8,0.2C64.9,0.2,83.6,18.9,83.6,42z"/>
<path class="st0" d="M25.9,12.6c0,0,0.8-0.4,1.8-2.5c0,0,1.3-2.6,4.6-2.9c0.7,0,2.4-0.1,6.5,0c-0.3,0.3-3,2.1-4.3,3.8
	c-0.3,0.4-1.8,2-4,2C28.2,12.7,27.6,12.5,25.9,12.6z"/>
<path class="st0" d="M19.3,17.5c0,0,1.7-0.5,4.4,0.2c0,0,1.2,0,1.4-0.1s4.6-2.8,5.6-3c0,0,0.3-0.1-1.5-0.4c-0.7-0.1-2.8-1.1-5.1-0.3
	c0-0.3,0-0.5,0.1-0.6c0.2-0.1,1.4-0.3,2-2.8c0.2-0.4,1.2-2.5,1.8-3.1c-0.2,0-5.4,1.9-6.9,4c-0.1,0.3-0.5,0.8-0.8,3.4
	C20,15.4,20.2,16.4,19.3,17.5z"/>
<path class="st0" d="M19.8,11.7c0,0-5.1,4-5.5,5c0,0-1.1,1.7-0.6,4.3c0.1,0.9,0.2,2.5,0.2,2.9c0.7-0.3,2.9-0.9,4.6-1.2
	c0,0,1.6-0.3,3-2.2c0.4-0.4,2.1-2,2.6-2.2c0,0-5-1-6.4,0.8c-0.2,0.1-0.3-0.1-0.3-0.1s0.9-0.7,1.3-2c0,0,0.2-1.4,0.3-2.7
	C19.3,13.4,19.9,11.8,19.8,11.7z"/>
<path class="st0" d="M10.3,31.6c0,0-0.4-2.3-1.6-4.5c-0.1-0.4-0.6-1.9,0.8-3.8c0.6-1.1,3.2-4.7,3.2-4.7s-0.1,2.6,0.1,3.4
	c0.2,0.8,0.4,2.5-0.5,4.4c0.1,0.1,0.4,0.1,0.4,0.1s0.4-1.7,2-2.1c0.6-0.1,2.8-0.5,4.3-1.4c0,0.3-2.2,2.8-2.8,4.2
	c-0.2,0.4-0.8,2.3-3.1,2.7C12.7,30.2,11,30.6,10.3,31.6z"/>
<path class="st0" d="M9.5,33.2c0,0,0.2-2.1-0.5-2.8c-0.2-0.5-1.2-2.3-1.1-3.7C7.8,26.8,5.7,32,5.5,34c0,0.7,0,1.8,1.5,3.1
	c0.5,0.5,1.8,2,1.8,2.7c0,0.1,0.3,0.1,0.3,0.1s0.5-1.3,2.5-2.5c0.6-0.4,1.3-0.7,1.8-2.7c0.1-0.7,0.4-2.5,1.4-4.5
	c-0.1,0-1.9,0.9-2.7,1.4c-0.3,0.1-1.8,0.7-2.2,1.6C9.8,33.3,9.6,33.4,9.5,33.2z"/>
<path class="st0" d="M12.8,37.5c0,0-1,1.5-2.3,2.2C10.3,39.8,9.2,40.9,9,42c-0.1,0-0.3-0.1-0.3-0.1s0-1.3-0.8-2
	c-0.4-0.4-1.8-2.3-2-2.6C5.7,37,5.5,36.5,5.3,36c0,0-0.7,5.5-0.4,7.2c0,0,0.3,1.5,1.9,2.7c0.5,0.4,1.8,1.3,2.6,2.4
	c0.1,0,0.7-1.7,1.7-2.6c0.3-0.4,1-1.2,1.3-1.7C12.5,43.5,12.9,43.7,12.8,37.5z"/>
<path class="st0" d="M12.4,56.7c0,0-2.9-1.9-4-2c-0.4-0.2-1.8-0.6-2.5-4.3C5.5,48.4,5,45.1,5,45.1s0.1-0.1,0.2,0
	c0.1,0.2,0.5,1.4,1.9,2.5c0.5,0.3,2.2,1.5,2.7,2.9c0.1,0.1,0.3,0,0.3,0s-0.2-1.4,1-2.9c0.4-0.6,1.3-1.2,1.7-2.6
	c0.1,0,0.2-0.1,0.2,0.1c0,0.1,0.1,2.2,0.6,3.4c0.1,0.5,1,2.1,0.3,4c-0.2,0.7-0.9,2-1,2.5C12.7,55.4,12.4,56.1,12.4,56.7z"/>
<path class="st0" d="M17.1,63.2c0,0-0.8-0.6-3.9-0.6c-0.4,0-2.6-0.4-3.3-2.6c-0.4-0.6-1.3-2.5-2.6-5.3c0.1-0.1,0.2,0,0.2,0
	s0.8,1.2,2.3,1.6c0.7,0.2,2.9,0.8,3.4,1.9c0.1,0,0.2-0.2,0.2-0.2s-0.5-1.8,0.6-3.6c0.1-0.4,0.6-1.2,0.8-2.2c0.1,0,1.7,3.3,2.3,4.4
	c0,0,1.1,1.7,0.6,3C17.6,60.1,16.8,61.3,17.1,63.2z"/>
<path class="st0" d="M23.8,69c0,0-2.3-0.3-3.6,0.3c-0.3,0.1-2.6,0.3-3.8-1c-0.3-0.3-3.8-3.7-4.3-4.8c0.1-0.1,0.7,0.5,2.2,0.4
	c1.1,0,3.5,0.2,4.1,1.1c0.2,0,0.3,0,0.3,0s0-0.3-0.1-0.6c-0.1-0.3-0.7-2.3-0.1-3.7c0.1-0.6,0-1.3-0.2-2.2c0.1,0,1.3,1.6,2.1,2.4
	c0.7,0.8,3,2.7,2.7,3.9c0,0.5,0,1.3,0.2,2.5C23.4,68,23.6,68.8,23.8,69z"/>
<path class="st0" d="M32,72.7c0,0-3.3,0.1-5.1,1.5c-0.3,0.1-1.4,0.5-3-0.7c-0.5-0.2-4.6-2.8-5.1-3.2c0-0.2,1.8,0.2,3-0.2
	c0.8-0.2,2.9-0.3,4,0.3c0,0,0.3-0.2,0.1-0.4c-0.2-0.2-1.6-0.8-1.8-3c-0.1-1-0.3-2.6-0.3-2.8c0.1-0.1,2.3,1.8,4.1,2.6
	c0.4,0.3,2.4,1.1,2.5,3C30.3,70.1,30.2,70.7,32,72.7z"/>
<path class="st0" d="M30.3,67.9c0,0,1.4,2,1.8,3.2c0.2,0.4,0.8,1.4,1.9,2.2c0,0.2,0,0.2,0,0.2s-2.1-0.1-3.4,0.5
	c-0.4,0.2-2.2,1-3.6,1c0.1,0.2,2.4,1.5,6,2.1c0.7,0.2,1.7,0.6,3.2-0.3c0.6-0.3,2-2.1,3.8-2.5c0.1-0.1-1.9-1.7-2.3-2.8
	c-0.2-0.3-0.9-1.8-3-2c0,0-3.3-0.7-4.1-1.5C30.4,67.9,30.4,67.9,30.3,67.9z"/>
<path class="st0" d="M36.4,77.7c0,0,6.8,0.6,8,0.2c0.5-0.2,1.5-0.7,2.5-2.7c0.3-0.3,1-1.4,1.6-1.7c0-0.2-0.4-0.2-1.3-0.8
	c-0.6-0.4-2.3-1.8-2.8-2.2c0,0-1.5-0.6-3.3-0.4c-0.7,0-3-0.1-3.7-0.3c0.2,0.3,1.4,0.9,2.5,2.6c0.6,0.6,1.4,1.4,2.6,1.8
	c0,0.1,0.1,0.2,0,0.2s-1.8-0.1-3.3,1.3C38.7,75.9,37.2,77.5,36.4,77.7z"/>
<path class="st0" d="M44.9,69.9c0,0,1.8,0,2.9-0.3c0.4-0.1,2.3-0.7,3.3-0.9c0.5,0,1.3-0.2,3.9,1.6c0.3,0.1,1.3,0.2,1.3,0.2
	s0,0.1,0,0.2c0,0.1-1.1,1.2-1.1,2.4c0,0.3-0.2,2.4-1.8,3c-0.6,0.2-3.3,1.3-7.1,1.7c-0.1-0.1,0.1-0.2,0.7-0.9
	c0.6-0.7,1.7-2.5,2.3-2.9c0.7-0.4,1.9-0.8,2-0.9s0-0.3-0.1-0.3c-0.1,0-1.6,0.4-3.3-0.8c-0.4-0.2-1.9-1.6-2.3-1.7
	C45.3,70.3,45,70.1,44.9,69.9z"/>
<path class="st0" d="M63.5,65.5c0,0-1.3,0.2-3-0.3c-0.6-0.1-2-0.7-3.7,0.4c-0.6,0.3-3.3,2.1-4.6,2.3c0.1,0.2,0.3,0.3,0.4,0.3
	c0.1,0,1.7,0.3,2.6,0.9c0.3,0.2,2,0.6,2.6,0.5c0,0.2-1.4,1.6-1.3,2.7c-0.1,0.3-0.7,2.2-1.4,2.9c0.3,0,4.3-1.6,6.1-3
	c1-0.7,1.5-0.8,1.7-2.8c0.1-1.8,0-2.5,0.2-2.9c0.2-0.4,0.4-0.9,0.4-0.9S63.6,65.6,63.5,65.5z"/>
<path class="st0" d="M69,58.6c0,0-1.4,0.7-2.6,0.9c-0.5,0.1-2.2-0.2-2.8,0.4c-0.2,0.2-3.7,3.8-4.7,4.2c0.1,0.1,1.8-0.1,2.3,0.2
	c0.3,0.1,0.6,0.5,3.5,0.1c0,0.3-0.4,1.2-0.6,1.8c-0.1,0.3-0.3,0.3-0.4,4.1c0.1,0,4.3-3.5,4.8-4.5c0.3-0.6,0.7-0.8,0.7-2.4
	c-0.1-0.5-0.5-2.2-0.4-3.3C68.9,59.5,69.1,58.7,69,58.6z"/>
<path class="st0" d="M64.3,58.8c0.9-1.1,1.8-2.3,2.7-4.2c0.4-1,0.9-1.6,2.7-2.5c0.8-0.3,2.6-0.8,3.1-1.5c0.2,0.2,0.4,2.1,1.3,2.9
	c0.3,0.5,1.3,1.9,0.3,3.6c-0.2,0.5-2.8,5.6-4.3,7.1C70,64,69.5,60.7,69.9,59c0.1-0.6,0.3-1.4,0.7-2c-0.1,0-1.3,1.1-2.9,1.2
	C67.2,58.3,64.6,58.9,64.3,58.8z"/>
<path class="st0" d="M73.5,48c0,0-0.7,1.8-2.7,2.5c-0.3,0.1-1.9,0.7-2.3,1.3c0-0.3,0.9-2.1,1.1-4.2c0.2-1,0.5-1.8,1.5-2.9
	c0.9-0.7,2.2-1.3,2.9-2.5c0.2-0.5,0.2-2.3,0.2-2.3h0.4c0,0,0,2,0,2.2c0.1,0.2,0.1,0.8,0.7,1.3c0.2,0.3,2.1,2.5,2,3.3
	c0.1,0.6,0.2,4-1.9,8.2c-0.1-0.1-0.3-1.8-1-3.1c-0.3-0.3-0.8-1.1-0.8-2.1C73.6,48.7,73.6,48,73.5,48z"/>
<g>
	<path class="st0" d="M41.6,30.6c0,0-3-0.1-3.6-2.8c-0.2-0.8-0.3-1.9,0.4-3.6c1.7-2.1,2.2-2.9,2.4-3.3c0.3-0.5,0.5-1.4-0.3-2.4
		c0,0,1.3,0.4,2.1,2c0.1,0.5,0.5,2.3-0.5,3.3c-0.3,0.4-1.6,2.1-1.6,2.9c-0.2,0.9-0.2,1.7,0.9,3.3C41.7,30.5,41.6,30.6,41.6,30.6z"/>
	<path class="st0" d="M43.9,20.7c0.6,3.9-1,3.9-2.1,6.3c-0.1,0.4-0.7,2.4,1.8,3.7c0-0.1-0.5-1.6,0.6-2.6c0.7-0.7,1.9-1.8,2.4-2.9
		C46.7,24.4,46.6,22.2,43.9,20.7z"/>
	<path class="st0" d="M47.2,26.3c0,0,0,1-0.1,1.5c-0.5,1.3-1.9,1.5-1.8,2.7c0,0-1.6,0.2-0.7-1.3C45.5,28.1,46,28.1,47.2,26.3z"/>
	<rect x="36.2" y="32.4" class="st0" width="12.8" height="1.4"/>
	<rect x="37" y="34.5" class="st0" width="11" height="1.6"/>
	<rect x="36.3" y="36.9" class="st0" width="12.5" height="1.2"/>
	<polygon class="st0" points="38,38.8 46.7,38.8 44.8,50.8 39.6,50.8 	"/>
	<polygon class="st2" points="39,39.9 40.7,39.9 41.2,49.3 40.5,49.3 40,40.5 39,40.5 	"/>
	<polygon class="st2" points="41.2,39.9 42.9,39.9 42.9,49.3 42.2,49.3 42.2,40.5 41.2,40.5 	"/>
	<polygon class="st2" points="43.6,39.9 45.2,39.9 44.4,49.3 43.7,49.3 44.4,40.5 43.6,40.5 	"/>
	<rect x="38.8" y="51.7" class="st0" width="6.7" height="0.9"/>
	<rect x="39.2" y="53.3" class="st0" width="6" height="0.4"/>
	<rect x="38.8" y="54.5" class="st0" width="6.8" height="0.8"/>
	<path class="st0" d="M39.5,56c0,0,4.8,0,5.3,0c-0.4,0.6-0.5,0.8-0.6,3.3c-0.3,0-3.3,0-3.8,0C40.5,57,40.2,56.4,39.5,56z"/>
	<path class="st0" d="M41.6,60.1h1.6c0,0-0.4,1.4-0.3,2.9c-0.2,0-0.9,0-0.9,0S42.2,61.4,41.6,60.1z"/>
	<path class="st0" d="M47.5,41.1c0,0,6.5,1.2,7.9,7.4c0.1,1.1,0.7,4.9-1.8,8.5c0.4,0,0.9,0,1.1,0c0.3-0.7,0.7-1,1.4-1
		c0,0,0.3,0,0.4-0.2c0-0.2,0.2-0.6-0.5-0.6c0-0.3,0.3-1.1,0.4-1.4c0.1,0,0.8-0.1,0.8-0.1l0.1-0.8l-0.5-0.1c0,0,0-1,0-1.4
		c0.1,0,0.9,0,0.9-0.2c0-0.2,0.3-0.8-0.8-1c0,0-0.3-0.9-0.1-1.1c0.2-0.1,0.7,0,0.7-0.3c0-0.3,0.2-0.9,0-1c-0.2,0-0.9,0-1.2-0.2
		c-0.1-0.3-0.4-0.9-0.1-1.1c0.3-0.1,0.7-0.4,0.7-0.7c-0.1-0.3-0.7-0.5-1.5-0.5c-0.1-0.1-0.4-0.5-0.2-0.9c0.3-0.2,0.7-0.7,0-1
		c-0.2,0-0.6,0.3-0.8,0.2c-0.2,0-1-0.5-0.9-0.8c0-0.3,0.4-0.6,0.4-0.9c0-0.3-0.4-0.8-0.6-0.7s-0.6,0.6-1.2,0.5
		c-0.3-0.1-0.8-0.5-0.6-1c0.1-0.5-0.2-0.9-0.6-0.8c-0.3,0.1-0.3,0.5-0.5,0.7c-0.3,0-0.9,0.1-1.2-0.5c0-0.4,0-0.9-0.2-1
		C48.4,38.9,47.4,38.5,47.5,41.1z"/>
	<path class="st0" d="M51.8,57.5C60.9,46.5,48,41,47.3,41.6c0,0-0.1,1.6-0.2,1.8c0.1-0.6,11.9,4.4,2.9,14.1H51.8z"/>
	<path class="st0" d="M46.9,44c-0.1,0.2-0.6,3.3-0.7,3.9c1.1-0.3,4.8,3.4,0.1,5.7c1,0.6,1.1,2,0.8,2.6c0,0-1,0.4-1.6,0.4
		c0,0.4-0.1,0.4-0.1,0.8C52.7,57.6,56.2,46.6,46.9,44z"/>
	<path class="st0" d="M46,48.6c0,0-0.4,2-0.3,2.2c0.1,0.2,0.7,0.1,0.7,0.3c0.1,0.2,0.3,1,0.1,1.3C47.9,52.1,48.6,49,46,48.6z"/>
	<path class="st0" d="M37.9,46.4c-1.3-0.6-3.6-2-5.5,0.8C34.4,48.6,37.2,47,37.9,46.4z"/>
	<path class="st0" d="M36.5,48c0,0-1.3-0.3-1.8,1.6c-0.2,0.7-0.5,1.8-1,2.5c0.4,0,1.4,0,2.7-1.8C36.6,50,36.7,48.6,36.5,48z"/>
	<path class="st0" d="M34.5,48.5c0,0,0,2-2.5,2.3c-0.6,0.1-2.5,0.3-2.8,0.3c0.6-0.4,1.5-1.1,2.4-2.2C32.2,48.3,32.8,48.2,34.5,48.5z
		"/>
	<path class="st0" d="M32.7,51.3c0,0-0.1,1.8-3.2,2.6c0.5-0.6,1-1.2,1.4-2C31.3,51.4,31.8,51.3,32.7,51.3z"/>
	<path class="st0" d="M29.9,54.3c0,0,0,0.9,0.7,2.1c0.4-0.4,1-1,1-2.7C31.3,53.7,30.3,53.9,29.9,54.3z"/>
	<path class="st0" d="M34.8,52.4c0,0,0.7-0.3,0.9-0.5c0.1,0.7-0.1,2.1-0.3,2.5C35.2,54.3,35.3,53.1,34.8,52.4z"/>
	<path class="st0" d="M24.3,48.7c1.6-0.7,3.3-1.9,5.4,0.3c-0.3,0.3-0.7,0.9-2.5,0.5C26.5,49.1,25.8,48.6,24.3,48.7z"/>
	<path class="st0" d="M23.4,52.6c0,0,1.2-1,2.4-1.9c0.6-0.3,2.3-0.6,2.6,0.1c-0.1,0.4-0.5,1.1-2.1,1.5
		C25.7,52.3,24.8,52.4,23.4,52.6z"/>
	<path class="st0" d="M26.5,53.1c0,0-1.8,1.3-3.6,1.8c0.1,0.2,0.5,0.3,0.8,0.3c0.3,0,1.4-0.4,2-0.7C26.3,54.3,26.6,53.9,26.5,53.1z"
		/>
	<path class="st0" d="M29.3,51.6c0,0-1.7-0.2-2.3,1.8c-0.1,0.8-0.3,2.3-0.4,2.8c0.5-0.2,1.3-0.7,1.9-1.3c0.1-0.3-0.3-0.2-0.4-0.4
		c-0.1-0.2,0-0.7,0.5-0.8C29.2,53.4,29.4,53.1,29.3,51.6z"/>
	<rect x="36.9" y="39" transform="matrix(0.9629 -0.27 0.27 0.9629 -10.0709 11.5773)" class="st0" width="0.4" height="6.7"/>
	<rect x="36" y="39" transform="matrix(0.9458 -0.3247 0.3247 0.9458 -11.7263 14.022)" class="st0" width="0.4" height="6.3"/>
	<rect x="34.6" y="39.2" transform="matrix(0.903 -0.4296 0.4296 0.903 -14.6449 19.0343)" class="st0" width="0.4" height="5.5"/>
	
		<rect x="33.7" y="39.5" transform="matrix(0.8525 -0.5228 0.5228 0.8525 -17.0346 23.9482)" class="st0" width="0.4" height="5.3"/>
	<rect x="32.7" y="40" transform="matrix(0.7971 -0.6039 0.6039 0.7971 -18.9767 28.512)" class="st0" width="0.4" height="5"/>
	<rect x="32" y="40.3" transform="matrix(0.7475 -0.6643 0.6643 0.7475 -20.3587 32.2137)" class="st0" width="0.4" height="5.1"/>
	
		<rect x="31.3" y="40.9" transform="matrix(0.7133 -0.7009 0.7009 0.7133 -21.3807 34.5318)" class="st0" width="0.4" height="4.9"/>
	
		<rect x="30.6" y="41.4" transform="matrix(0.6703 -0.7421 0.7421 0.6703 -22.4775 37.3014)" class="st0" width="0.4" height="5.1"/>
	<rect x="29.9" y="42" transform="matrix(0.6319 -0.775 0.775 0.6319 -23.4133 39.7318)" class="st0" width="0.4" height="5.1"/>
	
		<rect x="29.4" y="42.7" transform="matrix(0.5491 -0.8357 0.8357 0.5491 -24.4762 45.1446)" class="st0" width="0.4" height="5.1"/>
	<rect x="29" y="43.5" transform="matrix(0.4898 -0.8718 0.8718 0.4898 -25.2416 48.9004)" class="st0" width="0.4" height="5.1"/>
	<rect x="28.6" y="44.3" transform="matrix(0.4375 -0.8992 0.8992 0.4375 -25.8736 52.2082)" class="st0" width="0.4" height="5"/>
	<rect x="28.3" y="45" transform="matrix(0.4156 -0.9096 0.9096 0.4156 -26.4228 53.5436)" class="st0" width="0.4" height="4.7"/>
	
		<rect x="26.6" y="46.6" transform="matrix(0.4719 -0.8816 0.8816 0.4719 -27.7575 48.6878)" class="st0" width="0.4" height="1.8"/>
	<path class="st2" d="M47.7,45c0,0,1.4-0.1,1.6,1c-0.1,0.4-1.2,1.7-1.5,1.8c-0.4,0.1-1.2-0.3-1.1-0.5C46.7,46.9,47.2,45.5,47.7,45z"
		/>
	<path class="st2" d="M49,49c0,0,1.3-0.2,2.1-0.9c0.1-0.3-0.1-1.2-0.7-1.4c-0.3,0.1-1.8,1-1.8,1.4C48.4,48.4,48.6,48.7,49,49z"/>
	<path class="st2" d="M51.6,49.5c0,0,0.4,1.3-0.3,1.7c-0.4,0.1-1.9,0.2-2.1-0.1c-0.1-0.3-0.5-1,0.4-1.5
		C50.5,49.4,51.5,49.5,51.6,49.5z"/>
	<path class="st2" d="M49.4,51.7c0,0,2.3,0.5,1.6,1.4c-0.1,0.4-0.3,0.8-1.2,0.6C49.4,53.5,47.9,52.7,49.4,51.7z"/>
	<path class="st2" d="M48.2,53.3c0,0,2.4,1.7,0.7,2.3C48.3,56,46.6,54,48.2,53.3z"/>
	<path class="st0" d="M48.3,46c0,0-0.8,0.8-0.8,1.1c0,0.3,0.5-0.1,0.7-0.4C48.5,46.4,48.3,46,48.3,46z"/>
	<path class="st0" d="M49.8,50.3c0,0,1.2-0.1,1.2,0c0,0.1,0.2,0.5,0,0.5C50.7,50.8,49.4,51,49.8,50.3z"/>
	<path class="st0" d="M49.2,52.4c0,0,1,0.5,1,0.7C50.1,53.3,48.9,53.3,49.2,52.4z"/>
	<path class="st0" d="M47.9,54c0,0,0.8,0.9,0.6,0.9C48.3,55,47.7,54.8,47.9,54z"/>
	<path class="st0" d="M50.1,47.7c0,0-0.9,0.5-1,0.7S50,48.5,50.1,47.7z"/>
</g>
<g>
	<g>
		<g>
			<path class="st3" d="M246.1,62.9c0-2.6,0-5,0-7.4c-0.6-0.2-1.1-0.4-1.7-0.6c0-0.4,0-0.9,0-1.4c1.9,0,3.7,0,5.6,0
				c0,0.5,0,0.9,0,1.5c-0.4,0.2-0.8,0.3-1.3,0.5c0,4.5,0,9,0,13.6c-0.7,0-1.4,0-2.1,0c-2.5-3.1-5-6.3-7.7-9.5c0,2.7,0,5.1,0,7.6
				c0.5,0.2,1,0.4,1.6,0.6c0,0.4,0,0.8,0,1.3c-2,0-3.9,0-5.9,0c0-0.4,0-0.8,0-1.3c0.5-0.2,1.1-0.3,1.8-0.6c0-0.4,0-0.8,0-1.1
				c0-2.9-0.1-5.8,0-8.7c0-1.1-0.5-1.8-1.3-2.2c-0.2-0.1-0.4-0.2-0.7-0.3c0-0.4,0-0.9,0-1.4c0.9-0.1,1.8,0,2.6-0.1
				c1.2-0.1,1.9,0.3,2.6,1.2c1.9,2.6,3.9,5,5.9,7.5C245.6,62.4,245.8,62.6,246.1,62.9z"/>
			<path class="st3" d="M142.5,61.1c0-1.1,0.2-2.2,0.6-3.3c0.9-2.5,2.7-4.1,5.4-4.5c1.5-0.3,3.1-0.2,4.5,0.4
				c2.5,1.2,3.8,3.3,4.2,5.9c0.3,1.6,0.2,3.1-0.3,4.6c-1.3,4-5.1,5.4-8.3,4.9c-3.2-0.6-5-2.7-5.8-5.7
				C142.7,62.7,142.6,61.9,142.5,61.1z M153.5,62.2c0-0.3,0-0.6,0-0.9c-0.1-1.3-0.3-2.5-0.8-3.6c-0.7-1.4-1.8-2.3-3.4-2.3
				c-1.3,0-1.8,0.4-2.2,1.7c-0.8,2.6-0.7,5.1,0.2,7.7c0.1,0.3,0.3,0.7,0.5,0.9c0.8,1.3,1.9,1.8,3.4,1.7c0.8-0.1,1.2-0.3,1.6-1
				C153.3,65,153.5,63.6,153.5,62.2z"/>
			<path class="st3" d="M219.1,61.1c0-1.3,0.3-2.6,0.8-3.8c1.1-2.5,3-3.8,5.7-4.1c2.2-0.3,4.2,0.2,5.8,1.7c1.2,1.1,1.9,2.5,2.3,4.1
				c0.4,1.8,0.3,3.6-0.3,5.3c-1.3,3.9-5,5.3-8.2,4.8c-3.2-0.5-5-2.7-5.8-5.7C219.2,62.7,219.2,62,219.1,61.1z M230,62.2
				c0-0.3,0-0.6,0-0.9c-0.1-1.3-0.3-2.5-0.8-3.6c-0.7-1.5-2.1-2.3-3.6-2.3c-1.1,0.1-1.8,0.5-2.1,1.6c-0.8,2.6-0.7,5.1,0.2,7.7
				c0.1,0.3,0.3,0.7,0.5,0.9c0.8,1.3,1.9,1.8,3.4,1.7c0.8-0.1,1.2-0.3,1.6-1C229.9,65,230,63.6,230,62.2z"/>
			<path class="st3" d="M104.4,67.1c0.6,0.2,1.1,0.4,1.7,0.6c0,0.4,0,0.8,0,1.3c-2,0-4,0-6,0c0-0.4,0-0.8,0-1.3
				c0.1-0.1,0.1-0.1,0.2-0.1c1.9-0.6,1.4-0.3,2.1-2.1c1.4-3.8,2.7-7.7,4.1-11.6c0.1-0.2,0.2-0.4,0.3-0.6c1.3,0,2.6,0,4,0
				c0.1,0.3,0.3,0.6,0.4,0.9c1.3,3.8,2.7,7.7,4,11.5c0.3,1,0.8,1.7,1.9,1.8c0.1,0,0.2,0.1,0.3,0.1c0,0.4,0,0.8,0,1.3
				c-2.4,0-4.8,0-7.3,0c0-0.4,0-0.8,0-1.3c0.5-0.2,1.1-0.3,1.7-0.6c-0.3-0.9-0.6-1.8-0.9-2.8c-1.8,0-3.5,0-5.3,0
				C105,65.3,104.7,66.1,104.4,67.1z M110,62.3c-0.7-2.1-1.3-4-1.9-5.9c-0.1,0-0.1,0-0.2,0c-0.6,1.9-1.3,3.9-1.9,5.8
				C107.3,62.3,108.5,62.3,110,62.3z"/>
			<path class="st3" d="M197.3,67.8c0,0.4,0,0.8,0,1.2c-0.8,0.2-6.2,0.3-7.4,0.1c0-0.1-0.1-0.3-0.1-0.4c0-0.3,0-0.6,0-0.9
				c0.6-0.2,1.1-0.4,1.8-0.6c-0.3-0.9-0.6-1.8-0.9-2.8c-1.8,0-3.5,0-5.3,0c-0.3,0.9-0.6,1.8-0.9,2.8c0.6,0.2,1.1,0.4,1.7,0.6
				c0,0.4,0,0.8,0,1.3c-2,0-4,0-6,0c0-0.4,0-0.8,0-1.3c0,0,0.1-0.1,0.1-0.1c1.9-0.6,1.5-0.2,2.1-2.1c1.4-3.8,2.7-7.7,4-11.5
				c0.1-0.2,0.2-0.4,0.3-0.6c1.3,0,2.6,0,4,0c0.1,0.3,0.3,0.6,0.4,0.9c1.3,3.8,2.7,7.7,4,11.5c0.3,1,0.8,1.7,1.8,1.8
				C197.1,67.6,197.1,67.7,197.3,67.8z M186.1,62.4c0.8,0,1.4,0,2,0c0.6,0,1.3,0,2,0c-0.6-2.1-1.2-4-2.1-5.8
				C187.4,58.4,186.7,60.3,186.1,62.4z"/>
			<path class="st3" d="M128.3,54.2c0,1.5,0,2.8,0,4.2c-0.8,0-1.5,0-2.3,0c-0.2-0.7-0.4-1.3-0.6-2c-0.1-0.5-0.4-0.8-0.9-0.9
				c-0.4-0.1-0.8-0.2-1.2-0.2c-0.8-0.1-1.3,0.2-1.6,0.8c-0.4,0.7-0.4,1.4,0.2,2c0.3,0.4,0.8,0.7,1.3,0.9c0.8,0.4,1.6,0.7,2.4,1
				c0.5,0.2,1,0.5,1.5,0.8c2.4,1.4,2.4,4.6,1,6.3c-1.1,1.3-2.6,1.9-4.3,2.1c-2,0.2-3.8-0.3-5.5-1.3c0-1.2,0-2.3,0-3.6
				c0.7,0,1.4,0,2.2,0c0.2,0.7,0.3,1.3,0.5,2.1c0.9,0.7,2.1,0.9,3.2,0.9c0.3,0,0.6-0.2,0.8-0.4c0.9-0.9,0.8-2.5-0.3-3.2
				c-0.5-0.4-1.1-0.6-1.7-0.9c-0.8-0.4-1.7-0.7-2.5-1c-3.4-1.5-3.2-5.6-0.6-7.4c2-1.3,4.2-1.4,6.4-0.8
				C127.1,53.7,127.7,54,128.3,54.2z"/>
			<path class="st3" d="M140.6,54.2c0,1.5,0,2.8,0,4.2c-0.8,0-1.5,0-2.3,0c-0.2-0.7-0.4-1.3-0.6-2c-0.1-0.4-0.3-0.7-0.8-0.8
				c-0.4-0.1-0.8-0.2-1.2-0.3c-0.8-0.2-1.3,0.2-1.7,0.9c-0.3,0.7-0.3,1.4,0.2,2c0.3,0.3,0.8,0.6,1.2,0.8c0.8,0.4,1.7,0.7,2.5,1.1
				c0.5,0.2,1,0.5,1.5,0.8c2.3,1.3,2.4,4.3,1,6.1c-1,1.3-2.3,1.9-3.8,2.1c-2.2,0.4-4.2-0.1-6.1-1.3c0-1.2,0-2.4,0-3.6
				c0.7,0,1.4,0,2.2,0c0.2,0.7,0.3,1.4,0.5,2.1c1,0.7,2.1,0.9,3.2,0.9c0.6,0,1.1-0.4,1.3-1.1c0.3-0.9,0-2-0.8-2.5
				c-0.5-0.3-1-0.6-1.6-0.8c-0.8-0.4-1.7-0.7-2.5-1c-3.4-1.5-3.3-5.7-0.6-7.5c1.7-1.2,3.6-1.3,5.5-1
				C138.8,53.5,139.7,53.9,140.6,54.2z"/>
			<path class="st3" d="M201.1,67.2c0-3.9,0-7.7,0-11.6c-0.7,0-1.3,0-2,0c-0.3,0.9-0.5,1.8-0.8,2.8c-0.7,0-1.3,0-2.1,0
				c0-1.7,0-3.3,0-4.9c4.5,0,9,0,13.6,0c0,0.8,0,1.7,0,2.5c0,0.8,0,1.6,0,2.4c-0.7,0-1.4,0-2.2,0c-0.2-0.9-0.4-1.8-0.7-2.8
				c-0.7,0-1.4,0-2.1,0c-0.2,0.7-0.3,9.3-0.1,11.6c0.5,0.2,1.1,0.4,1.7,0.6c0,0.4,0,0.8,0,1.3c-2.4,0-4.7,0-7.1,0c0-0.4,0-0.8,0-1.3
				C200,67.6,200.5,67.4,201.1,67.2z"/>
			<path class="st3" d="M169.9,64.9c0.4,0.3,0.8,0.5,1.1,0.8c-1.2,2.2-2.9,3.5-5.3,3.6c-2.5,0.2-4.6-0.8-6.1-2.9
				c-1.3-2-1.5-4.2-1.2-6.5c0.3-1.7,0.9-3.2,2.1-4.5c1.3-1.3,2.8-2.1,4.6-2.2c1.8-0.1,3.5,0.1,5.1,0.9c0,1.4,0,2.8,0,4.2
				c-0.8,0-1.5,0-2.3,0c-0.2-0.8-0.5-1.7-0.7-2.5c-1-0.5-2-0.6-3-0.4c-0.3,0-0.6,0.3-0.7,0.5c-0.7,0.9-1,1.9-1.1,3
				c-0.2,1.5-0.2,3.1,0.2,4.6c0.1,0.5,0.3,1,0.6,1.4c1.1,2.4,4.4,2.7,6,0.8C169.5,65.5,169.7,65.2,169.9,64.9z"/>
			<path class="st3" d="M212.5,55.4c-0.5-0.2-1.1-0.4-1.6-0.6c0-0.4,0-0.9,0-1.4c2.4,0,4.7,0,7.1,0c0,0.5,0,0.9,0,1.4
				c-0.3,0.1-0.5,0.2-0.8,0.3c-0.3,0.1-0.5,0.2-0.8,0.3c0,3.9,0,7.8,0,11.8c0.5,0.2,1.1,0.4,1.7,0.6c0,0.4,0,0.8,0,1.2
				c-2.3,0-4.7,0-7.1,0c0-0.4,0-0.8,0-1.3c0.5-0.2,1-0.3,1.6-0.5C212.5,63.3,212.5,59.4,212.5,55.4z"/>
			<path class="st3" d="M173.7,55.4c-0.5-0.2-1-0.4-1.6-0.6c0-0.4,0-0.9,0-1.4c2.4,0,4.7,0,7.1,0c0,0.5,0,0.9,0,1.4
				c-0.5,0.2-1,0.3-1.7,0.6c0,3.9,0,7.8,0,11.8c0.5,0.2,1,0.4,1.7,0.6c0,0.4,0,0.8,0,1.2c-2.4,0-4.7,0-7.1,0c0-0.4,0-0.8,0-1.2
				c0.5-0.2,1.1-0.3,1.7-0.5C173.7,63.3,173.7,59.4,173.7,55.4z"/>
		</g>
		<g>
			<path class="st3" d="M133.6,13.9c-1.5,3.5-3,7-4.5,10.5c-0.5,0-1,0-1.6,0c-1.5-3.4-3-6.9-4.5-10.4c-0.2,0.6-0.3,5.7-0.1,8.5
				c0.5,0.2,1.1,0.4,1.7,0.6c0,0.4,0,0.8,0,1.3c-2,0-4,0-6,0c0-0.4,0-0.9,0-1.3c0.6-0.2,1.1-0.4,1.7-0.6c0-3.9,0-7.8,0-11.8
				c-0.6-0.2-1.2-0.3-1.8-0.5c0-0.5,0-0.9,0-1.4c2,0,3.9,0,6,0c1.5,3.5,3,7,4.5,10.8c1.5-3.7,3-7.2,4.4-10.8c1.9,0,3.7,0,5.6,0
				c0,0.5,0,0.9,0,1.5c-0.5,0.1-1.1,0.3-1.7,0.4c-0.2,0.7-0.2,9.7-0.1,11.8c0.2,0.1,0.5,0.2,0.8,0.3c0.3,0.1,0.5,0.2,0.9,0.3
				c0,0.4,0,0.9,0,1.4c-2.3,0-4.5,0-6.8,0c0-0.5,0-0.9,0-1.3c0.5-0.2,1-0.3,1.6-0.5C133.7,19.6,133.7,16.7,133.6,13.9
				C133.7,13.9,133.7,13.9,133.6,13.9z"/>
			<path class="st3" d="M219.7,10.8c-0.5-0.2-1.1-0.4-1.7-0.6c0-0.5,0-0.9,0-1.4c2,0,3.9,0,6,0c0,0.5,0,0.9,0,1.4
				c-0.5,0.2-1.1,0.4-1.7,0.6c0,4.5,0,9,0,13.6c-0.7,0-1.4,0-2.1,0c-2.5-3.1-5-6.2-7.7-9.5c0,2.6,0,5.1,0,7.6
				c0.5,0.2,1.1,0.4,1.7,0.6c0,0.4,0,0.8,0,1.3c-2,0-3.9,0-6,0c0-0.3,0-0.5,0-0.7c0-0.2,0-0.4,0-0.6c0.6-0.2,1.1-0.4,1.8-0.6
				c0-0.3,0-0.7,0-1c0-3-0.1-5.9,0-8.9c0-1.1-0.6-1.7-1.4-2.1c-0.2-0.1-0.4-0.2-0.7-0.3c0-0.5,0-0.9,0-1.5c0.7-0.1,1.4,0,2.1,0
				s1.4,0,2.1,0c2.5,3.2,5,6.3,7.6,9.6C219.7,15.7,219.7,13.3,219.7,10.8z"/>
			<path class="st3" d="M155.5,10.8c-0.6-0.2-1.1-0.4-1.7-0.6c0-0.5,0-0.9,0-1.4c0.2,0,0.5-0.1,0.7-0.1c2.1,0,4.2,0,6.3,0
				c1.1,0,2.1,0.2,3.1,0.5c3.4,1.1,3.4,5,1.6,6.8c-0.4,0.4-0.9,0.8-1.3,1.1c0.8,1.6,1.6,3.2,2.4,4.8c0.1,0.2,0.4,0.4,0.6,0.5
				c0.5,0.2,1.1,0.3,1.7,0.5c0,0.4,0,0.8,0,1.3c-1.7,0-3.5,0-5.3,0c-1-2.1-2-4.2-3-6.3c-0.4,0-0.9,0-1.3,0c0,1.4,0,2.9,0,4.4
				c0.5,0.2,1.1,0.3,1.7,0.6c0,0.4,0,0.9,0,1.3c-2.4,0-4.7,0-7.1,0c0-0.2,0-0.4,0-0.5c0-0.3,0-0.5,0-0.8c0.6-0.2,1.2-0.4,1.7-0.6
				C155.5,18.5,155.5,14.7,155.5,10.8z M159.2,16.3c0.7-0.1,1.3-0.1,2-0.2c0.4,0,0.7-0.2,0.9-0.4c0.8-0.9,1-1.9,0.8-3.1
				c-0.2-1-0.8-1.6-1.8-1.8c-0.6-0.1-1.2-0.1-1.8,0C159.2,12.7,159.2,14.4,159.2,16.3z"/>
			<path class="st3" d="M149.3,22.3c0.4-0.9,0.8-1.8,1.2-2.8c0.7,0,1.5,0,2.3,0c-0.1,1.6-0.2,3.2-0.3,4.8c-4.2,0-8.3,0-12.4,0
				c0-0.5,0-0.9,0-1.3c0.6-0.2,1.1-0.4,1.7-0.6c0-3.9,0-7.8,0-11.7c-0.5-0.2-1.1-0.4-1.7-0.6c0-0.4,0-0.9,0-1.3
				c0.6-0.2,11.2-0.2,12.2,0c0.1,1.6,0.1,3.2,0.2,4.8c-0.8,0-1.5,0-2.3,0c-0.3-0.9-0.6-1.8-0.9-2.8c-1.2,0-2.4,0-3.7,0
				c0,1.5,0,2.9,0,4.4c1.3,0,2.7,0,4,0c0,0.8,0,1.4,0,2.2c-1.3,0-2.6,0-4,0c0,1.7,0,3.3,0,4.9C146.7,22.3,147.9,22.3,149.3,22.3z"/>
			<path class="st3" d="M118,24.4c-2.4,0-4.9,0-7.3,0c-0.2-0.4-0.1-0.9-0.1-1.3c0.6-0.2,1.1-0.4,1.8-0.6c-0.3-0.9-0.6-1.8-0.9-2.7
				c-1.8,0-3.5,0-5.3,0c-0.3,0.9-0.6,1.8-0.9,2.7c0.6,0.2,1.1,0.4,1.7,0.6c0,0.4,0,0.8,0,1.3c-0.6,0.2-5,0.2-6,0c0-0.4,0-0.8,0-1.3
				c0.3-0.1,0.6-0.2,0.9-0.3c0.6-0.1,0.9-0.4,1.1-1c1-2.9,2-5.7,3-8.6c0.5-1.5,1-2.9,1.6-4.4c1.3,0,2.7,0,4.1,0
				c1.6,4.5,3.2,9.1,4.8,13.7c0.5,0.2,1.1,0.3,1.7,0.5C118,23.4,118,23.9,118,24.4z M106.8,17.6c1.3,0,2.6,0,4,0
				c-0.6-2-1.3-3.9-1.9-5.8c-0.1,0-0.1,0-0.2,0C108.1,13.7,107.4,15.7,106.8,17.6z"/>
			<path class="st3" d="M195.7,19.7c-0.3,0.9-0.6,1.8-0.9,2.7c0.6,0.2,1.1,0.4,1.7,0.6c0,0.4,0,0.8,0,1.3c-2,0-3.9,0-6,0
				c0-0.5,0-0.9,0-1.3c0.3-0.1,0.6-0.2,1-0.3c0.5-0.1,0.8-0.4,1-0.9c1.4-4,2.8-8.1,4.2-12.1c0.1-0.3,0.2-0.6,0.3-1
				c1.4,0,2.7,0,4.1,0c1.6,4.5,3.2,9.1,4.8,13.7c0.5,0.2,1.1,0.3,1.7,0.6c0,0.4,0,0.8,0,1.3c-2.5,0-4.9,0-7.4,0c0-0.5,0-0.9,0-1.3
				c0.6-0.2,1.1-0.4,1.7-0.6c-0.3-0.9-0.6-1.8-0.9-2.7C199.3,19.7,197.6,19.7,195.7,19.7z M198.5,11.8c-0.1,0-0.2,0-0.2,0
				c-0.6,1.9-1.3,3.8-1.9,5.8c1.4,0,2.6,0,4,0C199.7,15.6,199.1,13.7,198.5,11.8z"/>
			<path class="st3" d="M189.3,9.4c0,1.4,0,2.8,0,4.3c-0.7,0-1.4,0-2.2,0c-0.2-0.6-0.4-1.3-0.5-1.9c-0.1-0.5-0.3-0.7-0.8-0.8
				c-0.8-0.2-1.5-0.3-2.3-0.2c-0.4,0.1-0.6,0.2-0.8,0.5c-0.4,0.7-0.8,1.4-0.9,2.2c-0.4,2-0.4,3.9,0.2,5.9c0.1,0.4,0.3,0.8,0.5,1.2
				c1.3,2.2,4.1,2.2,5.6,0.8c0.3-0.3,0.6-0.7,1-1c0.4,0.3,0.7,0.5,1.1,0.8c-1.1,2.1-2.7,3.4-5.1,3.6c-4,0.3-7-2.3-7.5-6.2
				c-0.3-2.1,0-4.1,1-6c1.3-2.4,3.3-3.7,6.1-3.8C186.2,8.5,187.8,8.7,189.3,9.4z"/>
			<path class="st3" d="M176.5,8.8c0,0.5,0,0.9,0,1.4c-0.6,0.2-1.1,0.4-1.7,0.6c0,3.9,0,7.8,0,11.8c0.5,0.2,1,0.3,1.6,0.5
				c0,0.4,0,0.8,0,1.2c-2.3,0-4.7,0-7.1,0c0-0.4,0-0.8,0-1.2c0.6-0.2,1.1-0.3,1.7-0.5c0-4,0-7.8,0-11.8c-0.6-0.2-1.1-0.4-1.7-0.6
				c0-0.4,0-0.9,0-1.4C171.8,8.8,174.1,8.8,176.5,8.8z"/>
		</g>
		<g>
			<path class="st3" d="M194.8,44.5c0.5,0.2,1,0.3,1.6,0.5c0,0.4,0,0.8,0,1.3c-2.3,0-4.5,0-6.8,0c0-0.4,0-0.9,0-1.3
				c0.5-0.2,1-0.3,1.6-0.5c0-2.9,0-5.7,0-8.5c0,0-0.1,0-0.1,0c-1.5,3.5-3,7-4.5,10.5c-0.5,0-1.1,0-1.6,0c-1.5-3.5-3.1-7.1-4.6-10.6
				c0,0-0.1,0-0.1,0c0,2.8,0,5.7,0,8.6c0.6,0.2,1.1,0.4,1.7,0.6c0,0.4,0,0.8,0,1.3c-0.6,0.2-4.6,0.2-6,0.1c0-0.4,0-0.8,0-1.3
				c0.5-0.2,1.1-0.4,1.7-0.6c0-3.9,0-7.8,0-11.8c-0.6-0.2-1.2-0.3-1.8-0.5c0-0.5,0-0.9,0-1.4c0.6-0.2,4.5-0.2,6-0.1
				c1.5,3.5,3,7.1,4.5,10.8c1.5-3.7,3-7.2,4.4-10.8c1.9,0,3.8,0,5.7,0c0,0.5,0,1,0,1.5c-0.6,0.2-1.2,0.3-1.8,0.4
				C194.8,36.7,194.8,40.5,194.8,44.5z"/>
			<path class="st3" d="M148.3,44.6c0.6,0.2,1.1,0.3,1.7,0.5c0,0.4,0,0.8,0,1.3c-0.6,0.2-4.5,0.2-6,0.1c0-0.4,0-0.9,0-1.3
				c0.6-0.2,1.1-0.4,1.7-0.6c0-0.3,0-0.7,0-0.9c0-3-0.1-5.9,0-8.9c0-1.1-0.5-1.7-1.4-2.2c-0.2-0.1-0.4-0.2-0.7-0.3
				c0-0.5,0-0.9,0-1.4c0.3,0,0.4,0,0.7,0c0.9,0,1.8,0,2.8,0c0.6,0,0.9,0.2,1.3,0.6c1.8,2.3,3.5,4.5,5.3,6.7c0.4,0.6,0.9,1.1,1.3,1.7
				c0.1,0.2,0.2,0.4,0.3,0.5c0.1-0.1,0.1-0.1,0.2-0.2c0-2.4,0-4.8,0-7.3c-0.5-0.2-1.1-0.3-1.7-0.6c0-0.4,0-0.9,0-1.4c2,0,4,0,6,0
				c0,0.5,0,1,0,1.4c-0.6,0.2-1.1,0.3-1.7,0.5c0,4.6,0,9.1,0,13.6c-0.7,0-1.4,0-2.1,0c-2.5-3.1-5-6.3-7.6-9.4
				C148.2,37.7,148.1,42.9,148.3,44.6z"/>
			<path class="st3" d="M128.5,38.6c0.1-2,0.5-3.8,1.8-5.4c1.2-1.5,2.8-2.3,4.6-2.5c0.9-0.1,1.8-0.1,2.7,0.1
				c2.7,0.5,4.3,2.3,5.2,4.8c0.8,2.2,0.8,4.5-0.1,6.7c-1.1,2.8-3.2,4.2-6.2,4.5c-1.6,0.2-3.2-0.1-4.5-1c-1.8-1.1-2.7-2.8-3.2-4.8
				C128.6,40.1,128.5,39.3,128.5,38.6z M139.4,39.5c-0.1-0.8-0.1-1.6-0.2-2.3c-0.2-1-0.5-2-1.1-2.9c-0.8-1.1-1.9-1.6-3.3-1.5
				c-0.9,0.1-1.7,0.4-1.9,1.4c-0.1,0.3-0.2,0.7-0.3,1c-0.4,1.7-0.3,3.4-0.1,5.1c0.2,0.9,0.4,1.8,0.9,2.5c0.7,1.2,1.7,1.8,3.1,1.9
				c1,0,1.7-0.4,2.1-1.3C139.2,42.1,139.4,40.8,139.4,39.5z"/>
			<path class="st3" d="M168,30.6c3.1,0,5.6,1.7,6.7,4.8c0.8,2.3,0.8,4.5,0,6.8c-1,2.6-3.4,4.4-6.2,4.5c-1.6,0.1-3.1-0.2-4.4-1
				c-1.6-1.1-2.6-2.6-3.1-4.4c-0.5-2.1-0.5-4.2,0.3-6.2c1.1-2.8,3.2-4.2,6.2-4.4C167.6,30.6,167.8,30.6,168,30.6z M171.4,39.2
				c0-0.4-0.1-1.2-0.2-2c-0.2-1-0.4-2-1.1-2.9c-0.8-1.1-1.9-1.6-3.2-1.5c-1,0.1-1.7,0.4-2,1.5c-0.1,0.3-0.2,0.7-0.3,1
				c-0.4,1.7-0.3,3.4,0,5.1c0.2,0.9,0.4,1.8,0.9,2.5c0.7,1.1,1.6,1.8,3,1.8c1.5,0,1.6-0.1,2.3-1.5C171.3,42,171.4,40.8,171.4,39.2z"
				/>
			<path class="st3" d="M106.6,44.5c1.3,0,2.5,0,3.8,0c0.4-0.9,0.8-1.9,1.3-2.9c0.7,0,1.4,0,2.2,0c0.1,1.6-0.2,3.2-0.2,4.8
				c-4.2,0-8.3,0-12.5,0c0-0.4,0-0.8,0-1.3c0.5-0.2,1.1-0.4,1.7-0.6c0-3.9,0-7.8,0-11.6c-0.5-0.4-1.1-0.4-1.7-0.6c0-0.5,0-1,0-1.5
				c4.1,0,8.1,0,12.3,0c0.2,1.6,0.1,3.2,0.2,4.9c-0.8,0-1.5,0-2.3,0c-0.3-0.9-0.6-1.8-1-2.8c-1.2,0-2.4,0-3.7,0c0,1.4,0,2.9,0,4.3
				c1.3,0,2.6,0,4,0c0,0.8,0,1.4,0,2.2c-1.3,0.1-2.6,0-4,0.1C106.6,41.1,106.6,42.8,106.6,44.5z"/>
			<path class="st3" d="M126.8,31.5c0,1.4,0,2.8,0,4.3c-0.7,0.1-1.5,0-2.3,0c-0.2-0.7-0.4-1.4-0.5-2.1c-0.1-0.4-0.3-0.6-0.7-0.7
				c-0.9-0.3-1.9-0.3-2.8-0.2c-0.6,0.6-1,1.4-1.3,2.2c-0.5,2-0.5,4,0,6.1c0.1,0.5,0.3,1,0.6,1.4c1.3,2.3,4.3,2.2,5.7,0.8
				c0.3-0.3,0.5-0.6,0.9-1c0.3,0.2,0.7,0.5,1.2,0.8c-1.1,2-2.7,3.4-5,3.6c-4.3,0.4-7.2-2.5-7.6-6.4c-0.2-2.1,0-4,1-5.8
				c1.3-2.3,3.3-3.7,6-3.8C123.6,30.5,125.2,30.8,126.8,31.5z"/>
			<path class="st3" d="M217.5,31.5c0,1.4,0,2.8,0,4.2c-0.8,0-1.5,0-2.3,0c-0.2-0.7-0.4-1.3-0.5-2c-0.1-0.5-0.3-0.6-0.7-0.8
				c-0.8-0.3-1.6-0.3-2.4-0.2c-0.3,0-0.5,0.2-0.8,0.4c-0.8,1-1.1,2.1-1.2,3.3c-0.2,1.5-0.2,3.1,0.3,4.6c0.2,0.5,0.3,1,0.6,1.4
				c1.3,2.3,4.3,2.3,5.7,0.8c0.3-0.3,0.5-0.6,0.8-0.9c0.3,0.3,0.7,0.5,1.1,0.8c-0.1,0.2-0.1,0.3-0.2,0.4c-1.5,2.4-3.6,3.6-6.3,3.3
				c-2.7-0.3-4.6-1.8-5.5-4.3c-1-2.7-0.8-5.4,0.5-8c1.3-2.3,3.2-3.6,5.9-3.7c1.5-0.1,3,0.1,4.4,0.7
				C217.2,31.3,217.4,31.4,217.5,31.5z"/>
			<path class="st3" d="M204.7,30.8c0,0.5,0,0.9,0,1.4c-0.6,0.2-1.1,0.3-1.7,0.5c0,4,0,7.9,0,11.9c0.5,0.2,1.1,0.4,1.7,0.6
				c0,0.4,0,0.8,0,1.2c-2.4,0-4.7,0-7.1,0c0-0.4,0-0.8,0-1.2c0.5-0.2,1.1-0.3,1.6-0.5c0-4,0-7.9,0-11.9c-0.5-0.2-1.1-0.4-1.7-0.6
				c0-0.4,0-0.9,0-1.4C200,30.8,202.3,30.8,204.7,30.8z"/>
		</g>
	</g>
</g>
</svg>
