<svg enable-background="new 0 0 28.6 35" viewBox="0 0 28.6 35" xmlns="http://www.w3.org/2000/svg"><path d="m.4 8.9v13.9c0 .7.4 1.4 1 1.7l12 6.9h.1l5.9 3.4v-3-1.7-.6c0-.3.2-.6.4-.8l.4-.2.2-.1 7-4.1c.6-.4 1-1 1-1.7v-13.7c0-.7-.4-1.4-1-1.7l-12.1-6.9c-.6-.4-1.4-.4-2 0l-11.9 7c-.6.3-1 .9-1 1.6z" fill="#0f2b46"/><path d="m9.5 9.6c.8-.8 2.1-.8 2.9 0 .6.5.8 1.3.6 2.1l5.5 3.2c.8-.8 2.1-.8 2.9.1s.8 2.1-.1 2.9c-.8.8-2.1.8-2.9-.1-.5-.6-.7-1.4-.5-2.1l-5.5-3.2-.1.1c-.9.7-2.2.6-2.9-.3-.6-.8-.6-1.9.1-2.7zm3.5 11.7 5.4-3.1-1-.6-4.8 2.8c-.8-.8-2-.9-2.9-.2 0 0-.1 0-.1.1-.8.8-.9 2.1-.1 2.9s2.1.9 2.9.1c.6-.5.8-1.2.6-2z" fill="#fff"/><path d="m40.9 11h5.5c1.3 0 2.5.3 3.5.8s1.8 1.2 2.4 2.2c.6.9.9 2 .9 3.2.1 2.3-1.2 4.5-3.3 5.5-1.1.5-2.3.8-3.5.8h-5.5zm5.4 10.5c.8 0 1.7-.1 2.4-.5.7-.3 1.2-.9 1.6-1.5.4-.7.6-1.4.6-2.3s-.2-1.6-.6-2.2c-.4-.7-.9-1.2-1.6-1.5-.7-.4-1.6-.5-2.4-.5h-3v8.6zm18.1-2.7v.7h-7.5c.1.7.5 1.3 1 1.7.6.4 1.2.6 2.1.6 1 0 1.9-.3 2.6-1l1.2 1.4c-.4.5-1 .9-1.6 1.2-.7.3-1.4.4-2.2.4-1 0-1.9-.2-2.8-.6-1.6-.8-2.6-2.5-2.5-4.3 0-.9.2-1.7.6-2.5.4-.7 1-1.3 1.8-1.7s1.6-.6 2.5-.6 1.7.2 2.5.6c.7.4 1.3 1 1.7 1.7.4.5.6 1.4.6 2.4zm-4.8-3.2c-1.4 0-2.5 1-2.7 2.3h5.4c-.1-.6-.4-1.2-.9-1.7-.5-.4-1.2-.6-1.8-.6zm15.9 3.2v.7h-7.5c.1.7.5 1.3 1 1.7.6.4 1.2.6 2.1.6 1 0 1.9-.3 2.6-1l1.2 1.4c-.4.5-1 .9-1.6 1.2-.7.3-1.4.4-2.2.4-1 0-1.9-.2-2.8-.6-1.6-.8-2.6-2.5-2.5-4.3 0-.9.2-1.7.6-2.5.4-.7 1-1.3 1.8-1.7s1.6-.6 2.5-.6 1.8.2 2.5.6 1.3 1 1.7 1.7c.4.5.6 1.4.6 2.4zm-4.8-3.2c-1.4 0-2.5 1-2.7 2.3h5.4c-.1-.6-.4-1.2-.9-1.7-.5-.4-1.2-.6-1.8-.6zm12.2-1.7c.9 0 1.8.2 2.5.6s1.3 1 1.7 1.7.6 1.6.6 2.5-.2 1.8-.6 2.6c-.4.7-1 1.3-1.7 1.7s-1.6.6-2.5.6c-1.3 0-2.3-.4-3.1-1.3v4.6h-2.2v-12.9h2.1v1.2c.4-.4.8-.8 1.4-1s1.2-.4 1.8-.3zm-.3 7.8c.8 0 1.5-.3 2-.8s.8-1.3.8-2.2-.3-1.6-.8-2.1-1.3-.8-2-.8c-1 0-2 .5-2.5 1.4-.2.5-.4 1-.4 1.6s.1 1.1.4 1.6c.6.8 1.5 1.3 2.5 1.3zm7.5-10.7h2.3v10.5h6.5v2h-8.8z" fill="#1b1e25"/></svg>