<?xml version="1.0" encoding="utf-8"?>
<!-- Generator: Adobe Illustrator 26.2.1, SVG Export Plug-In . SVG Version: 6.00 Build 0)  -->
<svg version="1.1" id="Layer_1" xmlns="http://www.w3.org/2000/svg" xmlns:xlink="http://www.w3.org/1999/xlink" x="0px" y="0px"
	 viewBox="0 0 28.6 35" style="enable-background:new 0 0 28.6 35;" xml:space="preserve">
<style type="text/css">
	.st0{fill:#0F2B46;}
	.st1{fill:#FFFFFF;}
	.st2{fill:#1B1E25;}
</style>
<g>
	<path class="st0" d="M0.4,8.9v13.9c0,0.7,0.4,1.4,1,1.7l12,6.9l0.1,0l5.9,3.4l0-3v-1.7l0,0v-0.6c0-0.3,0.2-0.6,0.4-0.8l0.4-0.2
		l0.2-0.1l7-4.1c0.6-0.4,1-1,1-1.7V8.9c0-0.7-0.4-1.4-1-1.7L15.3,0.3c-0.6-0.4-1.4-0.4-2,0l-11.9,7C0.8,7.6,0.4,8.2,0.4,8.9z"/>
	<path class="st1" d="M9.5,9.6c0.8-0.8,2.1-0.8,2.9,0c0.6,0.5,0.8,1.3,0.6,2.1l5.5,3.2l0,0c0.8-0.8,2.1-0.8,2.9,0.1s0.8,2.1-0.1,2.9
		c-0.8,0.8-2.1,0.8-2.9-0.1c-0.5-0.6-0.7-1.4-0.5-2.1l0,0l-5.5-3.2l-0.1,0.1c-0.9,0.7-2.2,0.6-2.9-0.3C8.8,11.5,8.8,10.4,9.5,9.6z
		 M13,21.3l5.4-3.1l-1-0.6l-4.8,2.8c-0.8-0.8-2-0.9-2.9-0.2c0,0-0.1,0-0.1,0.1c-0.8,0.8-0.9,2.1-0.1,2.9c0.8,0.8,2.1,0.9,2.9,0.1
		C13,22.8,13.2,22.1,13,21.3z"/>
</g>
<path class="st2" d="M40.9,11h5.5c1.3,0,2.5,0.3,3.5,0.8c1,0.5,1.8,1.2,2.4,2.2c0.6,0.9,0.9,2,0.9,3.2c0.1,2.3-1.2,4.5-3.3,5.5
	c-1.1,0.5-2.3,0.8-3.5,0.8h-5.5V11z M46.3,21.5c0.8,0,1.7-0.1,2.4-0.5c0.7-0.3,1.2-0.9,1.6-1.5c0.4-0.7,0.6-1.4,0.6-2.3
	c0-0.9-0.2-1.6-0.6-2.2c-0.4-0.7-0.9-1.2-1.6-1.5c-0.7-0.4-1.6-0.5-2.4-0.5h-3v8.6L46.3,21.5L46.3,21.5z M64.4,18.8l0,0.7h-7.5
	c0.1,0.7,0.5,1.3,1,1.7c0.6,0.4,1.2,0.6,2.1,0.6c1,0,1.9-0.3,2.6-1l1.2,1.4c-0.4,0.5-1,0.9-1.6,1.2c-0.7,0.3-1.4,0.4-2.2,0.4
	c-1,0-1.9-0.2-2.8-0.6c-1.6-0.8-2.6-2.5-2.5-4.3c0-0.9,0.2-1.7,0.6-2.5c0.4-0.7,1-1.3,1.8-1.7c0.8-0.4,1.6-0.6,2.5-0.6
	c0.9,0,1.7,0.2,2.5,0.6c0.7,0.4,1.3,1,1.7,1.7C64.2,16.9,64.4,17.8,64.4,18.8z M59.6,15.6c-1.4,0-2.5,1-2.7,2.3h5.4
	c-0.1-0.6-0.4-1.2-0.9-1.7C60.9,15.8,60.2,15.6,59.6,15.6z M75.5,18.8c0,0.2,0,0.4,0,0.7H68c0.1,0.7,0.5,1.3,1,1.7
	c0.6,0.4,1.2,0.6,2.1,0.6c1,0,1.9-0.3,2.6-1l1.2,1.4c-0.4,0.5-1,0.9-1.6,1.2c-0.7,0.3-1.4,0.4-2.2,0.4c-1,0-1.9-0.2-2.8-0.6
	c-1.6-0.8-2.6-2.5-2.5-4.3c0-0.9,0.2-1.7,0.6-2.5c0.4-0.7,1-1.3,1.8-1.7c0.8-0.4,1.6-0.6,2.5-0.6c0.9,0,1.8,0.2,2.5,0.6
	c0.7,0.4,1.3,1,1.7,1.7C75.3,16.9,75.5,17.8,75.5,18.8z M70.7,15.6c-1.4,0-2.5,1-2.7,2.3h5.4c-0.1-0.6-0.4-1.2-0.9-1.7
	C72,15.8,71.3,15.6,70.7,15.6z M82.9,13.9c0.9,0,1.8,0.2,2.5,0.6c0.7,0.4,1.3,1,1.7,1.7c0.4,0.7,0.6,1.6,0.6,2.5s-0.2,1.8-0.6,2.6
	c-0.4,0.7-1,1.3-1.7,1.7c-0.7,0.4-1.6,0.6-2.5,0.6c-1.3,0-2.3-0.4-3.1-1.3v4.6h-2.2V14h2.1v1.2c0.4-0.4,0.8-0.8,1.4-1
	C81.7,14,82.3,13.8,82.9,13.9L82.9,13.9z M82.6,21.7c0.8,0,1.5-0.3,2-0.8c0.5-0.5,0.8-1.3,0.8-2.2s-0.3-1.6-0.8-2.1
	c-0.5-0.5-1.3-0.8-2-0.8c-1,0-2,0.5-2.5,1.4c-0.2,0.5-0.4,1-0.4,1.6c0,0.6,0.1,1.1,0.4,1.6C80.7,21.2,81.6,21.7,82.6,21.7z M90.1,11
	h2.3v10.5h6.5v2h-8.8V11z"/>
</svg>
