<svg enable-background="new 0 0 316.9 103" viewBox="0 0 316.9 103" xmlns="http://www.w3.org/2000/svg"><path d="m335.2 28.6h17.8v2.2c.6 3.5 1.6 7.7 3 12.6 1.2 4.1 4.6 8.1 10.4 12.1-18.5.9-27.5-2.6-26.9-10.4-1.4-3.7-2.9-9.2-4.3-16.5"/><path d="m356.9 102.8h-17.8c0-1.5.1-5.2.4-7.8.9-6.6 1.9-12.7 3-18.2.3-12.4 9.2-18.4 26.9-17.8-4.9 4.6-7.8 10.1-8.7 16.5-.3.6-.4 1.2-.4 1.7-1.7 8.4-2.8 18.1-3.4 25.6"/><path d="m340.8 0h17.4c.6 4.9 1.6 10.6 3 15.2.6 4.6 3.6 8.5 9.1 11.7-17.4 1.7-26.2-2-26.5-11.3-1.4-3.7-2.4-9.5-3-15.6" fill="#e60012"/><path d="m374.2 23h17.4c1.4 2.9 3.8 7.4 6.9 13.4 2.3 4.1 4 6.9 5.2 8.7 6.7-10.4 11.4-18.2 14.3-23.4 1.4-4.6-.7-5.5-6.5-6.4h-42.5v-4.3h60.7c7.2 1.5 9.8 3.6 7.8 10.3-4.6 7.8-12.9 21.1-24.7 39.9 2.6 5.5 6.8 13 12.6 22.6 1.2 2.3 2.2 3.9 3 4.8 4.6 6.1 11.2 11.1 16.2 14.3h-16.2c-6.9-.3-12.4-4.2-16.5-10.8-1.7-2-3.5-4.6-5.2-7.8-2-3.2-3.5-5.8-4.3-7.8-4.1 5.8-7.8 11-11.3 15.6-4.9 6.4-10.1 10.6-15.6 10.8h-15.6c2.9-2 7.4-7.5 13.4-14.7 6.9-9 13.7-18.4 20.4-28.2-6.6-12-13.1-24.3-19.5-37"/><path d="m544.3 100.6h-16.1v-62.4h-6.9v45.5c.3 12.1-5.8 18.2-18.2 18.2.3.3.6.6.9.9-11.9.9-18.5-1-20-5.6-.6-1.2-1.3-2.6-2.2-4.3-2.3-4.6-3.8-8.4-4.3-11.3h15.6c2.3 6.4 4.6 11.7 6.9 16 3.5-5.8 5.2-12.3 5.2-19.5v-54.7c-1.2-11.9 3.9-17.4 15.2-16.5h3.5c4.6.6 7.7-2 9.1-6.9h20c-2.6 7.8-8.7 11.9-18.2 11.3h-3.5c-7.2-.6-10.6 3.5-10 12.1v10.4h31.7v4.3h-8.7zm-72.5-42.9v17.8h9.1v-17.8zm0-19.5v15.6h9.1v-15.6zm0-22.9v18.5h9.1v-18.5zm31.3 64.5h-55.1v-4.3h8.2v-60.2h-31.1v-4.3h31.1v-11h15.6v11h9.1v-11h16v11h4.8v4.3h-4.7v60.2h6.1zm-43.4 1.8h15.6c-3.8 8.4-5.9 13.4-6.5 15.2-1.2 4.9-10.5 6.9-24.4 6.1 4.6-2.4 10.9-9.5 15.3-21.3z"/><path d="m480.9 33.8h41.8v4.3h-41.8z"/><g fill="#e60012"><path d="m144.4 68c-6 .7-10.7 2-14.2 4.1-3.5 2-5.6 4.6-6.1 7.7-.4 2.3-.1 4 1 5.1s2.9 1.7 5.6 1.7c3.3 0 6-1 8.2-2.9s3.6-4.6 4.2-8zm-3.8 33c-.1-1.3-.1-2.8-.1-4.3.1-1.6.2-3.4.4-5.4-2.9 3.8-6.3 6.8-10.4 8.8s-8.6 3-13.6 3c-7.6 0-13.3-1.9-17.1-5.6-3.7-3.7-5-8.8-3.9-15.3 1.5-8.2 6.4-14.6 14.9-19s20.4-6.9 35.7-7.3l.4-2.2c.5-2.6.1-4.5-1.2-5.7-1.2-1.2-3.4-1.8-6.4-1.8s-5.6.8-7.8 2.3-3.7 3.5-4.3 5.9l-24.1-2.4c3.1-7.2 8-12.6 14.8-16.2s15.5-5.3 26-5.3c11.9 0 20 2 24.4 6.1s5.7 10.9 4 20.5l-5.5 31.4c-.5 2.8-.8 5.3-.8 7.3 0 2.1.2 3.8.7 5.3z"/><path d="m171.8 101 12.1-68.8h24.4l-1.7 9.8c2.5-3.8 5.7-6.7 9.4-8.7s7.8-2.9 12.3-2.9c7.8 0 13 2 15.9 6 2.8 4 3.4 10.5 1.9 19.4l-8 45.2h-26.3l7.5-42.4c.6-3.3.5-5.8-.2-7.3-.8-1.6-2.2-2.4-4.4-2.4-2.3 0-4.3.8-5.8 2.5-1.6 1.7-2.7 4.1-3.2 7.3l-7.7 42.3z"/><path d="m243.7 80.9 22.1-2.7c.2 2.6 1.4 4.5 3.7 5.8s5.6 2 10 2c3 0 5.4-.4 7.2-1.3 1.9-.8 2.9-2 3.2-3.4.4-2.1-2.2-3.4-7.6-4.1-2.7-.3-4.9-.7-6.6-1l-.6-.1c-9-1.6-15.1-3.9-18.5-6.9-2.1-1.9-3.6-4.1-4.4-6.8-.9-2.7-1-5.5-.5-8.5 1.3-7.1 5.2-12.9 11.8-17.3s14.8-6.5 24.5-6.5c8.1 0 14.6 1.6 19.5 4.7s8 7.7 9.2 13.7l-21.3 3.6c-.8-2-2.1-3.6-4-4.5-1.9-1-4.4-1.5-7.6-1.5-2.5 0-4.5.4-5.9 1.1s-2.2 1.8-2.5 3.2c-.4 2.1 2.9 3.7 9.8 4.7 3.4.5 6.1.9 8.1 1.3l.8.1c8.2 1.6 13.7 3.8 16.5 6.7 1.7 1.9 2.9 4 3.5 6.5.6 2.4.7 5.1.2 8-1.3 7.3-5.5 13.2-12.7 17.8s-15.9 6.8-26.4 6.8c-9.7 0-17.2-1.8-22.7-5.5-5.1-3.7-8.1-9-8.8-15.9"/><path d="m69.1 42.5h-21.7l6.1-34.4h-28.5l-16.4 92.9h28.5l6.5-36.8h21.7l-6.5 36.8h28.5l10.4-58.5z"/></g><path d="m69.6 40.6h28.5l6-32.5h-28.5z" fill="#122a87"/></svg>