<?xml version="1.0" encoding="utf-8"?>
<!-- Generator: Adobe Illustrator 26.2.1, SVG Export Plug-In . SVG Version: 6.00 Build 0)  -->
<svg version="1.1" id="图层_1" xmlns="http://www.w3.org/2000/svg" xmlns:xlink="http://www.w3.org/1999/xlink" x="0px" y="0px"
	 viewBox="0 0 316.9 103" style="enable-background:new 0 0 316.9 103;" xml:space="preserve">
<style type="text/css">
	.st0{fill:#E60012;}
	.st1{fill:#122A87;}
</style>
<path d="M335.2,28.6H353c0,0.6,0,1.3,0,2.2c0.6,3.5,1.6,7.7,3,12.6c1.2,4.1,4.6,8.1,10.4,12.1c-18.5,0.9-27.5-2.6-26.9-10.4
	C338.1,41.4,336.6,35.9,335.2,28.6"/>
<path d="M356.9,102.8h-17.8c0-1.5,0.1-5.2,0.4-7.8c0.9-6.6,1.9-12.7,3-18.2c0.3-12.4,9.2-18.4,26.9-17.8c-4.9,4.6-7.8,10.1-8.7,16.5
	c-0.3,0.6-0.4,1.2-0.4,1.7C358.6,85.6,357.5,95.3,356.9,102.8"/>
<path class="st0" d="M340.8,0h17.4c0.6,4.9,1.6,10.6,3,15.2c0.6,4.6,3.6,8.5,9.1,11.7c-17.4,1.7-26.2-2-26.5-11.3
	C342.4,11.9,341.4,6.1,340.8,0"/>
<path d="M374.2,23h17.4c1.4,2.9,3.8,7.4,6.9,13.4c2.3,4.1,4,6.9,5.2,8.7c6.7-10.4,11.4-18.2,14.3-23.4c1.4-4.6-0.7-5.5-6.5-6.4H369
	V11h60.7c7.2,1.5,9.8,3.6,7.8,10.3c-4.6,7.8-12.9,21.1-24.7,39.9c2.6,5.5,6.8,13,12.6,22.6c1.2,2.3,2.2,3.9,3,4.8
	c4.6,6.1,11.2,11.1,16.2,14.3h-16.2c-6.9-0.3-12.4-4.2-16.5-10.8c-1.7-2-3.5-4.6-5.2-7.8c-2-3.2-3.5-5.8-4.3-7.8
	c-4.1,5.8-7.8,11-11.3,15.6c-4.9,6.4-10.1,10.6-15.6,10.8h-15.6c2.9-2,7.4-7.5,13.4-14.7c6.9-9,13.7-18.4,20.4-28.2
	C387.1,48,380.6,35.7,374.2,23"/>
<path d="M544.3,100.6L544.3,100.6h-16.1V38.2h-6.9v45.5c0.3,12.1-5.8,18.2-18.2,18.2c0.3,0.3,0.6,0.6,0.9,0.9
	c-11.9,0.9-18.5-1-20-5.6c-0.6-1.2-1.3-2.6-2.2-4.3c-2.3-4.6-3.8-8.4-4.3-11.3h15.6c2.3,6.4,4.6,11.7,6.9,16
	c3.5-5.8,5.2-12.3,5.2-19.5V23.4c-1.2-11.9,3.9-17.4,15.2-16.5h3.5c4.6,0.6,7.7-2,9.1-6.9h20c-2.6,7.8-8.7,11.9-18.2,11.3h-3.5
	c-7.2-0.6-10.6,3.5-10,12.1v10.4h31.7v4.3h-8.7L544.3,100.6L544.3,100.6z M471.8,57.7L471.8,57.7v17.8h9.1V57.7H471.8z M471.8,38.2
	L471.8,38.2v15.6h9.1V38.2H471.8z M471.8,15.3L471.8,15.3v18.5h9.1V15.3H471.8z M503.1,79.8L503.1,79.8H448v-4.3h8.2V15.3h-31.1V11
	h31.1V0h15.6v11h9.1V0h16v11h4.8v4.3H497v60.2h6.1L503.1,79.8L503.1,79.8z M459.7,81.6h15.6c-3.8,8.4-5.9,13.4-6.5,15.2
	c-1.2,4.9-10.5,6.9-24.4,6.1C449,100.5,455.3,93.4,459.7,81.6z"/>
<rect x="480.9" y="33.8" width="41.8" height="4.3"/>
<path class="st0" d="M144.4,68L144.4,68c-6,0.7-10.7,2-14.2,4.1c-3.5,2-5.6,4.6-6.1,7.7c-0.4,2.3-0.1,4,1,5.1
	c1.1,1.1,2.9,1.7,5.6,1.7c3.3,0,6-1,8.2-2.9c2.2-1.9,3.6-4.6,4.2-8L144.4,68z M140.6,101c-0.1-1.3-0.1-2.8-0.1-4.3
	c0.1-1.6,0.2-3.4,0.4-5.4c-2.9,3.8-6.3,6.8-10.4,8.8c-4.1,2-8.6,3-13.6,3c-7.6,0-13.3-1.9-17.1-5.6c-3.7-3.7-5-8.8-3.9-15.3
	c1.5-8.2,6.4-14.6,14.9-19c8.5-4.4,20.4-6.9,35.7-7.3l0.4-2.2c0.5-2.6,0.1-4.5-1.2-5.7c-1.2-1.2-3.4-1.8-6.4-1.8
	c-3,0-5.6,0.8-7.8,2.3c-2.2,1.5-3.7,3.5-4.3,5.9l-24.1-2.4c3.1-7.2,8-12.6,14.8-16.2c6.8-3.6,15.5-5.3,26-5.3c11.9,0,20,2,24.4,6.1
	c4.4,4.1,5.7,10.9,4,20.5l-5.5,31.4c-0.5,2.8-0.8,5.3-0.8,7.3c0,2.1,0.2,3.8,0.7,5.3L140.6,101L140.6,101L140.6,101L140.6,101z"/>
<path class="st0" d="M171.8,101l12.1-68.8h24.4l-1.7,9.8c2.5-3.8,5.7-6.7,9.4-8.7c3.7-2,7.8-2.9,12.3-2.9c7.8,0,13,2,15.9,6
	c2.8,4,3.4,10.5,1.9,19.4l-8,45.2h-26.3l7.5-42.4c0.6-3.3,0.5-5.8-0.2-7.3c-0.8-1.6-2.2-2.4-4.4-2.4c-2.3,0-4.3,0.8-5.8,2.5
	c-1.6,1.7-2.7,4.1-3.2,7.3L198,101L171.8,101L171.8,101L171.8,101z"/>
<path class="st0" d="M243.7,80.9l22.1-2.7c0.2,2.6,1.4,4.5,3.7,5.8c2.3,1.3,5.6,2,10,2c3,0,5.4-0.4,7.2-1.3c1.9-0.8,2.9-2,3.2-3.4
	c0.4-2.1-2.2-3.4-7.6-4.1c-2.7-0.3-4.9-0.7-6.6-1l-0.6-0.1c-9-1.6-15.1-3.9-18.5-6.9c-2.1-1.9-3.6-4.1-4.4-6.8
	c-0.9-2.7-1-5.5-0.5-8.5c1.3-7.1,5.2-12.9,11.8-17.3c6.6-4.4,14.8-6.5,24.5-6.5c8.1,0,14.6,1.6,19.5,4.7c4.9,3.1,8,7.7,9.2,13.7
	l-21.3,3.6c-0.8-2-2.1-3.6-4-4.5c-1.9-1-4.4-1.5-7.6-1.5c-2.5,0-4.5,0.4-5.9,1.1c-1.4,0.7-2.2,1.8-2.5,3.2c-0.4,2.1,2.9,3.7,9.8,4.7
	c3.4,0.5,6.1,0.9,8.1,1.3l0.8,0.1c8.2,1.6,13.7,3.8,16.5,6.7c1.7,1.9,2.9,4,3.5,6.5c0.6,2.4,0.7,5.1,0.2,8
	c-1.3,7.3-5.5,13.2-12.7,17.8c-7.2,4.6-15.9,6.8-26.4,6.8c-9.7,0-17.2-1.8-22.7-5.5C247.4,93.1,244.4,87.8,243.7,80.9"/>
<polygon class="st0" points="69.1,42.5 47.4,42.5 53.5,8.1 25,8.1 8.6,101 37.1,101 43.6,64.2 65.3,64.2 58.8,101 87.3,101 
	97.7,42.5 "/>
<polygon class="st1" points="69.6,40.6 98.1,40.6 104.1,8.1 75.6,8.1 "/>
</svg>
