<svg xmlns="http://www.w3.org/2000/svg" fill="none" viewBox="0 0 67 91"><path fill="#900" fill-rule="evenodd" d="M65.79 64.48H1.49V0h64.3zM16.77 5.15a9.56 9.56 0 0 0-3.94-.6c-3.5.31-7.1 2.93-7.27 8.06-.16 5.05 2.6 7.91 5.22 8.9 3.25 1.22 5.09.51 5.17.48.07-.03.15 0 .2.06a.2.2 0 0 1 .02.21l-.03.03c-.28.3-.96 1.04-1.37 1.59a5.12 5.12 0 0 1 1.72.68 13.96 13.96 0 0 1 3.92-3.89 17.35 17.35 0 0 1 5.4-2.15l.23-.05-.18.14a5.8 5.8 0 0 0-1.45 1.69c-.5.88-.9 2.13-.78 2.49l.04.04c.2.07.2.07.26-.04l.25-.32c.17-.18.31-.27.45-.27h.01c.11 0 .2.06.27.11l.01.02c.1.07.1.19.05.46-.07.49-.2 1.39.25 2.12.62.99 1.17 1.62 1.47 1.69.05 0 .08 0 .1-.02.03-.02.13-.14.02-.7-.13-.6-.4-2.64-.09-4.08.4-1.77 1.52-3.49 2.95-3.49h.13V16.7c-.28 0-1.71-.11-2.55-1a2.43 2.43 0 0 1-.63-1.84A4.59 4.59 0 0 1 28 10.68c.1-.1.4-.41.3-.6-.07-.16-.2-.24-.39-.26a.9.9 0 0 0-.06 0c-.68 0-1.88.88-2.26 1.44a6.6 6.6 0 0 0-.78 1.68.21.21 0 0 1-.11.13c-.15.08-.52.02-.78-.29-.2-.24-.22-.68-.21-.78v-.14h-.01a.15.15 0 0 0-.07-.01c-.05 0-.17.03-.28.2-.25.42-.03 2.37.73 3.43l.88 1.2.05.07-.08.01c-.57.1-1.11.25-1.63.43-.87.3-1.77.68-2.65 1.05h-.02l-.01.01a36.2 36.2 0 0 1-3.13 1.2c-2.94.94-5.3.87-6.79-.2a7.43 7.43 0 0 1-3.19-6.43 7.15 7.15 0 0 1 2-4.77 5.15 5.15 0 0 1 3.85-1.56c3.7.08 4.97 2.44 4.94 4.43-.04 1.9-1.1 3.12-2.82 3.28a2.2 2.2 0 0 1-2.3-1.45 4.77 4.77 0 0 1-.21-1.41c-.01-.39-.02-.69-.17-.81-.06-.05-.12-.07-.18-.05-.15.04-.33.24-.43.5a4.07 4.07 0 0 0 .07 3.21 3.59 3.59 0 0 0 3.67 1.86 4.58 4.58 0 0 0 3.85-2.88c.45-1.08.5-1.71.46-2.38v-.01a3.3 3.3 0 0 0-.1-.66c-.01-.05 0-.1.02-.15a.18.18 0 0 1 .13-.08c.05-.01 1.24-.23 1.98-1.3 1.34-1.92.84-3 .65-3.28-.16-.24-.34-.31-.39-.3-.04.03-.1.25-.13.38-.13.53-.33 1.32-1.34 1.63-.9.28-1.51-.16-2.3-.72h-.01l-.01-.01a9.31 9.31 0 0 0-1.97-1.14zM6.9 26.95c-.1.23-.22.5-.35.87a13.23 13.23 0 0 0-1.04 5.31 9.33 9.33 0 0 0 2.13 6.28 7.18 7.18 0 0 0 5.12 2.53c2.85.13 5.25-1.64 6.16-2.3a45.19 45.19 0 0 0 4-3.76l.05-.04.04.05c0 .02.87 1.44 1.73 1.85.66.3 1.49.2 1.85.07.12-.04.16-.08.16-.09l-.19-.16a3.38 3.38 0 0 1-1.36-2.33c-.13-1.31 2.5-2.53 4.4-2.88l.05-1.84c-.25 0-1.4.12-1.66.19-3.36.93-5.52 2.99-7.6 4.98-2.22 2.13-4.32 4.14-7.58 4.14h-.06a4.81 4.81 0 0 1-3.46-1.7 7.01 7.01 0 0 1-1.85-5.06c.15-2.03.88-3.7 2.12-4.82a5.32 5.32 0 0 1 3.58-1.39c.96.02 1.95.39 2.71 1.02.6.5 1.34 1.38 1.41 2.76a3.42 3.42 0 0 1-.95 2.68 3.28 3.28 0 0 1-2.94.68 3 3 0 0 1-1.72-1.34c-.24-.38-.4-.83-.56-1.3-.04-.1-.17-.22-.32-.2-.18.02-.31.28-.34.68a3.8 3.8 0 0 0 2.83 3.76 4.48 4.48 0 0 0 5.54-2.68c.41-1.15.44-1.8.44-1.81 0-.03.02-.15.1-.17.1-.01.16.08.21.16.16.26 1.06.79 1.82.58.83-.22 1.2-.94 1.55-1.64.32-.65.63-1.25 1.29-1.36.79-.12 1.03 0 1.18.06.1.05.12.06.28-.05.13-.1.12-.23.09-.33-.15-.42-.94-1.03-2-.99a2.46 2.46 0 0 0-1.86.74c-.27.24-.54.48-.99.67-1.14.5-1.7.34-1.73.33h-.03v-.03c-.02-.04-1.92-4.04-6.23-4.04h-.03a6.55 6.55 0 0 0-4.11 1.34c-.15.1-.18.13-.22.1a6.12 6.12 0 0 0-.5-1.84 1.7 1.7 0 0 0-1.1-.82c.16.16.42.79.35 1.6a3.87 3.87 0 0 1-.4 1.53zm3.26 10.2a4.56 4.56 0 0 0 1.98 1.2s-.06-.88.13-1.67c0 0-1.13-.51-1.8-1.7a9.53 9.53 0 0 0-.3 2.17zm2.55-8.98a4.94 4.94 0 0 0-.83 1.96c.46 1.34 1.01 1.88 1.39 2.05a16.8 16.8 0 0 1 1.24-3.54 2.08 2.08 0 0 0-1.8-.47zm-1.63 30.95c.27.27 1.76-1.39 2.65-3.27a9.88 9.88 0 0 0 .85-5.64 12.75 12.75 0 0 0-1.2-3.25 8.08 8.08 0 0 0 2.98 1.22c2.37.4 4.5.5 6.09.14.52-.12.91-.25 1.2-.34.47-.16.7-.23.81-.05.21.31-.67 1.18-3.53 1.63-2.99.48-4.8-.2-4.8-.2s.03.62 1.07 1.42c.43.34.8.56 1.14.77.5.3.9.54 1.28 1.01.33.42.35.83.37 1.12 0 .22.02.36.15.38.2.03.3-.29.45-.74.06-.21.14-.46.24-.7.32-.78.05-1.53.05-1.53s1.08.91 3.16.7c1.47-.16 2.33-.42 2.24-.72-.04-.14-.18-.15-.46-.17a6 6 0 0 1-.7-.08c-.77-.13-1.07-.46-1.07-.46s1.27-.4 2.85-1.5c1.56-1.08 2.58-2.45 2.36-2.78-.17-.25-.6-.1-1.14.08-.17.06-.35.13-.54.18-1.1.32-1.49.3-1.49.3s-.12-.14.38-.73c.34-.41.68-.63.91-.79.23-.15.38-.24.37-.4-.02-.32-1.05-.68-3.67.5-.94.42-1.95 1.08-1.95 1.08s.4-1.23.56-2.08l.05-.32c.16-.87.38-2.1.11-2.2-.17-.06-.22 0-.35.23a4.5 4.5 0 0 1-.46.66l-.22.25c-.26.32-.38.46-.54.4-.19-.07-.22-.3-.26-.57a3.1 3.1 0 0 0-.1-.47c-.15-.47-.53-1.09-.68-1-.15.08-.26.57-.4 1.17-.2.83-.46 1.88-.89 2.34a2.4 2.4 0 0 1-.91.57 5.24 5.24 0 0 1-3.5-.05l-.04-.01a4.72 4.72 0 0 1-2.52-1.87l-.1-.17-.01-.01a6.75 6.75 0 0 1-2.06-.6c.21.62.54 1.42.78 2 .86 2.06 2.05 5.54.92 8.27-1.35 3.27-4.47 3.91-4.82 3.2-.1-.2.18-.34.65-.56a5.84 5.84 0 0 0 3-2.75c1.1-2.22.26-5 .26-5s0 2.39-1.72 4c-1.42 1.35-2.49 1.25-3.06 1.2-.21-.02-.36-.03-.43.04-.3.29.18.52.66.75.3.13.83.26.83.26s-.56.52-1.35.91l-.34.17c-.53.26-.82.4-.86.63-.03.21 1.02 1.23 2 1.67.99.44 2.2.55 2.2.55s.1-.03-.23.55l-.35.52c-.19.25-.3.4-.2.54.23.35.5.29 1.9-.6 1.42-.88 1.83-1.46 1.83-1.46l-.19.69c-.05.2-.13.37-.2.5-.1.2-.15.33-.01.47zm14.35 1.15c2.28-.4 4.16-.94 6.58-3.14 2.68-2.42 3.7-5.91 4.13-7.7.62-2.54.57-7.38.57-7.38v-25.1s-.18-5.41.2-6.77a7.03 7.03 0 0 1 1.7-2.87C39.7 6.18 42 5.81 42 5.81c.67-.11.8-.44.76-.77-.07-.47-.48-.52-.48-.52L25.96 4.5s-.42.08-.5.55c-.04.33.1.66.77.77 0 0 2.3.37 3.39 1.5a7 7 0 0 1 1.69 2.87c.39 1.36.21 6.76.21 6.76L31.17 42v.87c.02 1.75.06 5.11-.14 6.48-.36 2.3-.9 4.26-2.31 5.78a5.66 5.66 0 0 1-4.66 2.01c-1.93 0-3.2-.59-4.56-1.67a82.8 82.8 0 0 1-3.95-3.52l2.49 8.08s4.84.69 7.39.25zM44.18 45c-1.98.22-3.38-1.39-3.59-3.07-.1-.89.1-1.72.61-2.4a3.44 3.44 0 0 1 2.17-1.33c.8-.1 1.5.13 1.92.35.3.14.52.24.62.19.2-.1.2-.33.12-.62a1.8 1.8 0 0 0-.78-.96 3.08 3.08 0 0 0-1.8-.44 4.64 4.64 0 0 0-3.5 2.08 1.1 1.1 0 0 0-.43-.5c-.42-.28-.86-.38-1-.21-.08.09 0 .2.12.36.13.17.32.43.45.83a3.98 3.98 0 0 1 .06 1.5c-.03.6-.07 1.4.08 2.05a4.99 4.99 0 0 0 4.72 3.88c.3 0 .58-.03.86-.1a4.75 4.75 0 0 0 2.47-1.6l.13.11.02.02c.42.35 1.28 1.07 1.94 1.43.16-.59.29-1.43.28-1.87-.16-.1-1.2-.82-2.64-2.33a77.86 77.86 0 0 1-1.59-1.69 3.35 3.35 0 0 0-1.82-.85c-.74-.03-.98.15-1 .16l.22.3a19.3 19.3 0 0 0 3.12 3.64l.11.14a3 3 0 0 1-1.87.93zm-5.16-22.04s-.15 1.2.22 3.73c.2 1.37.53 2.65.7 3.23l1.78-.83-.06-.2a18.8 18.8 0 0 1-.6-2.52c-.24-1.57-.18-1.9-.18-1.9a7.17 7.17 0 0 0-1.86-1.51zm-.47-1.8s1.03.32 2.3 1.5c.74.68 1.49 1.47 2.05 2.11l.34-2.24a17.3 17.3 0 0 0-1.88-1.86 16.66 16.66 0 0 0-2.81-1.71zm22.68 35a5.13 5.13 0 0 0 0-2.9c-.18-.64-.76-2.1-2.86-3.46-1.06-.68-2.25-1.07-2.71-1.23l-.18-.06c.33-.75.83-1.05 1.08-1.2.1-.05.15-.08.16-.11.02-.11-.67-.41-1.27-.27-.5.12-1.04.62-1.23.92l-.1.35c-.06.24-.15.57-.35 1.16l.57.26c.69.3 1.63.73 2.16.99 2.06 1 2.92 2.14 3.3 3.39.18.62.1 1.22-.04 1.73-.47 1.69-1.96 2.75-3.38 2.4-.96-.22-1.68-.72-2.03-1.38a2.32 2.32 0 0 1-.08-1.85c.18-.5.49-.72.71-.81.32-.13.67-.11.98.05.6.33.63.79.64 1.12.01.2.02.35.16.4.1.04.23.02.35-.06.24-.16.4-.55.44-1.03.05-.59-.3-1.43-1.4-1.89-1.1-.45-2.53.18-3.08 1.36a4.48 4.48 0 0 0-.09 3.55c-.07.07-.29.3-.49.66-.31.58-.32 1.09-.24 1.28.01.04.04.07.07.08.07.02.14-.05.26-.17.13-.13.31-.31.57-.46.5-.27 1-.2 1.06-.18.88.56 1.72.94 2.7.94.4 0 .83-.06 1.28-.2 1.48-.44 2.55-1.65 3.04-3.38zm-2.47-8.87c1.17-.16 2.56-1.2 2.97-3.65a4.66 4.66 0 0 0-.8-3.37 3.95 3.95 0 0 0-2.44-1.63h-.02c-1.34-.33-3.29-.16-5.53 2.32-.07.07-.32.43-.47.73l-.19-.6a26.66 26.66 0 0 0-3.99-7.05c-.5-.64-.92-1.2-1.28-1.9-.68-1.32-.82-3.53-.57-3.93.03-.05.06-.07.09-.06.3.03.34.28.44.8.12.6.3 1.5 1.02 2.73a11.1 11.1 0 0 0 1.57 2.08c.38.42.77.85 1.27 1.59a12.09 12.09 0 0 1 1.38 2.39l.08.2-.03-.21c0-.03-.46-3.1-.01-6.27.23-1.66.78-3 1.14-3.89l.01-.01c.27-.65.43-1.04.33-1.2a.28.28 0 0 0-.2-.14h-.02c-.28 0-.68.45-1.18 1.01l-.03.04-.45.5c-.8.84-1.35 1.8-1.42 1.93-.14-.03-1.28-.36-1.4-2.8-.08-1.67.07-2.57.2-3.36.07-.38.13-.75.16-1.16 0-.15-.02-.23-.1-.25-.28-.09-1.1.97-1.52 1.85-.26.53-.33.96-.38 1.27-.04.24-.06.4-.15.45-.03 0-.06 0-.1-.03-.25-.15-.67-.88-.78-2.18a11.3 11.3 0 0 1-.03-1.16v-.01c0-.53 0-.89-.17-1a.28.28 0 0 0-.28.02c-.27.15-.55.64-.79 1.33a11.6 11.6 0 0 0-.54 2.88 27.6 27.6 0 0 0 0 4.6c-.15 0-1 .05-2.07.4-1.06.35-2.99 1.2-2.89 1.67.05.24.42.18.9.1.3-.04.65-.1.95-.07.59.04 1.21.34 1.37.42-.16.08-.79.44-1.73 1.34-.74.7-1.58 1.5-1.16 2.09.13.18.45.04.93-.18a5.42 5.42 0 0 1 4.52-.36c2.27.87 3.64 2.21 4.9 4.95.31.73.56 1.61.74 2.58h.01c.45 2.47-.06 5.55-2.34 8.35a17.62 17.62 0 0 1-2.83 2.9c-2.95 2.47-4.66 2.87-4.8 2.52-.07-.15.52-.57 1.36-1.15a34.63 34.63 0 0 0 6.38-5.72s-2.58 1.88-4.92 1.67a4.03 4.03 0 0 1-2.06-.97c-.18-.14-.29-.23-.32-.2-.3.35.14 1.2.31 1.55l.02.04c.16.31.5.63.5.63s-.1.18-.9.2c-.46 0-.71-.17-.86-.27-.07-.06-.12-.1-.15-.06-.16.13-.05.67.5 1.2.53.52 1.04.7 1.04.7s-.8.29-2.05.29a6 6 0 0 1-1.33-.19c-.43-.1-.76-.16-.86-.05-.29.3.04.6.4.93.11.09.22.18.31.28.45.46.7.46.7.46s-.12.53-1.44.74a4.77 4.77 0 0 1-1.92-.16c-.46-.1-.77-.18-.83.05-.13.55 1.55 1.96 3.55 2.14 1.96.18 3.65-.73 3.65-.73s-.02.43-.87 1.4c-.44.49-.76.71-.94.84-.17.12-.23.16-.16.26.3.42 1.58.21 5.92-3.76l.01.27c.25 4.07 4.28 3.13 4.26 2.88-.01-.1-.17-.14-.4-.2a3.1 3.1 0 0 1-1-.45c-.85-.62-.72-.95-.72-.95s.19.17.7.2c.5.04.8.02.8-.17.01-.04-.08-.08-.22-.14-.4-.17-1.24-.51-1.52-1.58a2.4 2.4 0 0 1 .53-2.09c3.61-4.5 4.18-7.05 4.45-8.78v-.09c.07-.5.3-2.25 1.09-3.42l.01-.02.02-.02a4.38 4.38 0 0 1 3.38-2.21.77.77 0 0 0 .07 0h.05c1.22.13 1.64.65 1.93 1.22.4.76.3 1.71-.2 2.52-.1.15-.25.29-.38.4-.17.15-.3.26-.27.38.02.1.08.19.18.24.15.07.37.05.6-.06l.07-.04c.18-.1.33-.17.39-.14.02.01.03.03.03.06.04.26.1.62-.9 1.41-.34.27-.66.39-.89.47-.2.07-.32.12-.36.22-.02.04-.02.1.01.16.07.16.34.25.68.25l.28-.01zm1.62-18.1s.62-.07 1.19-.44c.77-.5 1.12-.91 1-1.17-.04-.08-.4-.12-.8-.17-.51-.06-1.21-.14-1.85-.36-1.13-.4-2-1.17-2.4-2.1-.26-.63-.37-1.59.53-2.63l.02-.01.16-.15a9.47 9.47 0 0 0 3.61-7.38c.13-2.8-.97-4.79-1.5-5.74v-.01a1.8 1.8 0 0 1-.26-.55c0-.19.2-.31.48-.49.31-.2.74-.46 1.08-.94.55-.75.73-1.36.69-1.55l-.02-.03c-.04-.02-.23.07-.41.16h-.02c-.3.15-.7.35-1.16.46-.88.22-2.11-.03-3.3-.3l-.25-.05-.16-.04a19.05 19.05 0 0 0-4.36-.5 12.3 12.3 0 0 0-9.2 4.08c-2.76 2.97-3.86 7.5-4.1 8.59l1.73 1.06.04-.1.03-.12-.06.22c.14-.13.66-.38 1.92-.54a5.3 5.3 0 0 1 1.89-.01c.34.09.59.15.63.04.17-.42-.79-1.4-1.6-1.8a3.18 3.18 0 0 0-1.96-.22c.62-1.65 1.48-3.68 2.29-4.74 1.3-1.71 4.16-4.58 8.78-4.4 4.8.17 6.92 3.93 6.87 7.58A7.1 7.1 0 0 1 58.46 19a5.28 5.28 0 0 1-3.6 2.16 4.32 4.32 0 0 1-4.79-3.46c-.25-1.51-.03-2.8.62-3.64a2.81 2.81 0 0 1 2.2-1.07 1.7 1.7 0 0 1 1.4.55 2 2 0 0 1 .5 1.47c-.07 1.07-.65 1.36-1.03 1.56-.23.11-.36.18-.35.32.01.15.1.28.23.38.31.22.82.24 1.38.05.68-.24 1.47-1.12 1.42-2.82a3.62 3.62 0 0 0-3.13-3.36 5.32 5.32 0 0 0-4.26 1.7.04.04 0 0 1-.06 0 3.36 3.36 0 0 0-1.04-.34c-.81-.12-1.4.12-1.57.3l-.05.06c0 .05.15.12.29.19.24.11.56.27.87.56a2.76 2.76 0 0 1 .82 1.43c-.27 2.1-.17 3.9 1.23 5.8 1.73 2.34 4.16 2.31 5.2 2.3.24 0 .48.02.6.05h.02l.03.01c.26.1.34.39.34.53 0 .16-.06.39-.38.63-.55.42-.67.83-.53 1.82.07.53.41 1.14.77 1.79.38.68.76 1.37.86 2.02a8.62 8.62 0 0 1-.02 3.37c-.04.22-.07.37-.03.43.03.05.08.07.15.07.32 0 .97-.5 1.39-1.15.27-.42.28-1.06.28-1.52 0-.35.01-.58.1-.66a.12.12 0 0 1 .11-.03c1 .2 1.08 2.05 1.03 2.74-.03.33-.13.56-.22.74-.12.23-.16.34-.04.48.11.13.33.06.55 0 .1-.03.2-.06.3-.07.11 0 .21.02.27.13.17.35-.13.97-.65 1.35-.1.07-.2.13-.28.2-.41.27-.76.52-.7.75 0 0 .03.03.12.05.4.1 1.47 0 2.22-.7.92-.88 1.2-1.9 1.04-3.74a5.33 5.33 0 0 0-1.71-3.16.05.05 0 0 1-.02-.05c0-.01.02-.03.04-.03zM9.63 72.73a54.08 54.08 0 0 1-4.54 0 .1.1 0 0 0-.06.03.09.09 0 0 0-.02.06v.11c0 .05.03.08.07.09.83.13 1.39.22 1.39 2.07v10.67c0 2.01-.95 4.18-2.5 4.18-.27 0-.54-.02-.8-.06a3.86 3.86 0 0 1-2.3-1.8 5.98 5.98 0 0 1-.65-1.26.11.11 0 0 0-.13-.07.12.12 0 0 0-.09.13l.36 2.8c0 .04.02.08.05.1a6.2 6.2 0 0 0 2.48.87 6.14 6.14 0 0 0 1.18.07c2.56 0 4.28-2.1 4.28-5.22V75.09c0-1.8.42-1.88 1.26-2.06l.04-.01a.1.1 0 0 0 .07-.09v-.11a.08.08 0 0 0-.09-.09zM13.12 76c0 2.12 1.58 3.2 3.25 4.35 1.88 1.28 3.81 2.6 3.81 5.5 0 2.87-2.06 4.89-5.01 4.89-.87 0-1.49-.14-2.03-.26-.45-.1-.88-.2-1.4-.2-.13 0-.2 0-.33.03a.1.1 0 0 1-.08-.02.09.09 0 0 1-.02-.08c.02-.11.02-.4.02-.6 0-.26-.02-.51-.05-.77a7.58 7.58 0 0 1-.07-.87c0-.2.02-.92.3-1.52a.08.08 0 0 1 .07-.05h.12a.08.08 0 0 1 .09.09l-.01.08a4.5 4.5 0 0 0-.04.5c0 1.9 1.83 2.9 3.64 2.9 1.56 0 3.14-.96 3.14-3.11 0-2.27-1.65-3.4-3.4-4.59-1.83-1.24-3.72-2.52-3.72-5.2 0-2.55 1.84-4.33 4.48-4.33.76 0 1.37.12 1.9.22h.01c.43.08.83.16 1.24.16.14 0 .26 0 .4-.02a.1.1 0 0 1 .06.02.1.1 0 0 1 .03.07 23.79 23.79 0 0 0-.05 2.85.08.08 0 0 1-.08.1h-.14a.08.08 0 0 1-.09-.07c-.33-1.74-1.45-2.66-3.24-2.66-2.07 0-2.8 1.34-2.8 2.6zm21.27 5.86c0-4.48 3.4-9.12 9.1-9.12a8.85 8.85 0 0 1 8.84 9.05 8.9 8.9 0 0 1-9.05 8.95 8.8 8.8 0 0 1-8.9-8.88zm8.9 8.16c4.07 0 6.6-3.1 6.6-8.09 0-6.27-3.56-8.5-6.6-8.5-4.75 0-6.44 4.5-6.44 8.36 0 5.15 2.4 8.23 6.43 8.23zm19.19-5.25-.01-.01c-.64-1.23-1.15-2.22-1.52-2.6a4.74 4.74 0 0 0 3.08-4.45c0-3.02-2.16-4.97-5.5-4.97l-.97.02h-.19l-1.22.03c-1 0-1.42 0-2.2-.05-.02 0-.04 0-.06.03a.09.09 0 0 0-.02.06v.12c0 .04.03.08.07.08.77.13 1.03.46 1.03 2.14v13.11c0 1.96-.3 2-1.08 2.14a.08.08 0 0 0-.07.09v.12l.03.06c.01.02.03.02.06.02a39.4 39.4 0 0 1 3.98 0c.02 0 .04 0 .06-.02a.09.09 0 0 0 .02-.06v-.12a.08.08 0 0 0-.06-.09c-.79-.13-1.08-.18-1.08-2.14v-5.55h1.39c.25 0 .56-.03.94-.1.4.42.87 1.37 1.15 1.94l.05.1.1.21c2.7 5.43 3 5.76 5.42 5.86.28 0 .37 0 .58-.03.04 0 .07-.04.07-.08v-.15a.08.08 0 0 0-.05-.08c-1.33-.5-2.88-3.46-4-5.63zm-.53-6.74c0 1.72-.43 4.02-4.1 4.02h-1.02V73.7a5.22 5.22 0 0 1 1.57-.23c2.15 0 3.55 1.8 3.55 4.56zm-28.39-5.28c.03 0 .05 0 .06.03a.1.1 0 0 1 .02.08 27 27 0 0 0-.53 2.22c0 .04-.04.07-.08.07h-.13a.08.08 0 0 1-.07-.03.09.09 0 0 1-.01-.08c.02-.08.04-.22.04-.34 0-.65-.54-.82-4.56-.82V88.3c0 1.96.29 2.01 1.08 2.15.03 0 .06.04.06.08v.12c0 .03 0 .05-.02.06a.08.08 0 0 1-.06.03 40.53 40.53 0 0 0-3.98 0c-.03 0-.05-.01-.06-.03a.09.09 0 0 1-.03-.06v-.12c0-.04.03-.08.07-.08.78-.14 1.08-.2 1.08-2.15V73.87c-3.51 0-4.58 0-5.24 1.51a.08.08 0 0 1-.07.05H21a.08.08 0 0 1-.06-.03.09.09 0 0 1-.02-.07c.09-.45.2-.88.33-1.33l.3-1.2c.01-.04.04-.07.08-.07 5.12.13 10.83.03 11.92 0z" clip-rule="evenodd"/></svg>
