<?xml version="1.0" encoding="utf-8"?>
<!-- Generator: Adobe Illustrator 26.2.1, SVG Export Plug-In . SVG Version: 6.00 Build 0)  -->
<svg version="1.1" id="Layer_1" xmlns="http://www.w3.org/2000/svg" xmlns:xlink="http://www.w3.org/1999/xlink" x="0px" y="0px"
	 viewBox="0 0 171.1 171.1" style="enable-background:new 0 0 171.1 171.1;" xml:space="preserve">
<g transform="translate(.4 -26.7)">
	<path d="M63.9,124.9h-4.6V64.8h4.6V124.9z"/>
	<path d="M52.4,50.9H57v57.9h-4.6V50.9z"/>
	<path d="M29.1,108.7h-4.6v-44h4.6V108.7z"/>
	<path d="M31.5,64.8h4.6v44h-4.6V64.8z"/>
	<path d="M38.5,64.8h4.6v44h-4.6V64.8z"/>
	<path d="M50,108.7h-4.5v-44h4.6L50,108.7L50,108.7z"/>
	<path d="M70.9,108.7h-4.6v-44h4.6V108.7z"/>
</g>
<path d="M86.9,112.3h6.7c1.1,0,2.2,0.2,3.3,0.6c0.9,0.4,1.8,1,2.4,1.8c0.7,0.8,1.2,1.7,1.5,2.7c0.4,1.1,0.5,2.3,0.5,3.5
	c0,1.2-0.2,2.4-0.5,3.5c-0.3,1-0.8,1.9-1.5,2.7c-0.7,0.8-1.5,1.3-2.5,1.7c-1.1,0.4-2.2,0.6-3.4,0.6h-6.6L86.9,112.3z M93.2,126.7
	c1.4,0.1,2.8-0.5,3.7-1.5c0.9-1.2,1.3-2.7,1.2-4.2c0-0.8-0.1-1.6-0.3-2.4c-0.2-0.7-0.5-1.3-0.9-1.9c-0.4-0.5-0.9-0.9-1.5-1.2
	c-0.7-0.3-1.4-0.4-2.2-0.4H90v11.6H93.2z M102.6,112.3h3v2.8h-3V112.3z M102.6,117.1h2.9v12.3h-2.9V117.1z M110,119.3
	c0.6-1.4,2-2.4,3.6-2.4c0.3,0,0.5,0,0.8,0.1v2.6h-0.1c-0.3-0.1-0.5-0.1-0.8-0.1c-0.9,0-1.7,0.3-2.4,0.9c-0.7,0.7-1,1.7-1,2.7v6.2
	h-2.9v-12.2h2.8V119.3z M120.6,129.7c-0.9,0-1.8-0.2-2.6-0.5c-0.7-0.3-1.4-0.8-2-1.4s-1-1.3-1.2-2.1c-0.3-0.8-0.4-1.6-0.4-2.5
	s0.1-1.8,0.4-2.6c0.3-0.8,0.7-1.5,1.2-2.1s1.2-1.1,1.9-1.4c0.8-0.3,1.6-0.5,2.5-0.5c0.8,0,1.6,0.1,2.4,0.4c0.7,0.3,1.3,0.7,1.8,1.3
	c0.6,0.7,1.1,1.5,1.3,2.4c0.3,1,0.4,2.1,0.4,3.1h-9.2c0.1,0.9,0.4,1.8,1,2.6c0.6,0.7,1.5,1,2.4,1c0.6,0,1.2-0.1,1.7-0.4
	c0.4-0.3,0.8-0.7,1-1.2h2.9c-0.1,0.5-0.4,1.1-0.7,1.5c-0.3,0.5-0.7,0.9-1.2,1.2c-0.5,0.3-1,0.6-1.6,0.8
	C122,129.6,121.3,129.7,120.6,129.7L120.6,129.7z M120.5,118.9c-0.8-0.1-1.6,0.3-2.2,0.9c-0.5,0.7-0.8,1.5-0.9,2.3h6.1
	c0-0.9-0.3-1.7-0.9-2.4C122,119.1,121.3,118.9,120.5,118.9L120.5,118.9z M133.1,129.7c-0.9,0-1.8-0.2-2.6-0.5
	c-0.7-0.3-1.4-0.8-2-1.4s-1-1.3-1.3-2.1c-0.3-0.8-0.4-1.6-0.4-2.5s0.1-1.8,0.4-2.6c0.3-0.8,0.7-1.5,1.2-2.1s1.2-1.1,1.9-1.4
	c0.8-0.3,1.7-0.5,2.6-0.5c0.7,0,1.4,0.1,2.1,0.3c0.6,0.2,1.2,0.5,1.7,0.9c0.5,0.4,0.9,0.8,1.1,1.4c0.3,0.6,0.5,1.2,0.6,1.8h-2.9
	c-0.1-0.6-0.4-1.2-0.9-1.6c-0.5-0.4-1.1-0.6-1.8-0.6c-0.5,0-1,0.1-1.4,0.3s-0.8,0.5-1,0.9c-0.3,0.4-0.5,0.9-0.6,1.4
	c-0.1,0.6-0.2,1.1-0.2,1.7s0.1,1.1,0.2,1.7c0.1,0.5,0.3,0.9,0.6,1.3s0.6,0.7,1,0.9c0.4,0.2,0.9,0.3,1.4,0.3c0.7,0,1.4-0.2,1.9-0.7
	s0.8-1.2,0.8-1.9h2.9c0,0.7-0.2,1.4-0.5,2s-0.7,1.1-1.1,1.5c-0.5,0.4-1.1,0.8-1.7,1C134.5,129.6,133.8,129.8,133.1,129.7z
	 M138.9,117.1h1.9v-3.9h2.9v3.9h2.5v2h-2.6v6.9c0,0.3,0.1,0.6,0.3,0.9c0.3,0.2,0.7,0.3,1,0.2h0.5c0.2,0,0.3,0,0.4-0.1h0.1v2.3
	c-0.2,0-0.5,0.1-0.9,0.1s-0.7,0.1-1.1,0.1c-0.5,0-0.9,0-1.4-0.1c-0.4-0.1-0.8-0.3-1.1-0.5c-0.7-0.6-1-1.4-0.9-2.3v-7.5h-1.9
	L138.9,117.1z"/>
<path d="M99.8,59.2c-0.3,0.8-0.5,1.8-0.8,2.9s-0.5,2.1-0.8,3.1c-0.3,1.1-0.5,2.2-0.8,3.4h-0.2l-0.8-3.4l-0.8-3.1
	c-0.3-1.1-0.5-1.9-0.8-2.7l-4.5-13h-6.7v27.5h4.7V56.9c0-1,0-1.8-0.2-2.7c0-1-0.2-2.1-0.2-3.2c0.2,1,0.5,1.9,0.6,2.9
	c0.2,0.8,0.5,1.6,0.6,2.6c0.3,0.8,0.5,1.6,0.6,2.4L95.1,74h4.2l5.1-15.1c0.3-0.8,0.5-1.6,0.6-2.4c0.2-1,0.5-1.8,0.6-2.6
	c0.3-1,0.5-1.9,0.6-2.9c0,1.1-0.2,2.1-0.2,3.2c0,1-0.2,1.8-0.2,2.7v16.9h4.8V46.2H104L99.8,59.2z"/>
<path d="M114.7,46.2h5.1v27.5h-5.1V46.2z"/>
<path d="M122,50.5h8.7v23.1h5.1V50.5h8.5v-4.3H122V50.5z"/>
<path d="M36.6,113.9c-0.5-0.5-1.1-0.9-1.8-1.2c-0.8-0.3-1.6-0.4-2.5-0.4h-7.4v17.1h3.2V123h4.3c0.8,0,1.6-0.1,2.4-0.4
	c0.7-0.2,1.3-0.6,1.8-1.1s0.9-1,1.1-1.7c0.3-0.7,0.4-1.4,0.4-2.2c0-0.7-0.1-1.4-0.4-2.1C37.4,114.9,37,114.4,36.6,113.9z
	 M34.1,119.6c-0.6,0.5-1.4,0.8-2.2,0.7h-3.8v-5.4H32c0.8-0.1,1.6,0.2,2.2,0.7c0.5,0.5,0.8,1.3,0.8,2
	C34.9,118.3,34.6,119.1,34.1,119.6z"/>
<path d="M46.1,117c-0.3-0.1-0.5-0.1-0.8-0.1c-1.6-0.1-3,0.9-3.5,2.4h-0.1v-2.2h-2.8v12.3h2.9v-6.2c-0.1-1,0.3-2,1-2.7
	c0.6-0.6,1.5-1,2.4-0.9c0.3,0,0.5,0,0.8,0.1h0.1L46.1,117z"/>
<path d="M57.7,120.9c-0.3-0.9-0.7-1.7-1.3-2.4c-0.5-0.5-1.1-1-1.8-1.3c-0.8-0.3-1.6-0.5-2.4-0.4c-0.9,0-1.7,0.2-2.5,0.5
	c-0.7,0.3-1.4,0.8-1.9,1.4c-0.6,0.6-1,1.3-1.2,2.1c-0.3,0.8-0.4,1.7-0.4,2.6c0,0.9,0.1,1.7,0.4,2.5c0.3,0.8,0.7,1.5,1.2,2.1
	c0.6,0.6,1.2,1.1,2,1.4s1.7,0.5,2.6,0.5c0.7,0,1.4-0.1,2.1-0.3c0.6-0.2,1.1-0.4,1.6-0.8c0.5-0.3,0.9-0.7,1.2-1.2
	c0.3-0.5,0.6-1,0.7-1.5h-2.9c-0.2,0.5-0.5,0.9-1,1.2c-0.5,0.3-1.1,0.5-1.7,0.4c-0.9,0.1-1.8-0.3-2.4-1c-0.6-0.7-0.9-1.7-1-2.6h9.2
	C58.2,123,58,121.9,57.7,120.9L57.7,120.9z M49,122.1c0.1-0.8,0.4-1.6,0.9-2.3c1.2-1.2,3.1-1.2,4.3,0l0,0c0.6,0.7,0.9,1.5,0.9,2.4
	H49L49,122.1z"/>
<path d="M67.9,122.9c-0.5-0.3-1-0.5-1.5-0.6c-0.6-0.1-1.1-0.3-1.7-0.4l-1.3-0.3c-0.3-0.1-0.7-0.2-1-0.3c-0.2-0.1-0.5-0.2-0.6-0.4
	c-0.2-0.2-0.2-0.4-0.2-0.7c0-0.4,0.2-0.8,0.5-1.1c0.5-0.3,1-0.5,1.6-0.4c1.4,0,2.2,0.5,2.4,1.6h2.8c-0.1-1-0.7-2-1.5-2.6
	c-1.1-0.7-2.4-1.1-3.7-1c-0.7,0-1.3,0.1-2,0.2c-0.5,0.1-1.1,0.3-1.5,0.7c-0.4,0.3-0.8,0.7-1,1.2s-0.4,1-0.4,1.6
	c0,0.6,0.1,1.2,0.4,1.7c0.2,0.4,0.6,0.8,1,1.1c0.4,0.3,0.9,0.5,1.4,0.6c0.6,0.2,1.1,0.3,1.7,0.4c0.5,0.1,0.9,0.2,1.3,0.3
	c0.3,0.1,0.7,0.2,1,0.3c0.2,0.1,0.4,0.3,0.6,0.5c0.2,0.2,0.2,0.4,0.2,0.7c0,0.5-0.2,0.9-0.6,1.2c-0.5,0.4-1.2,0.5-1.8,0.5
	c-0.7,0-1.4-0.1-2-0.5c-0.5-0.4-0.9-1-1-1.6h-2.8c0.1,1.2,0.7,2.3,1.6,3c1.2,0.8,2.6,1.2,4.1,1.1c0.7,0,1.4-0.1,2.1-0.3
	c0.6-0.1,1.2-0.4,1.7-0.7c0.5-0.3,0.8-0.7,1.1-1.2s0.4-1.1,0.4-1.7s-0.1-1.2-0.4-1.8C68.7,123.5,68.4,123.1,67.9,122.9L67.9,122.9z"
	/>
<path d="M80.3,124c-0.3-0.4-0.6-0.8-1-1.1c-0.5-0.3-1-0.5-1.5-0.6c-0.6-0.1-1.1-0.3-1.7-0.4l-1.3-0.3c-0.3-0.1-0.7-0.2-1-0.3
	c-0.2-0.1-0.5-0.2-0.6-0.4c-0.2-0.2-0.2-0.4-0.2-0.7c0-0.4,0.2-0.8,0.5-1.1c0.5-0.3,1-0.5,1.6-0.4c1.4,0,2.2,0.5,2.4,1.6h2.8
	c-0.1-1-0.7-2-1.5-2.6c-1.1-0.7-2.4-1.1-3.7-1c-0.7,0-1.3,0.1-2,0.2c-0.5,0.1-1.1,0.3-1.5,0.7c-0.4,0.3-0.8,0.7-1,1.2
	s-0.4,1-0.4,1.6c0,0.6,0.1,1.2,0.4,1.7c0.2,0.4,0.6,0.8,1,1.1s0.9,0.5,1.4,0.6c0.6,0.2,1.1,0.3,1.7,0.4c0.5,0.1,0.9,0.2,1.3,0.3
	c0.3,0.1,0.7,0.2,1,0.3c0.2,0.1,0.4,0.3,0.6,0.5c0.2,0.2,0.2,0.4,0.2,0.7c0,0.5-0.2,0.9-0.6,1.2c-0.5,0.4-1.2,0.5-1.8,0.5
	c-0.7,0-1.4-0.1-2-0.5c-0.5-0.4-0.9-1-1-1.6h-2.8c0.1,1.2,0.7,2.3,1.6,3c1.2,0.8,2.6,1.2,4.1,1.1c0.7,0,1.4-0.1,2.1-0.3
	c0.6-0.1,1.2-0.4,1.7-0.7s0.8-0.7,1.1-1.2s0.4-1.1,0.4-1.7C80.7,125.2,80.6,124.6,80.3,124z"/>
</svg>
