<?xml version="1.0" encoding="utf-8"?>
<!-- Generator: Adobe Illustrator 26.2.1, SVG Export Plug-In . SVG Version: 6.00 Build 0)  -->
<svg version="1.1" id="Layer_1" xmlns="http://www.w3.org/2000/svg" xmlns:xlink="http://www.w3.org/1999/xlink" x="0px" y="0px"
	 viewBox="0 0 754.6 755" style="enable-background:new 0 0 754.6 755;" xml:space="preserve">
<style type="text/css">
	.st0{fill:#011E41;}
</style>
<g id="Layer_2_00000008137011742394700410000016778352563003057538_">
</g>
<g id="OUP_Logo">
	<path class="st0" d="M436,233c-0.4,2.2-0.8,4.2-1.3,6.4c13.8-8.8,28.6-21.1,42.4-37.8c-1-5.1-2.3-10.2-4-15.1
		C464.4,204.4,450.5,220.7,436,233z"/>
	<path class="st0" d="M436.8,220.4c11.3-12.4,22.3-28.3,30.7-47.6c-2.4-4.9-5.1-9.5-8.1-13.8c-3.7,20.1-12.7,39.2-23.2,54.7
		C436.5,215.9,436.8,218.1,436.8,220.4z"/>
	<path class="st0" d="M478.8,216.8c-9.3,13.2-29.1,26.5-49.3,36.2c-0.9,1.9-2,3.7-3.1,5.6c14.6-4.6,31-12,48.8-23.9
		c-1.4,7.4-3.5,14.3-6.3,20.5c-20.5,9.1-37.6,13.7-52,15.5c-1.7,1.7-3.5,3.3-5.2,4.9c14,0.1,30.6-1.9,50.8-8.3
		c-4.5,6.9-9.9,12.9-15.7,18.1c-18.4,1.4-33.5,0.3-46.3-2.2c-1.9,1-4,2-6,2.9c11.4,4.6,24.2,7.9,38.7,9.1c-5.4,3.2-11,5.8-16.6,7.8
		c-13.2-3.7-24.7-8.1-34.6-12.9c-2.6,0.5-5.1,0.9-7.8,1.2c8.2,5.6,17.7,10.9,28.6,15.6c-6.2,1.2-12.3,1.9-18.1,1.9
		c-1.3-0.4-3.2-1-4.5-1.5c-7.1-5.3-13.5-10.6-19.2-16c-3.2-0.3-6.4-0.8-9.5-1.5c5,5.9,10.8,11.8,17.3,17.5
		c-6.7-1.2-13.1-3.2-19.2-5.8c-3.8-5.4-7.2-10.6-10-15.7c-2.9-1.3-5.9-2.8-8.7-4.5c2,4.6,4.5,9.5,7.4,14.3
		c-5.9-3.6-11.3-7.9-16.1-12.9c-2.7-5.1-4.7-9.7-6.3-14c-12.1-13.3-19.2-31.4-18.1-51.1c2.2-36.3,32.6-65.1,69-65.3
		c31.3-0.2,57.8,20.4,66.7,48.7c6.8-14.9,12.3-33.4,14-56.8c-3.6-3.7-7.4-7.2-11.5-10.5c2.9,21.6,1,40.1-3.7,55.7
		c-2.2-4.4-4.7-8.6-7.6-12.7c0.9-14.7-0.1-32.5-5.6-54c-4.6-2.4-9.3-4.5-14.2-6.3c8.7,16.3,13.2,35.6,14.5,53.5
		c-3.3-3.7-6.8-7.3-10.8-10.5c-4.1-14-11.1-29.7-22.4-47.9c-4.5-0.5-9.3-1.2-14.3-1.3c12.2,13.1,21.3,27.9,27.8,42.5
		c-5-3.3-10.2-6.1-15.7-8.6c-7.6-10.8-17.4-22-30.1-33.2c-4.9,0.5-9.6,1.4-14.2,2.7c11.4,6.8,21.9,15.7,31,25.6
		c-5.9-1.7-11.8-2.8-17.9-3.3c-8.3-6.1-17.7-11.9-28-17.2c-4.7,1.9-9.3,4.2-13.7,6.8c9.1,0.9,18.1,4.7,27.4,10.1
		c-5.5,0.3-10.9,1-16.1,2.3c-6.7-2.2-13.8-4.1-21.8-5.4c-4.2,3.2-8.3,6.7-12,10.5c5.2-0.8,11.3-1,18.1-0.4
		c-11.4,4.2-22.4,10-31.8,17c-12,17.8-18.9,39.2-18.9,62.2c0,61.8,50.1,111.9,111.6,111.9c61.2,0,111.6-49.7,111.6-111.9
		C478.9,220.4,478.9,218.6,478.8,216.8z"/>
	<g>
		<g>
			<polygon class="st0" points="247.7,413.1 231.7,413.1 205.7,449.4 179.8,413.1 163.7,413.1 195.7,456.2 163.4,499.7 179.4,499.7 
				205.7,462.7 231.9,499.7 248.1,499.7 215.8,456.2 			"/>
			<path class="st0" d="M573.9,469c10.5-4.5,17.5-13.4,17.5-26.6c0-18.8-13.3-29.3-35.1-29.3h-37.9v86.7h14.3v-27.4h26
				c8.2,7.7,15.1,17.3,20.1,27.4h17.5C590.9,489,581.6,476.4,573.9,469z M532.7,425.9h23.2c12.7,0,20.7,5.8,20.7,17.2
				c0,11.5-7.9,16.9-20,16.9h-24.1v-34.1H532.7z"/>
			<path class="st0" d="M671.8,413.1h-32.4v86.7h32.4c28,0,46.1-17.5,46.1-43.4S699.9,413.1,671.8,413.1z M670.8,487.1h-17v-61.2h17
				c18.6,0,32.5,11,32.5,30.6C703.3,476.1,689.4,487.1,670.8,487.1z"/>
			<path class="st0" d="M83,411c-25.1,0-46.3,20.4-46.3,45.3s21.4,45.3,46.3,45.3s46.3-20.4,46.3-45.3S108.1,411,83,411z M83,488.6
				c-17.8,0-32.8-14.5-32.8-32.3c0-17.8,15-32.3,32.8-32.3c17.8,0,32.8,14.5,32.8,32.3S100.8,488.6,83,488.6z"/>
			<path class="st0" d="M430,411c-25.1,0-46.3,20.4-46.3,45.3s21.3,45.3,46.3,45.3c25.1,0,46.3-20.4,46.3-45.3S455.1,411,430,411z
				 M430,488.6c-17.8,0-32.8-14.5-32.8-32.3c0-17.8,15-32.3,32.8-32.3s32.8,14.5,32.8,32.3S447.8,488.6,430,488.6z"/>
			<path class="st0" d="M286.5,499.7h14.3v-31.1h41.7c2.6-3.8,4.5-7.8,6.1-12.4h-47.9v-30.5h53v-12.7h-67.2L286.5,499.7L286.5,499.7
				z"/>
		</g>
		<g>
			<path class="st0" d="M573.9,548.8c0-7.9-5.6-12.3-15-12.3h-16.1v36.6h6.1v-11.5h10.9c3.5,3.2,6.3,7.3,8.4,11.5h7.4
				c-2.2-4.5-6.1-9.7-9.3-12.9C571.1,558.2,573.9,554.4,573.9,548.8z M558.7,556.2h-9.7v-14.5h9.7c5.4,0,9,2.3,9,7.2
				C567.6,554.1,564.2,556.2,558.7,556.2z"/>
			<path class="st0" d="M71.8,557.6c0,5.9-3.2,10.5-10,10.5s-10.1-4.6-10.1-10.5v-21.1h-6.1v21.1c0,9.5,6.1,16.4,16.1,16.4
				c10.2,0,16-6.8,16-16.4v-21.1h-6.1L71.8,557.6L71.8,557.6z"/>
			<path class="st0" d="M643.5,545.6c0-2.6,2.3-4.4,7-4.4c2.8,0,6.5,0.9,10.5,3.3l3.2-5c-3.5-2.3-8.5-3.8-13.6-3.8
				c-7.9,0-13.7,3.6-13.7,10.4c0,13.7,21.8,9,21.8,17.3c0,2.8-2.9,5.1-7.2,5.1c-3.8,0-8.6-1.4-12.3-4.9l-3.3,4.7
				c3.7,3.5,10,5.6,15.5,5.6c7.8,0,14.1-4.5,14.1-11C665.6,549.8,643.5,553.8,643.5,545.6z"/>
			<path class="st0" d="M321.2,545.6c0-2.6,2.3-4.4,7-4.4c2.8,0,6.5,0.9,10.5,3.3l3.2-5c-3.5-2.3-8.5-3.8-13.6-3.8
				c-7.9,0-13.7,3.6-13.7,10.4c0,13.7,21.8,9,21.8,17.3c0,2.8-2.9,5.1-7.2,5.1c-3.8,0-8.6-1.4-12.3-4.9l-3.3,4.7
				c3.7,3.5,10,5.6,15.5,5.6c7.8,0,14.1-4.5,14.1-11C343.3,549.8,321.2,553.8,321.2,545.6z"/>
			<path class="st0" d="M687.2,545.6c0-2.6,2.3-4.4,7-4.4c2.8,0,6.5,0.9,10.5,3.3l3.2-5c-3.5-2.3-8.4-3.8-13.6-3.8
				c-7.9,0-13.7,3.6-13.7,10.4c0,13.7,21.8,9,21.8,17.3c0,2.8-2.9,5.1-7.2,5.1c-3.8,0-8.6-1.4-12.3-4.9l-3.3,4.7
				c3.7,3.5,10,5.6,15.5,5.6c7.8,0,14.1-4.5,14.1-11C709.2,549.8,687.2,553.8,687.2,545.6z"/>
			<polygon class="st0" points="121.6,562.7 99.5,536.5 94.4,536.5 94.4,573.1 100.4,573.1 100.4,546.3 122.6,573.1 127.7,573.1 
				127.7,536.5 121.6,536.5 			"/>
			<rect x="146.9" y="536.5" class="st0" width="6.1" height="36.6"/>
			<rect x="361.1" y="536.5" class="st0" width="6.1" height="36.6"/>
			<polygon class="st0" points="383,541.9 395.4,541.9 395.4,573.1 401.6,573.1 401.6,541.9 414,541.9 414,536.5 383,536.5 			"/>
			<path class="st0" d="M298,548.8c0-7.9-5.6-12.3-15-12.3h-16.1v36.6h6.1v-11.5h10.9c3.5,3.2,6.3,7.3,8.5,11.5h7.6
				c-2.2-4.5-6.1-9.7-9.3-12.9C295.2,558.2,298,554.4,298,548.8z M282.9,556.2h-9.7v-14.5h9.7c5.4,0,9,2.3,9,7.2
				C291.8,554.1,288.4,556.2,282.9,556.2z"/>
			<path class="st0" d="M443.8,553.5c-2.8-4-6.8-10.8-10-17h-7c4.7,9.1,10.2,17.8,14.1,23.3v13.4h6.1v-13.4
				c3.8-5.5,9.2-14.1,14.1-23.3h-7.2C450.6,542.6,446.5,549.5,443.8,553.5z"/>
			<path class="st0" d="M187.2,566.2c-5.1-10.5-8.1-17.8-11.8-29.8h-6.7c4.6,14.9,9.3,26.2,15.1,36.6h6.4
				c5.6-10.4,10.5-21.8,15.1-36.6h-6.3C195.4,548.5,192.5,555.7,187.2,566.2z"/>
			<path class="st0" d="M221.2,573.1h28.2v-5.4h-22v-10.4h17.3c1-1.7,1.9-3.3,2.6-5.1h-19.8v-10.4h22v-5.4h-28.2V573.1L221.2,573.1z
				"/>
			<path class="st0" d="M592.2,573.1h28v-5.4h-22v-10.4h17.3c1-1.7,1.9-3.3,2.6-5.1h-19.8v-10.4h22v-5.4h-28V573.1z"/>
			<path class="st0" d="M510.9,536.5h-16.1v36.6h6.1v-31.2h9.7c5.4,0,9,2.4,9,7.3c0,5.2-3.5,7.4-9,7.4h-5.5l-2.3,5.2h7.8
				c9.1,0,15.4-4.5,15.4-12.9C525.9,540.8,520.2,536.5,510.9,536.5z"/>
		</g>
	</g>
</g>
</svg>
