<?xml version="1.0" encoding="utf-8"?>
<!-- Generator: Adobe Illustrator 26.2.1, SVG Export Plug-In . SVG Version: 6.00 Build 0)  -->
<svg version="1.1" id="Layer_1" xmlns="http://www.w3.org/2000/svg" xmlns:xlink="http://www.w3.org/1999/xlink" x="0px" y="0px"
	 viewBox="0 0 113.1 110.3" style="enable-background:new 0 0 113.1 110.3;" xml:space="preserve">
<style type="text/css">
	.st0{fill:#00285A;}
	.st1{fill-rule:evenodd;clip-rule:evenodd;fill:#EE7D11;}
</style>
<path id="Shape" class="st0" d="M71.9,48.5H41.1v-1.9h2.5c0.5-6.2,6.4-8.4,9.5-13.4h-3.7c-1.7,0.6-4.6,4.8-4.6,7h-4.8v-1.9l-1.6,1.3
	l-4.1-4.8c0,0-0.2-0.3-0.2-0.5c0-0.2,0-0.3,0-0.3l6.5-8.9l1.1-3.5l1.9-0.6l1.9-2.5L45,14c1.7-0.6,3.5,0,4.3,0.8c0-1.3,0-2.7,0-2.7
	c3.2-0.3,4.3,1.4,4.8,3.3c0.8,0,1.6,0.2,2.4,0.3c0-0.6,0.3-1,0.8-1c0.6,0,1,0.5,1,1v0.3c1.4,0.5,2.7,1.1,3.8,1.9
	c0.2-0.3,0.5-0.3,0.8-0.3c0.6,0,1,0.5,1,1c0,0.3,0,0.5-0.2,0.6c1.1,1,2.1,2.1,2.9,3.2c0.2,0,0.3-0.2,0.5-0.2c0.6,0,1.1,0.5,1.1,1
	c0,0.3-0.2,0.8-0.5,0.8c0.6,1.1,1.1,2.5,1.6,3.8c0,0,0.2,0,0.3,0c0.6,0,1,0.5,1,1c0,0.5-0.3,1-0.8,1c0.3,1.4,0.5,2.7,0.6,4.1
	c0.6,0,1.1,0.5,1.1,1c0,0.6-0.5,1-1,1.1c0,1.4,0,2.9-0.2,4.3c0.5,0,1,0.5,1,1.1s-0.5,1-1.1,1l0,0c-0.3,1.4-0.5,2.9-0.8,4.5h2.7v1.7
	H71.9z M67.1,46.8c3.8-15.6-0.6-28-12.7-29.4c0,0.6,0,1.1,0,1.7c0,0.8,0,1.4,0,1.4l-1.9-0.3c0-0.6,0.2-5.1-1.4-6c0,0,0,2.4-0.5,4.8
	l-1.7-0.5c0-1.6-0.8-2.2-1.7-2.7l0.5,3.2l-1.1,1.6L47,22l-3.3,1.1l-1,2.9l-6,8.4l2.2,2.7l2.5-2.2l0.6,0.3v3.2h1.4
	c0.6-2.2,2.5-4.9,4.3-6.2L46.6,31l1.4-1.3l1.4,1.7h4.9c0.8-1.6,1.1-3.5,1.1-5.7h1.9c0,7.5-3.7,10.3-8.4,14.9c-1.7,1.7-3.2,3.5-3.3,6
	H67.1z M40,32.3c0,0.8,0,2.2-0.5,2.9l-1.4-0.5c0.5-0.6,0.8-1.6,0.8-2.4H40z M47.4,25l-2.9,1.6l-0.3-2.4l3-0.3L47.4,25z"/>
<polygon id="Path" class="st1" points="71.9,58.2 41.1,58.2 41.1,54.4 71.9,54.4 "/>
<path id="Shape_00000118382252911909565640000012841037982806268560_" class="st0" d="M21,83.8c-1.6,0-2.8-0.4-4-0.9
	c-0.2-1.1-0.3-2.5-0.4-4l0.9-0.2c0.5,2,1.3,4,3.7,4c1.7,0,2.8-1.1,2.8-2.7c0-4.2-7-3.3-7-8.2c0-2.2,1.8-4.2,5-4.2
	c1.1,0,2.2,0.3,3.4,0.7c0.1,0.9,0.2,1.8,0.2,3.6h-0.9c-0.4-1.4-1.1-3.2-3.2-3.2c-1.6,0-2.3,1.1-2.3,2.3c0,3.9,7.1,3.1,7.1,8.2
	C26.4,81.8,24.2,83.8,21,83.8z M32.7,83.7c-0.7,0-1.2-0.2-1.5-0.3v3.9c0,1.4,0.2,1.5,2.1,1.7v0.8h-5.8V89c1.5-0.2,1.6-0.3,1.6-1.7
	v-11c0-1.4,0-1.5-1.4-1.6V74c1.2-0.2,2.4-0.6,3.6-1v1.5l2.2-1.2c0.3-0.2,0.6-0.2,0.9-0.2c2.5,0,4,2.2,4,4.4
	C38.2,81,35.8,83.3,32.7,83.7z M33.2,74.7c-0.7,0-1.5,0.5-2.1,0.8v6c0.5,0.5,1.2,0.9,2.1,0.9c1.2,0,2.8-0.9,2.8-4
	C36,75.8,34.8,74.7,33.2,74.7z M46,75.7c-0.2-0.3-0.6-0.4-1-0.4c-0.5,0-1.2,0.6-1.6,1.9V81c0,1.4,0.2,1.5,1.9,1.6v0.9h-5.6v-0.8
	c1.4-0.1,1.6-0.2,1.6-1.6v-4.6c0-1.4-0.1-1.4-1.4-1.6v-0.7c1.2-0.2,2.4-0.5,3.5-0.9v2.5l0,0c0.7-1.4,1.8-2.4,2.7-2.4
	c0.8,0,1.4,0.6,1.4,1.3C47.5,75.4,46.6,76.2,46,75.7z M53.9,83.5h-5.3v-0.8c1.4-0.1,1.6-0.2,1.6-1.7v-4.5c0-1.6-0.1-1.6-1.5-1.8V74
	c1.3-0.2,2.5-0.5,3.6-0.9v7.8c0,1.5,0.1,1.6,1.6,1.7V83.5z M51.2,71c-0.8,0-1.4-0.6-1.4-1.4s0.6-1.4,1.4-1.4s1.4,0.6,1.4,1.4
	C52.6,70.3,52,71,51.2,71z M66.4,83.5h-4.8v-0.8c1.2-0.1,1.3-0.2,1.3-1.6v-4c0-1.5-0.7-2.4-1.9-2.4c-0.8,0-1.7,0.6-2.3,1.1v5.3
	c0,1.3,0.1,1.4,1.3,1.6v0.8h-5v-0.8c1.4-0.1,1.6-0.2,1.6-1.6v-4.7c0-1.4-0.1-1.5-1.3-1.6v-0.7c1.2-0.2,2.4-0.5,3.4-0.9v1.6
	c0.5-0.5,2.1-1.6,3.3-1.6c1.8,0,3,1.3,3,3.2v4.8c0,1.3,0.2,1.4,1.4,1.6V83.5L66.4,83.5z M78.1,73.7c-0.2,0.4-0.6,1.1-1,1.3l-1.2-0.1
	c0.3,0.5,0.6,1.4,0.6,2.1c0,2.5-2.3,3.9-4.3,3.9c-0.1,0-0.5,0-0.7,0c-0.5,0.2-0.9,0.7-0.9,1.1s0.4,0.8,1.4,0.8h2.5
	c1.4,0,3.4,0.7,3.4,3c0,2.6-2.8,4.8-6,4.8c-2.8,0-4.3-1.7-4.3-3.1c0-0.9,0.5-1.6,2.4-3.1c-0.7-0.2-1.9-0.9-1.8-2.3
	c0.9-0.4,1.8-1.1,2.2-1.6c-1.1-0.4-2.1-1.7-2.1-3.2c0-2.7,2.4-4.1,4.4-4.1c0.9,0,1.7,0.2,2.4,0.6c1.1,0,2.1-0.2,3.1-0.3L78.1,73.7z
	 M74.9,84.7c-0.6-0.2-1.4-0.2-2.6-0.2c-1.8,0-2.5,1.3-2.5,2.3c0,1.4,1.2,2.5,3.1,2.5c2.1,0,3.2-1.4,3.2-2.7
	C76,85.7,75.5,85,74.9,84.7z M72.3,74.2c-0.9,0-1.8,0.9-1.8,2.6c0,1.7,0.9,3,2.1,3c0.9,0,1.8-0.8,1.8-2.7
	C74.3,75.5,73.5,74.2,72.3,74.2z M86.8,77.8c-0.4,0-3.2,0.2-5.8,0.3c0.1,2.7,1.7,3.9,3.3,3.9c0.9,0,1.6-0.2,2.4-1.1l0.5,0.7
	c-1.4,1.7-3,2.1-3.7,2.1c-2.9,0-4.6-2.2-4.6-4.8c0-3.2,2.4-5.7,4.8-5.7c2,0,3.6,1.7,3.6,3.7C87.3,77.4,87.2,77.7,86.8,77.8z
	 M83.3,74.2c-0.9,0-1.9,1-2.2,2.8l3.5-0.1c0.5,0,0.5-0.1,0.5-0.5C85.2,75.3,84.4,74.2,83.3,74.2z M95.1,75.7c-0.3-0.3-0.7-0.4-1-0.4
	c-0.5,0-1.2,0.6-1.7,1.9V81c0,1.4,0.2,1.5,1.9,1.6v0.9h-5.6v-0.8c1.4-0.1,1.6-0.2,1.6-1.6v-4.6c0-1.4-0.1-1.4-1.4-1.6v-0.7
	c1.3-0.2,2.5-0.5,3.5-0.9v2.5l0,0c0.7-1.4,1.7-2.4,2.7-2.4c0.8,0,1.4,0.6,1.4,1.3C96.6,75.4,95.5,76.2,95.1,75.7z"/>
</svg>
