<svg enable-background="new 0 0 160 70" viewBox="0 0 160 70" xmlns="http://www.w3.org/2000/svg"><g fill="#154881"><path d="m35.9 7.3c.3.1.6.2.8.2.5 0 .6-.1 1.6-.9.1-.1.3-.2.4-.2.7 0 1 .6 1 2 .1 1.2.2 1.5 1.3 8.3.1.8.2 1.5.2 1.8 0 .7-.4 1.2-.8 1.2-.6 0-.8-.3-1.3-1.9-1.9-5.9-8.7-10.2-16-10.2-6.1 0-10.5 3.9-10.5 9.3 0 2.4.8 4.5 2.4 6.3 2.3 2.5 2.8 2.8 12.9 6.1s15 8.7 15 16.2c0 10.2-8.2 17.5-19.7 17.5-4.6 0-10.8-1.5-12.9-3.1-.8-.7-.9-.8-1.5-3.8 0-.2-.4-1.6-1-3.7-.7-2.2-1.1-4.5-1.1-5.3 0-.7.4-1.2.9-1.2.4 0 .6.3.8.8 1.3 3.8 2.8 6.3 5 8.5 2.9 2.9 7.6 4.7 12.1 4.7 7.4 0 13.4-5.1 13.4-11.4 0-3.1-1.5-6-4.1-8.1-1.5-1.1-2.9-1.8-10.2-4.1-7-2.4-10-4-12.8-6.9-2.5-2.6-3.8-5.8-3.8-9.7 0-8.7 7.3-14.9 17.9-14.9 3.8 0 4.7.3 10 2.5z"/><path d="m60.5 29.5c-10.2-3.4-10.7-3.6-12.9-6.1-1.6-1.8-2.4-3.9-2.4-6.3 0-5.5 4.4-9.3 10.5-9.3 7.3 0 14 4.3 16 10.2.5 1.6.8 1.9 1.3 1.9.4 0 .8-.5.8-1.2 0-.3-.1-.9-.2-1.8-1.1-6.8-1.2-7.1-1.3-8.3 0-1.4-.3-2-1-2-.2 0-.3.1-.4.2-1 .8-1.1.9-1.6.9-.2 0-.4-.1-.8-.2-5.2-2.3-6.2-2.5-9.9-2.5-7.6 0-13.5 3.1-16.2 8.1l.6 4.1c.1.6.1 1 .1 1.2 0 1.6-1 2.8-2.3 3.1.3 3.1 1.6 5.8 3.8 8 2.8 2.9 5.8 4.5 12.8 6.9 7.2 2.4 8.7 3 10.2 4.1 2.6 2 4.1 5 4.1 8.1 0 6.3-6 11.4-13.4 11.4-4.5 0-9.2-1.8-12.1-4.7-.9-.9-1.7-1.9-2.4-3-.6 1.4-1.3 2.8-2.1 4 .6 2.8.7 3 1.5 3.6 2.1 1.6 8.3 3.1 12.9 3.1 11.4 0 19.7-7.3 19.7-17.5-.2-7.3-5.2-12.6-15.3-16z"/><path d="m154.8 6.8c-.5 0-1.1.1-2 .2-1 .2-2 .3-3.7.3-2.4 0-6.4-.2-7.9-.3l-1.8-.1c-.8 0-1.2.3-1.2.8 0 .6.3.9 1.2 1.1 7.8 1.1 8.5 2.9 8.3 22v19.6c0 1.3-.1 1.6-.5 1.5-.2 0-.5-.3-1.1-1l-37.6-42.8c-.8-.9-1.3-1.2-2.2-1.2-.3 0-.8 0-1.4.1h-.7c-.2 0-2 0-3.2-.1.5.3 1 .7 1.5 1 3.6 2.7 5.8 7.3 5.8 12.3 0 .8-.1 1.6-.2 2.3v1.8 24.2l1 1.5c.9 1.3 1.6 2.4 2.3 3.4 0-.5 0-1 0-1.5v-27.8c0-1.4.2-1.8.8-1.8.4 0 .5.1 1 .6l34.5 39.6c1.3 1.5 1.3 1.5 1.9 1.5 1 0 1.3-.6 1.3-2.4v-.8c.1-2.4.1-6.1.1-11.3v-26.6l.1-2.6c-.1-9.9.3-10.9 4.1-11.9.6-.1.8-.3.8-.7 0-.5-.5-.9-1.2-.9z"/><path d="m119.8 61.2c-4.3.1-7.2-2.3-12.3-10.1l-11.4-16.6c6.6-3.4 10.2-8.2 10.2-14.3 0-4.4-1.8-8.3-5-10.7s-7.3-3.4-13.7-3.4c-1.9 0-4 .1-6.1.2-4.5.3-4.5.3-6.6.3-.3 0-.5 0-.8 0 .2.5.3 1.1.3 1.9.1.8.1 1.2.7 4.5l.7 4.4c.1.6.1 1 .1 1.2 0 .9-.3 1.7-.9 2.3v.7 15c1.8 2.6 2.7 5.6 2.7 9 0 3.9-1.1 7.4-3 10.3-.5 3.6-1.8 4.5-5.1 5.5-.8.2-1 .3-1 .8 0 .6.3.8 1.1.8.3 0 1.3-.1 2.1-.2 1.4-.2 3.5-.3 5.5-.3 3.9 0 8.2.1 9.2.3 1.1.1 2 .2 2.5.2.7 0 1.3-.3 1.3-.8s-.5-.8-1.5-.9c-5.8-.6-7.7-2.7-7.5-8.4v-2.2-12.6c.1-1.4.3-1.6 2.4-1.5h4.5c1.8 0 2.3.3 3.2 1.7.3.5.5.8.5.9l10.1 15.5c4.1 6.3 7.7 8.7 12.7 8.7 3 0 5.8-.8 5.8-1.6 0-.3-.3-.6-.7-.6zm-31.1-27.7h-4.6c-2.7-.1-2.9-.3-2.9-2.9v-16.6c0-2.8 0-3.1.5-3.8.6-.8 1.8-1.3 3.7-1.3 3.8 0 7.9 1.3 10.2 3.4 2.9 2.4 4.6 6.4 4.6 10.2 0 6.8-4.3 11-11.5 11z"/></g></svg>