<?xml version="1.0" encoding="utf-8"?>
<!-- Generator: Adobe Illustrator 26.2.1, SVG Export Plug-In . SVG Version: 6.00 Build 0)  -->
<svg version="1.1" id="图层_1" xmlns="http://www.w3.org/2000/svg" xmlns:xlink="http://www.w3.org/1999/xlink" x="0px" y="0px"
	 viewBox="0 0 155 155.1" style="enable-background:new 0 0 155 155.1;" xml:space="preserve">
<style type="text/css">
	.st0{fill:#3F3F3F;}
	.st1{fill:url(#SVGID_1_);}
	.st2{fill:#FFFFFF;}
	.st3{fill:url(#SVGID_00000182488028353021549470000000383160322077431948_);}
	.st4{fill:url(#SVGID_00000158718556827036590560000004422124452278291898_);}
	.st5{fill:url(#SVGID_00000001626823763753209820000017871884291454203534_);}
	.st6{fill:url(#SVGID_00000112592469920635477700000001036947737484984966_);}
</style>
<g>
	<g>
		<g>
			<g>
				<g>
					<path class="st0" d="M102.3,67.6c0.6,1,1,1.9,1.1,2.6l0.1,0.4l0.3-0.2c0.8-0.5,1.2-1.2,1.2-1.9c0-0.6-0.3-1.3-0.9-1.9
						s-1.5-1.2-2.8-1.7l-0.1-0.1l-0.7,0.6l0.2,0.2C101.1,65.9,101.7,66.6,102.3,67.6z"/>
					<path class="st0" d="M107.4,80.7c-0.6-0.1-1.2-0.4-1.7-0.7c1.8-0.7,3.3-1.6,4.2-2.6c0.9-0.9,1.5-2.1,1.9-3.5
						c0.9,0.8,1.8,1.8,2.6,2.9c1,1.2,1.7,2.2,2.1,3.1l0.3,0.6l0.2-0.6c0.2-0.8,0.4-1.4,0.4-1.9c0-0.9-0.4-1.7-1.2-2.5
						c-0.8-0.8-2.1-1.7-4-2.7c0.1-0.6,0.2-1.3,0.3-2h5.4c0.2,0,0.5-0.1,0.6-0.2c0.2-0.2,0.2-0.4,0.2-0.6c0-0.2-0.1-0.4-0.3-0.6
						c-0.2-0.1-0.4-0.2-0.6-0.2s-0.4,0.1-0.6,0.2s-0.3,0.2-0.5,0.2c-0.1,0.1-0.3,0.1-0.6,0.1h-3.6c0-0.6,0.1-1.6,0.1-2.8l0.1-1.5
						c0-0.6-0.4-1-1-1c-0.2,0-0.4,0-0.6,0.1c-0.3,0.1-0.4,0.1-0.4,0.2l-0.1,0.1v1.1c0,1.7-0.1,3-0.1,3.9h-4.6
						c-0.1,0-0.3,0.1-0.4,0.2c-0.1,0.1-0.2,0.3-0.2,0.4s0,0.2,0.2,0.4c0.1,0.1,0.2,0.2,0.4,0.2h4.5c-0.1,1.3-0.3,2.5-0.6,3.4
						c-0.3,1-0.8,1.9-1.5,2.8c-0.7,0.8-1.6,1.6-2.8,2.3l-0.2,0.1l0.1,0.2c-0.2-0.1-0.4-0.3-0.5-0.5l-0.1-0.1V72
						c0-0.5-0.3-0.8-0.9-0.8c-0.2,0-0.4,0-0.6,0.1c-0.2,0-0.3,0.1-0.3,0.1l-0.5-0.2v0.4h-2.2c-0.1,0-0.3,0.1-0.4,0.2
						c-0.1,0.1-0.2,0.3-0.2,0.4s0.1,0.3,0.2,0.4s0.2,0.1,0.4,0.1h2.2v6.7c-0.4,0.3-0.9,0.6-1.5,1c-0.2,0.1-0.6,0.5-1.3,1l-0.1,0.1
						v0.2c0,0.1,0.1,0.2,0.1,0.4c0.1,0.2,0.2,0.5,0.4,0.7c0.2,0.3,0.5,0.4,0.7,0.4c0.3,0,0.6-0.2,0.9-0.6l0.7-0.9
						c0.6-0.7,1-1.3,1.2-1.7c0.1-0.1,0.2-0.2,0.2-0.2s0.1,0,0.1,0.2c0.6,0.8,1.3,1.5,1.9,1.9c0.7,0.5,1.5,0.8,2.4,1
						c0.9,0.2,2,0.3,3.3,0.3h5.7c0.3,0,0.4-0.1,0.6-0.2c0.1-0.1,0.2-0.3,0.3-0.5c0.1-0.2,0.1-0.3,0.2-0.5c0.1-0.1,0.2-0.3,0.4-0.4
						l0.7-0.4H112C110.1,81.1,108.5,80.9,107.4,80.7z"/>
				</g>
				<g>
					<path class="st0" d="M139.2,69.5L139.2,69.5c-0.2-0.1-0.4-0.2-0.6-0.2h-0.1c-0.2,0-0.3,0.1-0.5,0.2c0,0-0.1,0.1-0.2,0.1
						c-0.1,0.1-0.2,0.1-0.3,0.2c-0.1,0.1-0.4,0.1-0.6,0.1h-3.8c0.4-0.3,0.7-0.6,1.1-1c0.3-0.2,0.4-0.4,0.4-0.7
						c0-0.2-0.1-0.4-0.5-0.6l0,0h3.2c0.2,0,0.4-0.1,0.6-0.2c0.2-0.2,0.3-0.4,0.3-0.6c0-0.2-0.1-0.4-0.3-0.6
						c-0.2-0.1-0.4-0.2-0.6-0.2s-0.4,0.1-0.6,0.2s-0.3,0.2-0.5,0.2c-0.1,0.1-0.3,0.1-0.6,0.1h-4.3c0.1-0.2,0.1-0.3,0.1-0.5
						c0-0.8-0.8-1.3-2.5-1.7h-0.1l-0.5,0.5l0.2,0.2c0.5,0.5,0.9,1,1.2,1.6h-6.6c-0.1,0-0.3,0.1-0.4,0.2c-0.1,0.1-0.2,0.3-0.2,0.4
						s0.1,0.3,0.2,0.4s0.2,0.1,0.4,0.1h2.8l-0.3,0.2l0.2,0.2c0.6,0.6,1.1,1.2,1.4,1.9h-5.5c-0.1,0-0.3,0-0.4,0.1s-0.2,0.2-0.2,0.4
						c0,0.2,0.1,0.3,0.2,0.4c0.1,0.1,0.2,0.1,0.4,0.1h17.1c0.2,0,0.5-0.1,0.6-0.2c0.2-0.2,0.2-0.4,0.2-0.6
						C139.4,69.8,139.4,69.6,139.2,69.5z M126.8,67.5h5.7c-0.3,0.9-0.6,1.6-0.9,2.3h-3.1c0.2-0.2,0.3-0.5,0.3-0.8
						C128.7,68.4,128.1,67.9,126.8,67.5z"/>
					<path class="st0" d="M123.8,78h-0.7v0.2c-0.2,1.5-0.9,2.8-2.2,3.9l-0.3,0.3l0.4,0.1c0.3,0.1,0.6,0.2,0.9,0.2
						c0.7,0,1.2-0.2,1.7-0.7c0.4-0.5,0.7-1.1,0.7-1.9c0-0.6-0.1-1.2-0.4-1.9L123.8,78z"/>
					<path class="st0" d="M138.3,79.5L138.3,79.5c-0.5-0.5-1.4-1-2.5-1.5c0.3-0.1,0.4-0.4,0.4-0.6v-5.5c0-0.2-0.1-0.8-0.9-0.8
						c-0.2,0-0.4,0-0.6,0.1c-0.2,0-0.3,0.1-0.3,0.1l-0.2,0.1v0.4h-8.1c-0.1-0.3-0.3-0.6-0.9-0.6c-0.2,0-0.4,0-0.6,0.1
						c-0.2,0-0.3,0.1-0.3,0.1l-0.2,0.1v6.6l0.2,0.1c0.1,0,0.2,0,0.4,0.1c0.2,0,0.4,0.1,0.6,0.1c0.8,0,0.9-0.4,0.9-0.7l0,0h2.8
						l-0.4,0.3l0.2,0.2c0.4,0.3,0.9,0.9,1.3,1.5c0.4,0.7,0.7,1.3,0.8,1.8v0.2h-2.6c-0.2,0-0.4-0.1-0.6-0.2c-0.1-0.1-0.2-0.3-0.2-0.6
						v-2c0-0.2-0.1-0.8-0.9-0.8c-0.2,0-0.4,0-0.6,0.1s-0.3,0.1-0.4,0.1l-0.2,0.1v2.5c0,0.7,0.3,1.4,0.8,1.9s1.1,0.8,1.8,0.8h6.8
						c0.3,0,0.6-0.1,0.8-0.3c0.2-0.2,0.3-0.4,0.3-0.7s-0.1-0.5-0.4-0.8c-0.1,0-0.2-0.1-0.3-0.3c-0.1-0.1-0.2-0.2-0.3-0.5l0,0
						c-0.1-0.2-0.2-0.5-0.2-1v-0.2h-0.4V80c0,0.8-0.1,1.1-0.2,1.3c-0.1,0.2-0.4,0.3-0.7,0.3h-2.2l0,0c0.7-0.5,1.1-1.1,1.1-1.7
						c0-1-0.9-1.7-2.8-2.2h4.7v0.5l0.2,0.1c0.1,0,0.2,0,0.4,0.1c0.2,0,0.3,0.1,0.5,0.1l-0.2,0.2l0.2,0.2c0.5,0.5,1,1.2,1.5,2
						c0.5,0.8,0.8,1.5,0.9,2.1v0.3l0.3-0.1c0.4-0.2,0.7-0.4,0.9-0.6c0.3-0.3,0.4-0.6,0.4-1C139.2,80.6,138.9,80,138.3,79.5z
						 M134.1,72.7V74H126v-1.3H134.1z M134.1,75.1v1.2H126v-1.2H134.1z"/>
				</g>
				<g>
					<path class="st0" d="M61.6,68.5c0,0.1,0,0.2,0.1,0.3c0.1,0.4,0.3,1.6,1.5,1.3c0,0,0.5,0,1.2-0.8c0.2-0.3,0.3-0.6,0.2-1
						c-0.1-0.3-0.4-0.8-0.9-1.3c0,0-0.8-0.9-2.4-1c-0.1,0-0.2,0-0.2,0.1L61,66.2c-0.1,0.1-0.1,0.2-0.1,0.3
						C61,66.9,61.4,67.7,61.6,68.5z"/>
					<path class="st0" d="M60.6,73.8c0,0.1,0,0.2,0.1,0.3c0.1,0.4,0.3,1.6,1.5,1.3c0,0,0.5,0,1.2-0.8c0.2-0.3,0.3-0.6,0.2-1
						c-0.1-0.3-0.4-0.8-0.9-1.3c0,0-1.2-1.4-2.8-1.5c-0.1,0-0.2,0-0.2,0.1L59.6,71c-0.1,0.1-0.1,0.2-0.1,0.3
						C59.6,71.7,60.4,72.9,60.6,73.8z"/>
					<path class="st0" d="M64.1,75.1c0-0.1-0.2-0.1-0.3-0.1L61,79.5c0,0-0.4,0.6-0.7,0.6c-0.1,0-0.1,0.1-0.1,0.1
						c-0.1,0.4-0.3,1.6,0.1,2.2c0,0,0.3,0.6,0.9,0.7c0.4,0,0.8-0.1,1.1-0.3c0.5-0.5,0.7-1.4,0.9-2c0.3-0.9,0.5-1.7,0.7-2.6
						C64.2,77.3,64.4,76.2,64.1,75.1z"/>
					<path class="st0" d="M78.2,66.1c0-0.2-0.3-0.2-0.3-0.2c-0.5-0.1-1.1-0.2-1.7-0.2h-0.6c-0.1,0-0.1,0-0.1,0.1V66
						c0,0.1,0,0.1,0,0.2c0.1,0.1,0.1,0.3,0.1,0.4h-7.9c0-0.1-0.1-0.2-0.1-0.3c-0.1-0.3-0.3-0.6-0.6-0.7c-0.1-0.1-0.3-0.1-0.4,0.1
						c-0.2,0.7-0.5,1.2-0.9,1.8c-0.2,0.2-0.4,0.5-0.5,0.8c-0.1,0.2-0.1,0.4,0,0.6c0.1,0.1,0.2,0.2,0.3,0.3c0.2,0.2,0.5,0.3,0.7,0.5
						c0.2,0.1,0.3,0.2,0.5,0.3c0.2,0.1,0.4,0.1,0.5-0.1c0.2-0.2,0.3-0.5,0.3-0.8c0.1-0.6,0.2-1.2,0.2-1.8h7.6l-0.4,1.3
						c0,0.1,0,0.2,0.1,0.2c0.1,0.1,0.2,0.2,0.4,0.2c0.2,0,0.3-0.1,0.4-0.2c0.5-0.3,1.1-0.6,1.6-1c0.3-0.2,0.5-0.4,0.7-0.6
						c0.1-0.1,0.2-0.2,0.1-0.4C78.3,66.5,78.2,66.2,78.2,66.1z"/>
					<path class="st0" d="M69,68.5l1.7,0.5c0.2,0.1,0.4,0.3,0.2,0.6c-0.6,1-2.3,3.4-5.6,3.7c0,0-0.1,0-0.1-0.1L65.1,73v-0.1
						c0.4-0.3,3.1-2.5,3.3-3.7v-0.5c0-0.1,0.1-0.2,0.1-0.2l0,0C68.8,68.5,68.9,68.5,69,68.5z"/>
					<path class="st0" d="M72.5,68.8c-0.1,0.1-0.1,0.3,0,0.4c0,0.1,0.1,0.1,0.2,0.2c0.5,0.5,1,1,1.5,1.6c0.3,0.3,0.5,0.7,0.8,1.1
						c0.2,0.3,0.4,0.7,0.9,0.8c0.5,0.1,0.9-0.2,1.2-0.6c0.3-0.3,0.4-0.7,0.3-1.1c-0.1-0.4-0.5-0.7-0.8-0.9c-1-0.6-2.1-1.3-3.3-1.6
						c-0.1,0-0.2-0.1-0.3,0C72.7,68.6,72.6,68.7,72.5,68.8z"/>
					<path class="st0" d="M78.1,79.3c-0.1,0-0.3,0-0.4,0c-0.4,0-0.7-0.2-1-0.4c-1.1-0.9-2.8-2.9-3.5-3.7h2.9h1.2h0.5
						c0.1,0,0.1,0,0.1-0.1l0,0c0.1-0.2,0-0.5-0.3-0.6L76.7,74h-0.1c0,0.1-0.3,0.2-0.3,0.2c-0.2,0.1-0.4,0.1-0.7,0.1h-2.9v-0.9
						c0.1,0,0.1-0.1,0.2-0.1l0.1-0.2c0-0.1,0-0.3-0.1-0.3c-0.3-0.3-0.8-1-1.8-1c-0.1,0-0.2,0.1-0.2,0.2v0.1v2.3h-3.6
						c-0.3,0-0.6,0-0.9,0s-0.6-0.1-0.7-0.1c0,0.3,0,0.7,0.1,0.8s0.2,0.2,0.4,0.2H68h1.6c-0.3,0.6-2,3.8-4.4,5.9
						c-0.1,0.1-0.1,0.2-0.1,0.3v0.3c0,0.1,0.1,0.2,0.2,0.1l0.6-0.1c0.5-0.1,0.9-0.3,1.3-0.6c0.9-0.7,2.5-2.1,3.6-3.8v3.7l-0.2,0.4
						c0,0.1-0.1,0.2-0.1,0.3v0.8c0,0.2,0.1,0.3,0.2,0.4l0.1,0.1l1.1,0.7c0.2,0.1,0.5,0,0.5-0.2l0.1-0.2c0.1-0.3,0.1-0.5,0.1-0.8v-6
						c0.6,1.9,2.2,4.1,3,4.7c0.8,0.7,1.4,0.5,1.7,0.3c0.2-0.1,0.6-0.6,0.8-0.9c0.1-0.1,0.1-0.2,0.1-0.4l0.1-0.6
						C78.4,79.5,78.3,79.3,78.1,79.3z"/>
				</g>
				<g>
					<path class="st0" d="M97.9,67.7L97,67.2h-0.1c-0.2,0.1-0.5,0.2-0.5,0.2c-0.2,0.1-0.4,0.1-0.7,0.1h-5.5c0.1-0.1,0.2-0.2,0.3-0.3
						c0.2-0.2,0.3-0.6,0.2-0.8c-0.1-0.3-0.3-0.7-0.8-1.1c0,0-0.7-0.7-2.1-0.8c-0.1,0-0.1,0-0.2,0.1l-0.1,0.1c-0.1,0.1-0.1,0.2,0,0.3
						c0.1,0.3,0.4,0.9,0.6,1.6c0,0.1,0,0.2,0.1,0.3c0,0.2,0.1,0.5,0.3,0.7H82c-0.3,0-0.6,0-0.9,0s-0.6-0.1-0.7-0.1
						c0,0.3,0,0.7,0.1,0.8c0.1,0.1,0.2,0.2,0.4,0.2h1.8h2.2h11.4h1.2H98c0.1,0,0.1,0,0.1-0.1l0,0C98.2,68.1,98.1,67.8,97.9,67.7z"/>
					<path class="st0" d="M84.9,71.3h9.3h1.2h0.5c0.1,0,0.1,0,0.1-0.1l0,0c0.1-0.2,0-0.5-0.3-0.6l-0.9-0.5h-0.1
						c-0.2,0.1-0.5,0.2-0.5,0.2c-0.2,0.1-0.4,0.1-0.7,0.1H83.4c-0.3,0-0.6,0-0.9,0s-0.6-0.1-0.7-0.1c0,0.3,0,0.7,0.1,0.8
						s0.2,0.2,0.4,0.2h1.8H84.9z"/>
					<path class="st0" d="M84.9,74.1h9.3h1.2h0.5c0.1,0,0.1,0,0.1-0.1l0,0c0.1-0.2,0-0.5-0.3-0.6l-0.9-0.5h-0.1
						c-0.2,0.1-0.5,0.2-0.5,0.2c-0.2,0.1-0.4,0.1-0.7,0.1H83.4c-0.3,0-0.6,0-0.9,0s-0.6-0.1-0.7-0.1c0,0.3,0,0.7,0.1,0.8
						c0.1,0.1,0.2,0.2,0.4,0.2h1.8H84.9z"/>
					<path class="st0" d="M95.2,75.7c-0.4-0.1-0.9-0.2-1.4-0.2h-0.1c-0.1,0-0.1,0.1-0.2,0.1c-0.4,0.2-0.8,0.3-1.2,0.3l0,0h-7.4
						c-0.2-0.1-0.4-0.2-0.7-0.3c-0.4-0.1-0.7-0.2-1.1-0.2c-0.3,0-0.5,0-0.6,0.1c-0.2,0.2-0.1,0.8-0.1,1.1c0,0.6,0,1.2,0,1.8
						c0,0.9-0.1,3-0.2,3.9c0,0,0,0,0,0.1c0,0.2,0,0.4,0.2,0.6c0.2,0.2,0.5,0.2,0.7,0.2c0.4,0,0.9-0.1,1.3-0.3c0.1,0,0.2-0.1,0.2-0.2
						s0-0.2,0.1-0.3l0,0h0.5h2.2h5.8c0,0.2,0,0.4,0.2,0.6c0.1,0.1,0.4,0.2,0.7,0.2h0.8c0.2,0,0.5-0.1,0.7-0.3l0,0
						c0.1-0.1,0.2-0.2,0.2-0.4v-0.9v-4.2c0-0.1,0-0.2,0-0.4v-0.1c0-0.1,0.1-0.1,0.1-0.2c0-0.1,0-0.2,0-0.2
						C95.9,76,95.5,75.8,95.2,75.7z M93.4,77.3c0,0.4,0,0.9,0,1.3s0,2.1,0,2.5c0,0.1,0,0.2,0,0.2c-0.1,0-0.2,0-0.3,0l0,0h-8.3v-4.5
						h2.1h6.3h0.4v0.5H93.4z"/>
				</g>
			</g>
		</g>
	</g>
	<g>
		<circle class="st0" cx="34.2" cy="74.1" r="18.9"/>
		<g>
			<g>
				
					<linearGradient id="SVGID_1_" gradientUnits="userSpaceOnUse" x1="37.0207" y1="22.2886" x2="23.7843" y2="19.505" gradientTransform="matrix(1 0 0 -1 0 100.1657)">
					<stop  offset="0" style="stop-color:#7F7F80"/>
					<stop  offset="0.1788" style="stop-color:#909091"/>
					<stop  offset="0.5331" style="stop-color:#BCBCBD"/>
					<stop  offset="1" style="stop-color:#FFFFFF"/>
				</linearGradient>
				<path class="st1" d="M45.4,81.2l0.1-0.2c-0.9-1-13.5-2.8-14.3-4.4c0-0.1-0.1-0.2-0.1-0.3c-0.8-1.8-1.7-3-2.5-3.8
					c-0.6-0.7-1.3-1.1-1.9-1.3c-0.3-0.1-0.5-0.2-0.8-0.3c-0.7-0.2-1.2-0.1-1.7,0c-0.8,0-1.2,0.3-1.2,0.3c-1.7,4.4-0.7,9.6,2.8,13.1
					l0,0c1.3,1.3,2.8,2.2,4.5,2.8c0.6,0.2,1.1,0.4,1.7,0.5c0.7,0.1,1.3,0.2,2,0.2s1.4,0,2.1-0.1c0.6-0.1,1.2-0.2,1.9-0.4l0,0l0,0
					l0,0l0,0c1.2-0.4,2.4-1,3.5-1.8l0,0C44.3,83.6,45.4,81.2,45.4,81.2z"/>
				<path class="st2" d="M40.6,65L40.6,65L40.6,65c-0.1-0.1-0.3-0.2-0.4-0.2l0,0c-0.8-0.4-1.6-0.7-2.5-1c-0.2,0-0.3-0.1-0.5-0.1l0,0
					l0,0c0,0.2-0.1,0.4-0.1,0.7c0,0.1,0,0.2,0,0.3v0.1c0,0.1,0,0.1,0,0.2v0.1v0.1v0.1v0.1c0,0.1,0,0.1,0.1,0.2v0.1
					c0,0.1,0.1,0.1,0.1,0.2V66c0,0.1,0.1,0.1,0.1,0.2c0,0,0,0,0,0.1c0,0.1,0.1,0.1,0.1,0.2l0,0c0,0.1,0.1,0.1,0.1,0.2l0,0
					c0.1,0.1,0.1,0.1,0.2,0.2l0,0c0.1,0.1,0.1,0.1,0.2,0.2l0,0c0.1,0.1,0.1,0.1,0.2,0.2l0,0c0.3,0.2,0.7,0.4,1.1,0.5l0,0
					c-0.2,0-0.4,0.1-0.6,0.2s-0.4,0.2-0.6,0.3c0,0,0,0-0.1,0l-0.1,0.1c0,0,0,0-0.1,0.1l-0.1,0.1c0,0,0,0-0.1,0.1l-0.1,0.1
					c0,0,0,0.1-0.1,0.1L37.3,69c0,0,0,0.1-0.1,0.1l-0.1,0.1c0,0.1-0.1,0.1-0.1,0.2v0.1c0,0,0,0.1-0.1,0.1v0.1c0,0,0,0.1-0.1,0.1v0.1
					V70v0.1c0,0.1,0,0.1,0,0.2v0.1c0,0.1,0,0.1,0,0.2v0.1c0,0.1,0,0.2,0,0.3c0,0.2,0,0.5,0.1,0.7c1.7-0.4,3.2-1.1,4.5-2.1l0,0
					c0.2-0.2,0.4-0.2,0.7-0.2c0.1,0,0.1,0,0.2,0l0,0c0.1,0,0.1,0,0.2,0l0,0c0.1,0,0.1,0,0.1,0.1l0,0l0.1,0.1
					c0.2,0.2,0.4,0.5,0.4,0.8c0,0,0.2,2.3-0.9,4.2l0,0c-0.2,0.5-0.7,0.9-1.2,1.1c0,0,0,0-0.1,0l0,0c0,0,0,0-0.1,0l0,0l0,0h-0.1l0,0
					c0,0,0,0-0.1,0l0,0h-0.1l0,0l0,0c-0.1,0-0.1,0-0.2,0h-0.1h-0.1l0,0l0,0c-0.1,0-0.2,0-0.3-0.1l0,0l0,0c-0.1,0-0.2,0-0.2-0.1l0,0
					l0,0c-0.1,0-0.1-0.1-0.2-0.1l0,0l-0.1-0.1l0.1,0.1c-0.1,0-0.1-0.1-0.2-0.1c0,0,0,0-0.1,0L39,75.2c0,0-0.1,0-0.1-0.1
					c0,0-0.1,0-0.1-0.1c0,0-0.1,0-0.1-0.1c0,0-0.1,0-0.1-0.1c0,0-0.1,0-0.1-0.1c0,0-0.1,0-0.1-0.1c0,0-0.1,0-0.1-0.1l0,0
					c-0.1-0.1-0.1-0.1-0.2-0.2c0,0,0,0-0.1-0.1l-0.1-0.1c0,0,0,0-0.1-0.1l-0.1-0.1c0,0,0,0-0.1-0.1l-0.1-0.1c0,0,0,0,0-0.1
					c-0.2-0.2-0.4-0.4-0.6-0.7l0,0c-0.2-0.3-0.5-0.6-0.8-1c-0.1-0.1-0.2-0.2-0.2-0.3l0,0c-0.1-0.1-0.2-0.2-0.3-0.3l0,0
					c-1.6-1.8-3.2-2.7-3.2-2.7c-1.2-0.7-2.5-1.1-4-1.1c-1.2,0-2.4,0.3-3.4,0.8c-0.3,0.2-0.7,0.5-1.1,0.9c-0.6,0.7-1,1.5-1.3,2.4
					c-0.1,0.2-0.1,0.4-0.2,0.5c0,0.1,0,0.2-0.1,0.3l-0.1,0.3c0.4-0.2,0.9-0.3,1.4-0.3c1.5,0,2.8,0.8,3.4,2c0,0,0.3,0.4,0.7,1.1
					c0.4,0.7,1,1.7,1.6,2.5c0.5,0.8,1,1.5,1.2,1.9c0,0,0,0.1,0.1,0.1c0,0,0,0.1,0.1,0.1c1.3,1.8,3.3,4.1,5.9,5.6l0,0
					c0,0,0.1,0.1,0.3,0.1c0.3,0.2,0.6,0.3,0.9,0.5c1,0.5,2.4,1.1,3.9,1.3h0.1l0,0c0,0,0,0,0.1,0l0,0l0,0l0,0l0,0c0,0,0,0,0-0.1l0,0
					c0-0.1,0-0.2,0-0.2l0,0c-1-1.2-1.7-2.7-2-4.3c0.1,0,0.2,0,0.3,0h0.1c1.3-0.1,2.5-0.4,3.6-0.9c0,0,0,0,0.1,0
					c0.3-0.1,0.5-0.3,0.7-0.5l0,0c0.2-0.2,0.3-0.3,0.4-0.6c0.7-1.6,1.2-3.3,1.2-5.2c0-0.2,0-0.5,0-0.7c0,0,0,0,0-0.1
					c0-0.2,0-0.4-0.1-0.6l0,0c-0.1-0.6-0.2-1.3-0.4-1.9l0,0c-0.6-2.2-1.9-4.2-3.5-5.7l0,0c0,0,0,0-0.1-0.1l0,0l0,0
					c-0.1-0.1-0.3-0.2-0.4-0.3l0,0l0,0l0,0c0,0,0,0-0.1,0c-0.1-0.1-0.1-0.1-0.2-0.2l-0.1-0.1c-0.1-0.1-0.2-0.1-0.2-0.2L40.6,65z"/>
				<circle class="st2" cx="32.6" cy="75.1" r="0.6"/>
				
					<radialGradient id="SVGID_00000037667661241595636540000006836422113488208514_" cx="37.389" cy="36.4222" r="0.1738" gradientTransform="matrix(1 0 0 -1 0 100.1657)" gradientUnits="userSpaceOnUse">
					<stop  offset="0" style="stop-color:#84B7E3"/>
					<stop  offset="1" style="stop-color:#2953A3"/>
				</radialGradient>
				<path style="fill:url(#SVGID_00000037667661241595636540000006836422113488208514_);" d="M37.6,63.8c-0.2,0-0.3-0.1-0.5-0.1"/>
				
					<linearGradient id="SVGID_00000027606454654414060370000011085311585488744860_" gradientUnits="userSpaceOnUse" x1="40.1395" y1="23.3926" x2="44.276" y2="26.5934" gradientTransform="matrix(1 0 0 -1 0 100.1657)">
					<stop  offset="0" style="stop-color:#7F7F80"/>
					<stop  offset="0.1381" style="stop-color:#989899"/>
					<stop  offset="0.4107" style="stop-color:#C4C4C5"/>
					<stop  offset="0.6551" style="stop-color:#E4E4E5"/>
					<stop  offset="0.8599" style="stop-color:#F8F8F8"/>
					<stop  offset="1" style="stop-color:#FFFFFF"/>
				</linearGradient>
				<path style="fill:url(#SVGID_00000027606454654414060370000011085311585488744860_);" d="M46.3,72.3L46.3,72.3
					c0.2,0.6,0.3,1.3,0.4,1.9l0,0c0,0.2,0,0.4,0.1,0.6c0,0,0,0,0,0.1c0,0.2,0,0.5,0,0.7c0,0.4,0,0.8-0.1,1.2
					c-0.9,0.4-1.9,0.7-2.9,0.7c-2.5,0-4.8-1.4-5.9-3.5c0,0,0,0,0.1,0.1c0,0,0,0,0.1,0.1l0.1,0.1c0,0,0,0,0.1,0.1l0.1,0.1
					c0,0,0,0,0.1,0.1c0.1,0.1,0.1,0.1,0.2,0.2l0,0c0,0,0.1,0,0.1,0.1c0,0,0.1,0,0.1,0.1c0,0,0.1,0,0.1,0.1c0,0,0.1,0,0.1,0.1
					c0,0,0.1,0,0.1,0.1c0,0,0.1,0,0.1,0.1c0,0,0.1,0,0.1,0.1l0.1,0.1c0,0,0,0,0.1,0c0.1,0,0.1,0.1,0.2,0.1l-0.4-0.5l0.1,0.1l0,0
					c0.1,0,0.1,0.1,0.2,0.1l0,0l0,0c0.1,0,0.1,0.1,0.2,0.1l0,0l0,0c0.1,0,0.2,0,0.3,0.1l0,0l0,0h0.1h0.1c0.1,0,0.1,0,0.2,0l0,0l0,0
					h0.1l0,0c0,0,0,0,0.1,0l0,0h0.1l0,0l0,0c0,0,0,0,0.1,0l0,0c0,0,0,0,0.1,0c0.5-0.2,0.9-0.6,1.2-1.1l0,0c1.1-2,0.9-4.2,0.9-4.2
					c0-0.3-0.1-0.6-0.4-0.8L46.3,72.3z"/>
				
					<linearGradient id="SVGID_00000141416288271272043050000008916766610061777597_" gradientUnits="userSpaceOnUse" x1="26.1836" y1="37.0328" x2="29.6635" y2="37.0328" gradientTransform="matrix(1 0 0 -1 0 100.1657)">
					<stop  offset="0" style="stop-color:#FFFFFF"/>
					<stop  offset="0.1717" style="stop-color:#FBFBFB"/>
					<stop  offset="0.3497" style="stop-color:#EEEEEF"/>
					<stop  offset="0.5305" style="stop-color:#DADADA"/>
					<stop  offset="0.7134" style="stop-color:#BDBDBD"/>
					<stop  offset="0.896" style="stop-color:#989898"/>
					<stop  offset="1" style="stop-color:#7F7F80"/>
				</linearGradient>
				<path style="fill:url(#SVGID_00000141416288271272043050000008916766610061777597_);" d="M26.1,59.6v4.9c1.3,0,2.5,0.7,3.1,1.8
					c0.1,0.2,0.3,0.3,0.5,0.3v-3.4C29.7,61.2,28.1,59.6,26.1,59.6z"/>
				
					<linearGradient id="SVGID_00000176725588950484792360000000982808600268201140_" gradientUnits="userSpaceOnUse" x1="33.3464" y1="37.0328" x2="29.2091" y2="37.0328" gradientTransform="matrix(1 0 0 -1 0 100.1657)">
					<stop  offset="0" style="stop-color:#FFFFFF"/>
					<stop  offset="0.1717" style="stop-color:#FBFBFB"/>
					<stop  offset="0.3497" style="stop-color:#EEEEEF"/>
					<stop  offset="0.5305" style="stop-color:#DADADA"/>
					<stop  offset="0.7134" style="stop-color:#BDBDBD"/>
					<stop  offset="0.896" style="stop-color:#989898"/>
					<stop  offset="1" style="stop-color:#7F7F80"/>
				</linearGradient>
				<path style="fill:url(#SVGID_00000176725588950484792360000000982808600268201140_);" d="M29.7,63.2v3.4c0.2,0,0.4-0.1,0.5-0.3
					c0.6-1.1,1.8-1.8,3.1-1.8v-4.9C31.3,59.6,29.7,61.2,29.7,63.2z"/>
				<circle class="st0" cx="32.6" cy="75.1" r="0.6"/>
			</g>
		</g>
	</g>
</g>
</svg>
