<?xml version="1.0" encoding="utf-8"?>
<!-- Generator: Adobe Illustrator 26.2.1, SVG Export Plug-In . SVG Version: 6.00 Build 0)  -->
<svg version="1.1" id="图层_1" xmlns="http://www.w3.org/2000/svg" xmlns:xlink="http://www.w3.org/1999/xlink" x="0px" y="0px"
	 viewBox="0 0 155 155.1" style="enable-background:new 0 0 155 155.1;" xml:space="preserve">
<style type="text/css">
	.st0{fill:#3F3F3F;}
	.st1{fill:url(#SVGID_1_);}
	.st2{fill:#FFFFFF;}
	.st3{fill:url(#SVGID_00000013194547123291848280000000411544954716683709_);}
	.st4{fill:url(#SVGID_00000092433882132669883260000004726476678399450526_);}
	.st5{fill:url(#SVGID_00000130645890718762612830000005535510060915985031_);}
	.st6{fill:url(#SVGID_00000062190744594225458680000002915041593017599385_);}
</style>
<g>
	<g>
		<g>
			<g>
				<path class="st0" d="M81.9,99.1c0.8,1.4,1.4,2.6,1.5,3.6l0.1,0.6L84,103c1.1-0.7,1.7-1.7,1.7-2.6c0-0.8-0.4-1.8-1.3-2.6
					c-0.8-0.8-2.1-1.7-3.9-2.4l-0.1-0.1l-1,0.8l0.3,0.3C80.2,96.7,81.1,97.7,81.9,99.1z"/>
				<path class="st0" d="M89,117.3c-0.8-0.1-1.7-0.6-2.4-1c2.5-1,4.6-2.2,5.8-3.6c1.3-1.3,2.1-2.9,2.6-4.9c1.3,1.1,2.5,2.5,3.6,4
					c1.4,1.7,2.4,3.1,2.9,4.3l0.4,0.8l0.3-0.8c0.3-1.1,0.6-1.9,0.6-2.6c0-1.3-0.6-2.4-1.7-3.5c-1.1-1.1-2.9-2.4-5.6-3.8
					c0.1-0.8,0.3-1.8,0.4-2.8h7.5c0.3,0,0.7-0.1,0.8-0.3c0.3-0.3,0.3-0.6,0.3-0.8s-0.1-0.6-0.4-0.8c-0.3-0.1-0.6-0.3-0.8-0.3
					c-0.3,0-0.6,0.1-0.8,0.3c-0.3,0.1-0.4,0.3-0.7,0.3c-0.1,0.1-0.4,0.1-0.8,0.1h-5c0-0.8,0.1-2.2,0.1-3.9l0.1-2.1
					c0-0.8-0.6-1.4-1.4-1.4c-0.3,0-0.6,0-0.8,0.1c-0.4,0.1-0.6,0.1-0.6,0.3l-0.1,0.1v1.5c0,2.4-0.1,4.2-0.1,5.4h-6.4
					c-0.1,0-0.4,0.1-0.6,0.3c-0.1,0.1-0.3,0.4-0.3,0.6c0,0.1,0,0.3,0.3,0.6c0.1,0.1,0.3,0.3,0.6,0.3h6.3c-0.1,1.8-0.4,3.5-0.8,4.7
					c-0.4,1.4-1.1,2.6-2.1,3.9c-1,1.1-2.2,2.2-3.9,3.2l-0.3,0.1l0.1,0.3c-0.3-0.1-0.6-0.4-0.7-0.7l-0.1-0.1v-10
					c0-0.7-0.4-1.1-1.3-1.1c-0.3,0-0.6,0-0.8,0.1c-0.3,0-0.4,0.1-0.4,0.1l-0.7-0.3v0.6h-3.1c-0.1,0-0.4,0.1-0.6,0.3
					c-0.1,0.1-0.3,0.4-0.3,0.6c0,0.1,0.1,0.4,0.3,0.6c0.1,0.1,0.3,0.1,0.6,0.1h3.1v9.3c-0.6,0.4-1.3,0.8-2.1,1.4
					c-0.3,0.1-0.8,0.7-1.8,1.4l-0.1,0.1v0.3c0,0.1,0.1,0.3,0.1,0.6c0.1,0.3,0.3,0.7,0.6,1c0.3,0.4,0.7,0.6,1,0.6
					c0.4,0,0.8-0.3,1.3-0.8l1-1.3c0.8-1,1.4-1.8,1.7-2.4c0.1-0.1,0.3-0.3,0.3-0.3s0.1,0,0.1,0.3c0.8,1.1,1.8,2.1,2.6,2.6
					c1,0.7,2.1,1.1,3.3,1.4c1.3,0.3,2.8,0.4,4.6,0.4h7.9c0.4,0,0.6-0.1,0.8-0.3c0.1-0.1,0.3-0.4,0.4-0.7c0.1-0.3,0.1-0.4,0.3-0.7
					c0.1-0.1,0.3-0.4,0.6-0.6l1-0.6H95.4C92.8,117.8,90.5,117.6,89,117.3z"/>
			</g>
			<g>
				<path class="st0" d="M133.2,101.7L133.2,101.7c-0.3-0.1-0.6-0.3-0.8-0.3h-0.1c-0.3,0-0.4,0.1-0.7,0.3c0,0-0.1,0.1-0.3,0.1
					c-0.1,0.1-0.3,0.1-0.4,0.3c-0.1,0.1-0.6,0.1-0.8,0.1h-5.3c0.6-0.4,1-0.8,1.5-1.4c0.4-0.3,0.6-0.6,0.6-1c0-0.3-0.1-0.6-0.7-0.8
					l0,0h4.5c0.3,0,0.6-0.1,0.8-0.3c0.3-0.3,0.4-0.6,0.4-0.8s-0.1-0.6-0.4-0.8c-0.3-0.1-0.6-0.3-0.8-0.3c-0.3,0-0.6,0.1-0.8,0.3
					c-0.3,0.1-0.4,0.3-0.7,0.3c-0.1,0.1-0.4,0.1-0.8,0.1h-6c0.1-0.3,0.1-0.4,0.1-0.7c0-1.1-1.1-1.8-3.5-2.4h-0.1l-0.7,0.7l0.3,0.3
					c0.7,0.7,1.3,1.4,1.7,2.2h-9.2c-0.1,0-0.4,0.1-0.6,0.3c-0.1,0.1-0.3,0.4-0.3,0.6c0,0.1,0.1,0.4,0.3,0.6c0.1,0.1,0.3,0.1,0.6,0.1
					h3.9l-0.4,0.3l0.3,0.3c0.8,0.8,1.5,1.7,1.9,2.6h-7.7c-0.1,0-0.4,0-0.6,0.1c-0.1,0.1-0.3,0.3-0.3,0.6c0,0.3,0.1,0.4,0.3,0.6
					c0.1,0.1,0.3,0.1,0.6,0.1h23.8c0.3,0,0.7-0.1,0.8-0.3c0.3-0.3,0.3-0.6,0.3-0.8C133.5,102.1,133.5,101.8,133.2,101.7z M116,98.9
					h7.9c-0.4,1.3-0.8,2.2-1.3,3.2h-4.3c0.3-0.3,0.4-0.7,0.4-1.1C118.6,100.2,117.8,99.5,116,98.9z"/>
				<path class="st0" d="M111.8,113.5h-1v0.3c-0.3,2.1-1.3,3.9-3.1,5.4l-0.4,0.4l0.6,0.1c0.4,0.1,0.8,0.3,1.3,0.3c1,0,1.7-0.3,2.4-1
					c0.6-0.7,1-1.5,1-2.6c0-0.8-0.1-1.7-0.6-2.6L111.8,113.5z"/>
				<path class="st0" d="M132,115.6L132,115.6c-0.7-0.7-1.9-1.4-3.5-2.1c0.4-0.1,0.6-0.6,0.6-0.8V105c0-0.3-0.1-1.1-1.3-1.1
					c-0.3,0-0.6,0-0.8,0.1c-0.3,0-0.4,0.1-0.4,0.1l-0.3,0.1v0.6H115c-0.1-0.4-0.4-0.8-1.3-0.8c-0.3,0-0.6,0-0.8,0.1
					c-0.3,0-0.4,0.1-0.4,0.1l-0.3,0.1v9.2l0.3,0.1c0.1,0,0.3,0,0.6,0.1c0.3,0,0.6,0.1,0.8,0.1c1.1,0,1.3-0.6,1.3-1l0,0h3.9l-0.6,0.4
					l0.3,0.3c0.6,0.4,1.3,1.3,1.8,2.1c0.6,1,1,1.8,1.1,2.5v0.3h-3.6c-0.3,0-0.6-0.1-0.8-0.3c-0.1-0.1-0.3-0.4-0.3-0.8v-2.8
					c0-0.3-0.1-1.1-1.3-1.1c-0.3,0-0.6,0-0.8,0.1c-0.3,0.1-0.4,0.1-0.6,0.1l-0.3,0.1v3.5c0,1,0.4,1.9,1.1,2.6s1.5,1.1,2.5,1.1h9.5
					c0.4,0,0.8-0.1,1.1-0.4c0.3-0.3,0.4-0.6,0.4-1c0-0.4-0.1-0.7-0.6-1.1c-0.1,0-0.3-0.1-0.4-0.4c-0.1-0.1-0.3-0.3-0.4-0.7l0,0
					c-0.1-0.3-0.3-0.7-0.3-1.4V116h-0.6v0.3c0,1.1-0.1,1.5-0.3,1.8c-0.1,0.3-0.6,0.4-1,0.4h-3.1l0,0c1-0.7,1.5-1.5,1.5-2.4
					c0-1.4-1.3-2.4-3.9-3.1h6.5v0.7l0.3,0.1c0.1,0,0.3,0,0.6,0.1c0.3,0,0.4,0.1,0.7,0.1l-0.3,0.3l0.3,0.3c0.7,0.7,1.4,1.7,2.1,2.8
					c0.7,1.1,1.1,2.1,1.3,2.9v0.4l0.4-0.1c0.6-0.3,1-0.6,1.3-0.8c0.4-0.4,0.6-0.8,0.6-1.4C133.2,117.2,132.8,116.3,132,115.6z
					 M126.1,106.2v1.8h-11.3v-1.8H126.1z M126.1,109.5v1.7h-11.3v-1.7H126.1z"/>
			</g>
			<g>
				<path class="st0" d="M25.3,100.3c0,0.1,0,0.3,0.1,0.4c0.1,0.6,0.4,2.2,2.1,1.8c0,0,0.7,0,1.7-1.1c0.3-0.4,0.4-0.8,0.3-1.4
					c-0.1-0.4-0.6-1.1-1.3-1.8c0,0-1.1-1.3-3.3-1.4c-0.1,0-0.3,0-0.3,0.1l-0.1,0.1c-0.1,0.1-0.1,0.3-0.1,0.4
					C24.4,98.1,25,99.2,25.3,100.3z"/>
				<path class="st0" d="M23.9,107.7c0,0.1,0,0.3,0.1,0.4c0.1,0.6,0.4,2.2,2.1,1.8c0,0,0.7,0,1.7-1.1c0.3-0.4,0.4-0.8,0.3-1.4
					c-0.1-0.4-0.6-1.1-1.3-1.8c0,0-1.7-1.9-3.9-2.1c-0.1,0-0.3,0-0.3,0.1l-0.1,0.1c-0.1,0.1-0.1,0.3-0.1,0.4
					C22.5,104.8,23.6,106.4,23.9,107.7z"/>
				<path class="st0" d="M28.8,109.5c0-0.1-0.3-0.1-0.4-0.1l-3.9,6.3c0,0-0.6,0.8-1,0.8c-0.1,0-0.1,0.1-0.1,0.1
					c-0.1,0.6-0.4,2.2,0.1,3.1c0,0,0.4,0.8,1.3,1c0.6,0,1.1-0.1,1.5-0.4c0.7-0.7,1-1.9,1.3-2.8c0.4-1.3,0.7-2.4,1-3.6
					C28.9,112.6,29.2,111,28.8,109.5z"/>
				<path class="st0" d="M48.4,97c0-0.3-0.4-0.3-0.4-0.3c-0.7-0.1-1.5-0.3-2.4-0.3h-0.8c-0.1,0-0.1,0-0.1,0.1v0.3c0,0.1,0,0.1,0,0.3
					c0.1,0.1,0.1,0.4,0.1,0.6h-11c0-0.1-0.1-0.3-0.1-0.4c-0.1-0.4-0.4-0.8-0.8-1c-0.1-0.1-0.4-0.1-0.6,0.1c-0.3,1-0.7,1.7-1.3,2.5
					c-0.3,0.3-0.6,0.7-0.7,1.1c-0.1,0.3-0.1,0.6,0,0.8c0.1,0.1,0.3,0.3,0.4,0.4c0.3,0.3,0.7,0.4,1,0.7c0.3,0.1,0.4,0.3,0.7,0.4
					c0.3,0.1,0.6,0.1,0.7-0.1c0.3-0.3,0.4-0.7,0.4-1.1c0.1-0.8,0.3-1.7,0.3-2.5h10.6l-0.6,1.8c0,0.1,0,0.3,0.1,0.3
					c0.1,0.1,0.3,0.3,0.6,0.3c0.3,0,0.4-0.1,0.6-0.3c0.7-0.4,1.5-0.8,2.2-1.4c0.4-0.3,0.7-0.6,1-0.8c0.1-0.1,0.3-0.3,0.1-0.6
					C48.5,97.5,48.4,97.1,48.4,97z"/>
				<path class="st0" d="M35.6,100.3l2.4,0.7c0.3,0.1,0.6,0.4,0.3,0.8c-0.8,1.4-3.2,4.7-7.8,5.1c0,0-0.1,0-0.1-0.1l-0.1-0.3v-0.1
					c0.6-0.4,4.3-3.5,4.6-5.1v-0.7c0-0.1,0.1-0.3,0.1-0.3l0,0C35.3,100.3,35.4,100.3,35.6,100.3z"/>
				<path class="st0" d="M40.4,100.7c-0.1,0.1-0.1,0.4,0,0.6c0,0.1,0.1,0.1,0.3,0.3c0.7,0.7,1.4,1.4,2.1,2.2c0.4,0.4,0.7,1,1.1,1.5
					c0.3,0.4,0.6,1,1.3,1.1c0.7,0.1,1.3-0.3,1.7-0.8c0.4-0.4,0.6-1,0.4-1.5c-0.1-0.6-0.7-1-1.1-1.3c-1.4-0.8-2.9-1.8-4.6-2.2
					c-0.1,0-0.3-0.1-0.4,0C40.7,100.5,40.6,100.6,40.4,100.7z"/>
				<path class="st0" d="M48.2,115.3c-0.1,0-0.4,0-0.6,0c-0.6,0-1-0.3-1.4-0.6c-1.5-1.3-3.9-4-4.9-5.1h4h1.7h0.7
					c0.1,0,0.1,0,0.1-0.1l0,0c0.1-0.3,0-0.7-0.4-0.8l-1.3-0.7h-0.1c0,0.1-0.4,0.3-0.4,0.3c-0.3,0.1-0.6,0.1-1,0.1h-4v-1.3
					c0.1,0,0.1-0.1,0.3-0.1l0.1-0.3c0-0.1,0-0.4-0.1-0.4c-0.4-0.4-1.1-1.4-2.5-1.4c-0.1,0-0.3,0.1-0.3,0.3v0.1v3.2h-5
					c-0.4,0-0.8,0-1.3,0c-0.4,0-0.8-0.1-1-0.1c0,0.4,0,1,0.1,1.1s0.3,0.3,0.6,0.3h2.5h2.2c-0.4,0.8-2.8,5.3-6.1,8.2
					c-0.1,0.1-0.1,0.3-0.1,0.4v0.4c0,0.1,0.1,0.3,0.3,0.1l0.8-0.1c0.7-0.1,1.3-0.4,1.8-0.8c1.3-1,3.5-2.9,5-5.3v5.1l-0.3,0.6
					c0,0.1-0.1,0.3-0.1,0.4v1.1c0,0.3,0.1,0.4,0.3,0.6l0.1,0.1l1.5,1c0.3,0.1,0.7,0,0.7-0.3l0.1-0.3c0.1-0.4,0.1-0.7,0.1-1.1v-8.3
					c0.8,2.6,3.1,5.7,4.2,6.5c1.1,1,1.9,0.7,2.4,0.4c0.3-0.1,0.8-0.8,1.1-1.3c0.1-0.1,0.1-0.3,0.1-0.6l0.1-0.8
					C48.7,115.6,48.5,115.3,48.2,115.3z"/>
			</g>
			<g>
				<path class="st0" d="M75.8,99.2l-1.3-0.7h-0.1c-0.3,0.1-0.7,0.3-0.7,0.3c-0.3,0.1-0.6,0.1-1,0.1h-7.7c0.1-0.1,0.3-0.3,0.4-0.4
					c0.3-0.3,0.4-0.8,0.3-1.1c-0.1-0.4-0.4-1-1.1-1.5c0,0-1-1-2.9-1.1c-0.1,0-0.1,0-0.3,0.1L61.3,95c-0.1,0.1-0.1,0.3,0,0.4
					c0.1,0.4,0.6,1.3,0.8,2.2c0,0.1,0,0.3,0.1,0.4c0,0.3,0.1,0.7,0.4,1h-9c-0.4,0-0.8,0-1.3,0c-0.4,0-0.8-0.1-1-0.1
					c0,0.4,0,1,0.1,1.1c0.1,0.1,0.3,0.3,0.6,0.3h2.5h3.1h15.9h1.7h0.7c0.1,0,0.1,0,0.1-0.1l0,0C76.2,99.8,76.1,99.3,75.8,99.2z"/>
				<path class="st0" d="M57.7,104.2h12.9h1.7H73c0.1,0,0.1,0,0.1-0.1l0,0c0.1-0.3,0-0.7-0.4-0.8l-1.3-0.7h-0.1
					c-0.3,0.1-0.7,0.3-0.7,0.3c-0.3,0.1-0.6,0.1-1,0.1H55.6c-0.4,0-0.8,0-1.3,0c-0.4,0-0.8-0.1-1-0.1c0,0.4,0,1,0.1,1.1
					c0.1,0.1,0.3,0.3,0.6,0.3h2.5H57.7z"/>
				<path class="st0" d="M57.7,108.1h12.9h1.7H73c0.1,0,0.1,0,0.1-0.1l0,0c0.1-0.3,0-0.7-0.4-0.8l-1.3-0.7h-0.1
					c-0.3,0.1-0.7,0.3-0.7,0.3c-0.3,0.1-0.6,0.1-1,0.1H55.6c-0.4,0-0.8,0-1.3,0c-0.4,0-0.8-0.1-1-0.1c0,0.4,0,1,0.1,1.1
					c0.1,0.1,0.3,0.3,0.6,0.3h2.5H57.7z"/>
				<path class="st0" d="M72,110.3c-0.6-0.1-1.3-0.3-1.9-0.3h-0.1c-0.1,0-0.1,0.1-0.3,0.1c-0.6,0.3-1.1,0.4-1.7,0.4l0,0H57.7
					c-0.3-0.1-0.6-0.3-1-0.4c-0.6-0.1-1-0.3-1.5-0.3c-0.4,0-0.7,0-0.8,0.1c-0.3,0.3-0.1,1.1-0.1,1.5c0,0.8,0,1.7,0,2.5
					c0,1.3-0.1,4.2-0.3,5.4c0,0,0,0,0,0.1c0,0.3,0,0.6,0.3,0.8s0.7,0.3,1,0.3c0.6,0,1.3-0.1,1.8-0.4c0.1,0,0.3-0.1,0.3-0.3
					c0-0.1,0-0.3,0.1-0.4l0,0h0.7h3.1h8.1c0,0.3,0,0.6,0.3,0.8c0.1,0.1,0.6,0.3,1,0.3h1.1c0.3,0,0.7-0.1,1-0.4l0,0
					c0.1-0.1,0.3-0.3,0.3-0.6v-1.3v-5.8c0-0.1,0-0.3,0-0.6V112c0-0.1,0.1-0.1,0.1-0.3c0-0.1,0-0.3,0-0.3
					C73,110.8,72.4,110.5,72,110.3z M69.5,112.6c0,0.6,0,1.3,0,1.8c0,0.6,0,2.9,0,3.5c0,0.1,0,0.3,0,0.3c-0.1,0-0.3,0-0.4,0l0,0
					H57.6v-6.3h2.9h8.8h0.6v0.7H69.5z"/>
			</g>
		</g>
	</g>
</g>
<g>
	<circle class="st0" cx="77.5" cy="51.4" r="32.1"/>
	<g>
		<g>
			
				<linearGradient id="SVGID_1_" gradientUnits="userSpaceOnUse" x1="82.282" y1="749.5913" x2="59.7793" y2="754.3236" gradientTransform="matrix(1 0 0 1 0 -691.8343)">
				<stop  offset="0" style="stop-color:#7F7F80"/>
				<stop  offset="0.1788" style="stop-color:#909091"/>
				<stop  offset="0.5331" style="stop-color:#BCBCBD"/>
				<stop  offset="1" style="stop-color:#FFFFFF"/>
			</linearGradient>
			<path class="st1" d="M96.5,63.5l0.2-0.3c-1.5-1.7-23-4.8-24.3-7.5c0-0.2-0.2-0.3-0.2-0.5c-1.4-3.1-2.9-5.1-4.3-6.5
				c-1-1.2-2.2-1.9-3.2-2.2c-0.5-0.2-0.9-0.3-1.4-0.5c-1.2-0.3-2-0.2-2.9,0c-1.4,0-2,0.5-2,0.5c-2.9,7.5-1.2,16.3,4.8,22.3l0,0
				c2.2,2.2,4.8,3.7,7.7,4.8c1,0.3,1.9,0.7,2.9,0.9c1.2,0.2,2.2,0.3,3.4,0.3s2.4,0,3.6-0.2c1-0.2,2-0.3,3.2-0.7l0,0l0,0l0,0l0,0
				c2-0.7,4.1-1.7,6-3.1l0,0C94.7,67.5,96.5,63.5,96.5,63.5z"/>
			<path class="st2" d="M88.4,35.9L88.4,35.9L88.4,35.9c-0.2-0.2-0.5-0.3-0.7-0.3l0,0c-1.4-0.7-2.7-1.2-4.3-1.7
				c-0.3,0-0.5-0.2-0.9-0.2l0,0l0,0c0,0.3-0.2,0.7-0.2,1.2c0,0.2,0,0.3,0,0.5v0.2c0,0.2,0,0.2,0,0.3v0.2v0.2v0.2v0.2
				c0,0.2,0,0.2,0.2,0.3v0.2c0,0.2,0.2,0.2,0.2,0.3v0.2c0,0.2,0.2,0.2,0.2,0.3c0,0,0,0,0,0.2c0,0.2,0.2,0.2,0.2,0.3l0,0
				c0,0.2,0.2,0.2,0.2,0.3l0,0c0.2,0.2,0.2,0.2,0.3,0.3l0,0c0.2,0.2,0.2,0.2,0.3,0.3l0,0c0.2,0.2,0.2,0.2,0.3,0.3l0,0
				c0.5,0.3,1.2,0.7,1.9,0.9l0,0c-0.3,0-0.7,0.2-1,0.3c-0.3,0.2-0.7,0.3-1,0.5c0,0,0,0-0.2,0l-0.2,0.2c0,0,0,0-0.2,0.2L83.5,42
				c0,0,0,0-0.2,0.2l-0.2,0.2c0,0,0,0.2-0.2,0.2l-0.2,0.2c0,0,0,0.2-0.2,0.2l-0.2,0.2c0,0.2-0.2,0.2-0.2,0.3v0.2c0,0,0,0.2-0.2,0.2
				v0.2c0,0,0,0.2-0.2,0.2v0.2v0.2v0.2c0,0.2,0,0.2,0,0.3v0.2c0,0.2,0,0.2,0,0.3v0.2c0,0.2,0,0.3,0,0.5c0,0.3,0,0.9,0.2,1.2
				c2.9-0.7,5.4-1.9,7.7-3.6l0,0c0.3-0.3,0.7-0.3,1.2-0.3c0.2,0,0.2,0,0.3,0l0,0c0.2,0,0.2,0,0.3,0l0,0c0.2,0,0.2,0,0.2,0.2l0,0
				l0.2,0.2c0.3,0.3,0.7,0.9,0.7,1.4c0,0,0.3,3.9-1.5,7.1l0,0c-0.3,0.9-1.2,1.5-2,1.9c0,0,0,0-0.2,0l0,0c0,0,0,0-0.2,0l0,0l0,0h-0.2
				l0,0c0,0,0,0-0.2,0l0,0h-0.2l0,0l0,0c-0.2,0-0.2,0-0.3,0h-0.2h-0.2l0,0l0,0c-0.2,0-0.3,0-0.5-0.2l0,0l0,0c-0.2,0-0.3,0-0.3-0.2
				l0,0l0,0c-0.2,0-0.2-0.2-0.3-0.2l0,0l-0.2-0.2l0.2,0.2c-0.2,0-0.2-0.2-0.3-0.2c0,0,0,0-0.2,0l-0.2-0.2c0,0-0.2,0-0.2-0.2
				c0,0-0.2,0-0.2-0.2c0,0-0.2,0-0.2-0.2c0,0-0.2,0-0.2-0.2c0,0-0.2,0-0.2-0.2c0,0-0.2,0-0.2-0.2c0,0-0.2,0-0.2-0.2l0,0
				c-0.2-0.2-0.2-0.2-0.3-0.3c0,0,0,0-0.2-0.2l-0.2-0.2c0,0,0,0-0.2-0.2l-0.2-0.2c0,0,0,0-0.2-0.2l-0.2-0.2c0,0,0,0,0-0.2
				c-0.3-0.3-0.7-0.7-1-1.2l0,0c-0.3-0.5-0.9-1-1.4-1.7c-0.2-0.2-0.3-0.3-0.3-0.5l0,0c-0.2-0.2-0.3-0.3-0.5-0.5l0,0
				c-2.7-3.1-5.4-4.6-5.4-4.6c-2-1.2-4.3-1.9-6.8-1.9c-2,0-4.1,0.5-5.8,1.4c-0.5,0.3-1.2,0.9-1.9,1.5c-1,1.2-1.7,2.6-2.2,4.1
				c-0.2,0.3-0.2,0.7-0.3,0.9c0,0.2,0,0.3-0.2,0.5L57.1,49c0.7-0.3,1.5-0.5,2.4-0.5c2.6,0,4.8,1.4,5.8,3.4c0,0,0.5,0.7,1.2,1.9
				s1.7,2.9,2.7,4.3c0.9,1.4,1.7,2.6,2,3.2c0,0,0,0.2,0.2,0.2c0,0,0,0.2,0.2,0.2c2.2,3.1,5.6,7,10,9.5l0,0c0,0,0.2,0.2,0.5,0.2
				c0.5,0.3,1,0.5,1.5,0.9c1.7,0.9,4.1,1.9,6.6,2.2h0.2l0,0c0,0,0,0,0.2,0l0,0l0,0l0,0l0,0c0,0,0,0,0-0.2l0,0c0-0.2,0-0.3,0-0.3l0,0
				c-1.7-2-2.9-4.6-3.4-7.3c0.2,0,0.3,0,0.5,0h0.2c2.2-0.2,4.3-0.7,6.1-1.5c0,0,0,0,0.2,0c0.5-0.2,0.9-0.5,1.2-0.9l0,0
				c0.3-0.3,0.5-0.5,0.7-1c1.2-2.7,2-5.6,2-8.8c0-0.3,0-0.9,0-1.2c0,0,0,0,0-0.2c0-0.3,0-0.7-0.2-1l0,0c-0.2-1-0.3-2.2-0.7-3.2l0,0
				c-1-3.7-3.2-7.1-6-9.7l0,0c0,0,0,0-0.2-0.2l0,0l0,0c-0.2-0.2-0.5-0.3-0.7-0.5l0,0l0,0l0,0c0,0,0,0-0.2,0
				c-0.2-0.2-0.2-0.2-0.3-0.3l-0.2-0.2c-0.2-0.2-0.3-0.2-0.3-0.3L88.4,35.9z"/>
			<circle class="st2" cx="74.8" cy="53.1" r="1"/>
			
				<radialGradient id="SVGID_00000092456303771324548380000003983467659802366113_" cx="82.9215" cy="725.6269" r="0.2955" gradientTransform="matrix(1 0 0 1 0 -691.8343)" gradientUnits="userSpaceOnUse">
				<stop  offset="0" style="stop-color:#84B7E3"/>
				<stop  offset="1" style="stop-color:#2953A3"/>
			</radialGradient>
			<path style="fill:url(#SVGID_00000092456303771324548380000003983467659802366113_);" d="M83.3,33.9c-0.3,0-0.5-0.2-0.9-0.2"/>
			
				<linearGradient id="SVGID_00000054239394059588086610000013116176233648165765_" gradientUnits="userSpaceOnUse" x1="87.5518" y1="747.7189" x2="94.5841" y2="742.2773" gradientTransform="matrix(1 0 0 1 0 -691.8343)">
				<stop  offset="0" style="stop-color:#7F7F80"/>
				<stop  offset="0.1381" style="stop-color:#989899"/>
				<stop  offset="0.4107" style="stop-color:#C4C4C5"/>
				<stop  offset="0.6551" style="stop-color:#E4E4E5"/>
				<stop  offset="0.8599" style="stop-color:#F8F8F8"/>
				<stop  offset="1" style="stop-color:#FFFFFF"/>
			</linearGradient>
			<path style="fill:url(#SVGID_00000054239394059588086610000013116176233648165765_);" d="M98.1,48.3L98.1,48.3
				c0.3,1,0.5,2.2,0.7,3.2l0,0c0,0.3,0,0.7,0.2,1c0,0,0,0,0,0.2c0,0.3,0,0.9,0,1.2c0,0.7,0,1.4-0.2,2c-1.5,0.7-3.2,1.2-4.9,1.2
				c-4.3,0-8.2-2.4-10-6c0,0,0,0,0.2,0.2c0,0,0,0,0.2,0.2l0.2,0.2c0,0,0,0,0.2,0.2l0.2,0.2c0,0,0,0,0.2,0.2c0.2,0.2,0.2,0.2,0.3,0.3
				l0,0c0,0,0.2,0,0.2,0.2c0,0,0.2,0,0.2,0.2c0,0,0.2,0,0.2,0.2c0,0,0.2,0,0.2,0.2c0,0,0.2,0,0.2,0.2c0,0,0.2,0,0.2,0.2
				c0,0,0.2,0,0.2,0.2l0.2,0.2c0,0,0,0,0.2,0c0.2,0,0.2,0.2,0.3,0.2l-0.7-0.9l0.2,0.2l0,0c0.2,0,0.2,0.2,0.3,0.2l0,0l0,0
				c0.2,0,0.2,0.2,0.3,0.2l0,0l0,0c0.2,0,0.3,0,0.5,0.2l0,0l0,0h0.2H88c0.2,0,0.2,0,0.3,0l0,0l0,0h0.2l0,0c0,0,0,0,0.2,0l0,0h0.2
				l0,0l0,0c0,0,0,0,0.2,0l0,0c0,0,0,0,0.2,0c0.9-0.3,1.5-1,2-1.9l0,0c1.9-3.4,1.5-7.1,1.5-7.1c0-0.5-0.2-1-0.7-1.4L98.1,48.3z"/>
			
				<linearGradient id="SVGID_00000161620054274289813270000011428827341275847569_" gradientUnits="userSpaceOnUse" x1="63.8716" y1="724.5329" x2="69.7877" y2="724.5329" gradientTransform="matrix(1 0 0 1 0 -691.8343)">
				<stop  offset="0" style="stop-color:#FFFFFF"/>
				<stop  offset="0.1717" style="stop-color:#FBFBFB"/>
				<stop  offset="0.3497" style="stop-color:#EEEEEF"/>
				<stop  offset="0.5305" style="stop-color:#DADADA"/>
				<stop  offset="0.7134" style="stop-color:#BDBDBD"/>
				<stop  offset="0.896" style="stop-color:#989898"/>
				<stop  offset="1" style="stop-color:#7F7F80"/>
			</linearGradient>
			<path style="fill:url(#SVGID_00000161620054274289813270000011428827341275847569_);" d="M63.7,26.7v8.3c2.2,0,4.3,1.2,5.3,3.1
				c0.2,0.3,0.5,0.5,0.9,0.5v-5.8C69.8,29.5,67.1,26.7,63.7,26.7z"/>
			
				<linearGradient id="SVGID_00000003088652845359260890000006711404343369993912_" gradientUnits="userSpaceOnUse" x1="76.0488" y1="724.5329" x2="69.0152" y2="724.5329" gradientTransform="matrix(1 0 0 1 0 -691.8343)">
				<stop  offset="0" style="stop-color:#FFFFFF"/>
				<stop  offset="0.1717" style="stop-color:#FBFBFB"/>
				<stop  offset="0.3497" style="stop-color:#EEEEEF"/>
				<stop  offset="0.5305" style="stop-color:#DADADA"/>
				<stop  offset="0.7134" style="stop-color:#BDBDBD"/>
				<stop  offset="0.896" style="stop-color:#989898"/>
				<stop  offset="1" style="stop-color:#7F7F80"/>
			</linearGradient>
			<path style="fill:url(#SVGID_00000003088652845359260890000006711404343369993912_);" d="M69.8,32.9v5.8c0.3,0,0.7-0.2,0.9-0.5
				c1-1.9,3.1-3.1,5.3-3.1v-8.3C72.6,26.7,69.8,29.5,69.8,32.9z"/>
			<circle class="st0" cx="74.8" cy="53.1" r="1"/>
		</g>
	</g>
</g>
</svg>
