<svg enable-background="new 0 0 155 155.1" viewBox="0 0 155 155.1" xmlns="http://www.w3.org/2000/svg" xmlns:xlink="http://www.w3.org/1999/xlink"><linearGradient id="a" gradientUnits="userSpaceOnUse" x1="82.282" x2="59.7793" y1="57.757" y2="62.4893"><stop offset="0" stop-color="#7f7f80"/><stop offset=".1788" stop-color="#909091"/><stop offset=".5331" stop-color="#bcbcbd"/><stop offset="1" stop-color="#fff"/></linearGradient><radialGradient id="b" cx="82.9215" cy="33.7926" gradientUnits="userSpaceOnUse" r=".2955"><stop offset="0" stop-color="#84b7e3"/><stop offset="1" stop-color="#2953a3"/></radialGradient><linearGradient id="c" gradientUnits="userSpaceOnUse" x1="87.5518" x2="94.5841" y1="55.8846" y2="50.443"><stop offset="0" stop-color="#7f7f80"/><stop offset=".1381" stop-color="#989899"/><stop offset=".4107" stop-color="#c4c4c5"/><stop offset=".6551" stop-color="#e4e4e5"/><stop offset=".8599" stop-color="#f8f8f8"/><stop offset="1" stop-color="#fff"/></linearGradient><linearGradient id="d"><stop offset="0" stop-color="#fff"/><stop offset=".1717" stop-color="#fbfbfb"/><stop offset=".3497" stop-color="#eeeeef"/><stop offset=".5305" stop-color="#dadada"/><stop offset=".7134" stop-color="#bdbdbd"/><stop offset=".896" stop-color="#989898"/><stop offset="1" stop-color="#7f7f80"/></linearGradient><linearGradient id="e" gradientUnits="userSpaceOnUse" x1="63.8716" x2="69.7877" xlink:href="#d" y1="32.6986" y2="32.6986"/><linearGradient id="f" gradientUnits="userSpaceOnUse" x1="76.0488" x2="69.0152" xlink:href="#d" y1="32.6986" y2="32.6986"/><g fill="#3f3f3f"><path d="m81.9 99.1c.8 1.4 1.4 2.6 1.5 3.6l.1.6.5-.3c1.1-.7 1.7-1.7 1.7-2.6 0-.8-.4-1.8-1.3-2.6-.8-.8-2.1-1.7-3.9-2.4l-.1-.1-1 .8.3.3c.5.3 1.4 1.3 2.2 2.7z"/><path d="m89 117.3c-.8-.1-1.7-.6-2.4-1 2.5-1 4.6-2.2 5.8-3.6 1.3-1.3 2.1-2.9 2.6-4.9 1.3 1.1 2.5 2.5 3.6 4 1.4 1.7 2.4 3.1 2.9 4.3l.4.8.3-.8c.3-1.1.6-1.9.6-2.6 0-1.3-.6-2.4-1.7-3.5s-2.9-2.4-5.6-3.8c.1-.8.3-1.8.4-2.8h7.5c.3 0 .7-.1.8-.3.3-.3.3-.6.3-.8s-.1-.6-.4-.8c-.3-.1-.6-.3-.8-.3-.3 0-.6.1-.8.3-.3.1-.4.3-.7.3-.1.1-.4.1-.8.1h-5c0-.8.1-2.2.1-3.9l.1-2.1c0-.8-.6-1.4-1.4-1.4-.3 0-.6 0-.8.1-.4.1-.6.1-.6.3l-.1.1v1.5c0 2.4-.1 4.2-.1 5.4h-6.4c-.1 0-.4.1-.6.3-.1.1-.3.4-.3.6 0 .1 0 .3.3.6.1.1.3.3.6.3h6.3c-.1 1.8-.4 3.5-.8 4.7-.4 1.4-1.1 2.6-2.1 3.9-1 1.1-2.2 2.2-3.9 3.2l-.3.1.1.3c-.3-.1-.6-.4-.7-.7l-.1-.1v-10c0-.7-.4-1.1-1.3-1.1-.3 0-.6 0-.8.1-.3 0-.4.1-.4.1l-.7-.3v.6h-3.1c-.1 0-.4.1-.6.3-.1.1-.3.4-.3.6 0 .1.1.4.3.6.1.1.3.1.6.1h3.1v9.3c-.6.4-1.3.8-2.1 1.4-.3.1-.8.7-1.8 1.4l-.1.1v.3c0 .1.1.3.1.6.1.3.3.7.6 1 .3.4.7.6 1 .6.4 0 .8-.3 1.3-.8l1-1.3c.8-1 1.4-1.8 1.7-2.4.1-.1.3-.3.3-.3s.1 0 .1.3c.8 1.1 1.8 2.1 2.6 2.6 1 .7 2.1 1.1 3.3 1.4 1.3.3 2.8.4 4.6.4h7.9c.4 0 .6-.1.8-.3.1-.1.3-.4.4-.7s.1-.4.3-.7c.1-.1.3-.4.6-.6l1-.6h-10.3c-2.6 0-4.9-.2-6.4-.5z"/><path d="m133.2 101.7c-.3-.1-.6-.3-.8-.3h-.1c-.3 0-.4.1-.7.3 0 0-.1.1-.3.1-.1.1-.3.1-.4.3-.1.1-.6.1-.8.1h-5.3c.6-.4 1-.8 1.5-1.4.4-.3.6-.6.6-1 0-.3-.1-.6-.7-.8h4.5c.3 0 .6-.1.8-.3.3-.3.4-.6.4-.8s-.1-.6-.4-.8c-.3-.1-.6-.3-.8-.3-.3 0-.6.1-.8.3-.3.1-.4.3-.7.3-.1.1-.4.1-.8.1h-6c.1-.3.1-.4.1-.7 0-1.1-1.1-1.8-3.5-2.4h-.1l-.7.7.3.3c.7.7 1.3 1.4 1.7 2.2h-9.2c-.1 0-.4.1-.6.3-.1.1-.3.4-.3.6 0 .1.1.4.3.6.1.1.3.1.6.1h3.9l-.4.3.3.3c.8.8 1.5 1.7 1.9 2.6h-7.7c-.1 0-.4 0-.6.1-.1.1-.3.3-.3.6s.1.4.3.6c.1.1.3.1.6.1h23.8c.3 0 .7-.1.8-.3.3-.3.3-.6.3-.8-.4-.6-.4-.9-.7-1zm-17.2-2.8h7.9c-.4 1.3-.8 2.2-1.3 3.2h-4.3c.3-.3.4-.7.4-1.1-.1-.8-.9-1.5-2.7-2.1z"/><path d="m111.8 113.5h-1v.3c-.3 2.1-1.3 3.9-3.1 5.4l-.4.4.6.1c.4.1.8.3 1.3.3 1 0 1.7-.3 2.4-1 .6-.7 1-1.5 1-2.6 0-.8-.1-1.7-.6-2.6z"/><path d="m132 115.6c-.7-.7-1.9-1.4-3.5-2.1.4-.1.6-.6.6-.8v-7.7c0-.3-.1-1.1-1.3-1.1-.3 0-.6 0-.8.1-.3 0-.4.1-.4.1l-.3.1v.6h-11.3c-.1-.4-.4-.8-1.3-.8-.3 0-.6 0-.8.1-.3 0-.4.1-.4.1l-.3.1v9.2l.3.1c.1 0 .3 0 .6.1.3 0 .6.1.8.1 1.1 0 1.3-.6 1.3-1h3.9l-.6.4.3.3c.6.4 1.3 1.3 1.8 2.1.6 1 1 1.8 1.1 2.5v.3h-3.6c-.3 0-.6-.1-.8-.3-.1-.1-.3-.4-.3-.8v-2.8c0-.3-.1-1.1-1.3-1.1-.3 0-.6 0-.8.1-.3.1-.4.1-.6.1l-.3.1v3.5c0 1 .4 1.9 1.1 2.6s1.5 1.1 2.5 1.1h9.5c.4 0 .8-.1 1.1-.4s.4-.6.4-1-.1-.7-.6-1.1c-.1 0-.3-.1-.4-.4-.1-.1-.3-.3-.4-.7-.1-.3-.3-.7-.3-1.4v.1h-.6v.3c0 1.1-.1 1.5-.3 1.8-.1.3-.6.4-1 .4h-3.1c1-.7 1.5-1.5 1.5-2.4 0-1.4-1.3-2.4-3.9-3.1h6.5v.7l.3.1c.1 0 .3 0 .6.1.3 0 .4.1.7.1l-.3.3.3.3c.7.7 1.4 1.7 2.1 2.8s1.1 2.1 1.3 2.9v.4l.4-.1c.6-.3 1-.6 1.3-.8.4-.4.6-.8.6-1.4-.1-1.2-.5-2.1-1.3-2.8zm-5.9-9.4v1.8h-11.3v-1.8zm0 3.3v1.7h-11.3v-1.7z"/><path d="m25.3 100.3c0 .1 0 .3.1.4.1.6.4 2.2 2.1 1.8 0 0 .7 0 1.7-1.1.3-.4.4-.8.3-1.4-.1-.4-.6-1.1-1.3-1.8 0 0-1.1-1.3-3.3-1.4-.1 0-.3 0-.3.1l-.1.1c-.1.1-.1.3-.1.4 0 .7.6 1.8.9 2.9z"/><path d="m23.9 107.7c0 .1 0 .3.1.4.1.6.4 2.2 2.1 1.8 0 0 .7 0 1.7-1.1.3-.4.4-.8.3-1.4-.1-.4-.6-1.1-1.3-1.8 0 0-1.7-1.9-3.9-2.1-.1 0-.3 0-.3.1l-.1.1c-.1.1-.1.3-.1.4.1.7 1.2 2.3 1.5 3.6z"/><path d="m28.8 109.5c0-.1-.3-.1-.4-.1l-3.9 6.3s-.6.8-1 .8c-.1 0-.1.1-.1.1-.1.6-.4 2.2.1 3.1 0 0 .4.8 1.3 1 .6 0 1.1-.1 1.5-.4.7-.7 1-1.9 1.3-2.8.4-1.3.7-2.4 1-3.6.3-1.3.6-2.9.2-4.4z"/><path d="m48.4 97c0-.3-.4-.3-.4-.3-.7-.1-1.5-.3-2.4-.3h-.8c-.1 0-.1 0-.1.1v.3.3c.1.1.1.4.1.6h-11c0-.1-.1-.3-.1-.4-.1-.4-.4-.8-.8-1-.1-.1-.4-.1-.6.1-.3 1-.7 1.7-1.3 2.5-.3.3-.6.7-.7 1.1-.1.3-.1.6 0 .8.1.1.3.3.4.4.3.3.7.4 1 .7.3.1.4.3.7.4s.6.1.7-.1c.3-.3.4-.7.4-1.1.1-.8.3-1.7.3-2.5h10.6l-.6 1.8c0 .1 0 .3.1.3.1.1.3.3.6.3s.4-.1.6-.3c.7-.4 1.5-.8 2.2-1.4.4-.3.7-.6 1-.8.1-.1.3-.3.1-.6.1-.4 0-.8 0-.9z"/><path d="m35.6 100.3 2.4.7c.3.1.6.4.3.8-.8 1.4-3.2 4.7-7.8 5.1 0 0-.1 0-.1-.1l-.1-.3v-.1c.6-.4 4.3-3.5 4.6-5.1v-.7c0-.1.1-.3.1-.3z"/><path d="m40.4 100.7c-.1.1-.1.4 0 .6 0 .1.1.1.3.3.7.7 1.4 1.4 2.1 2.2.4.4.7 1 1.1 1.5.3.4.6 1 1.3 1.1s1.3-.3 1.7-.8c.4-.4.6-1 .4-1.5-.1-.6-.7-1-1.1-1.3-1.4-.8-2.9-1.8-4.6-2.2-.1 0-.3-.1-.4 0-.5-.1-.6 0-.8.1z"/><path d="m48.2 115.3c-.1 0-.4 0-.6 0-.6 0-1-.3-1.4-.6-1.5-1.3-3.9-4-4.9-5.1h4 1.7.7c.1 0 .1 0 .1-.1.1-.3 0-.7-.4-.8l-1.3-.7h-.1c0 .1-.4.3-.4.3-.3.1-.6.1-1 .1h-4v-1.3c.1 0 .1-.1.3-.1l.1-.3c0-.1 0-.4-.1-.4-.4-.4-1.1-1.4-2.5-1.4-.1 0-.3.1-.3.3v.1 3.2h-5c-.4 0-.8 0-1.3 0-.4 0-.8-.1-1-.1 0 .4 0 1 .1 1.1s.3.3.6.3h2.5 2.2c-.4.8-2.8 5.3-6.1 8.2-.1.1-.1.3-.1.4v.4c0 .1.1.3.3.1l.8-.1c.7-.1 1.3-.4 1.8-.8 1.3-1 3.5-2.9 5-5.3v5.1l-.3.6c0 .1-.1.3-.1.4v1.1c0 .3.1.4.3.6l.1.1 1.5 1c.3.1.7 0 .7-.3l.1-.3c.1-.4.1-.7.1-1.1v-8.3c.8 2.6 3.1 5.7 4.2 6.5 1.1 1 1.9.7 2.4.4.3-.1.8-.8 1.1-1.3.1-.1.1-.3.1-.6l.1-.8c.5-.2.3-.5 0-.5z"/><path d="m75.8 99.2-1.3-.7h-.1c-.3.1-.7.3-.7.3-.3.1-.6.1-1 .1h-7.7c.1-.1.3-.3.4-.4.3-.3.4-.8.3-1.1-.1-.4-.4-1-1.1-1.5 0 0-1-1-2.9-1.1-.1 0-.1 0-.3.1l-.1.1c-.1.1-.1.3 0 .4.1.4.6 1.3.8 2.2 0 .1 0 .3.1.4 0 .3.1.7.4 1h-9c-.4 0-.8 0-1.3 0-.4 0-.8-.1-1-.1 0 .4 0 1 .1 1.1s.3.3.6.3h2.5 3.1 15.9 1.7.7c.1 0 .1 0 .1-.1.2-.4.1-.9-.2-1z"/><path d="m57.7 104.2h12.9 1.7.7c.1 0 .1 0 .1-.1.1-.3 0-.7-.4-.8l-1.3-.7h-.1c-.3.1-.7.3-.7.3-.3.1-.6.1-1 .1h-14c-.4 0-.8 0-1.3 0-.4 0-.8-.1-1-.1 0 .4 0 1 .1 1.1s.3.3.6.3h2.5 1.2z"/><path d="m57.7 108.1h12.9 1.7.7c.1 0 .1 0 .1-.1.1-.3 0-.7-.4-.8l-1.3-.7h-.1c-.3.1-.7.3-.7.3-.3.1-.6.1-1 .1h-14c-.4 0-.8 0-1.3 0-.4 0-.8-.1-1-.1 0 .4 0 1 .1 1.1s.3.3.6.3h2.5 1.2z"/><path d="m72 110.3c-.6-.1-1.3-.3-1.9-.3h-.1c-.1 0-.1.1-.3.1-.6.3-1.1.4-1.7.4h-10.3c-.3-.1-.6-.3-1-.4-.6-.1-1-.3-1.5-.3-.4 0-.7 0-.8.1-.3.3-.1 1.1-.1 1.5v2.5c0 1.3-.1 4.2-.3 5.4v.1c0 .3 0 .6.3.8s.7.3 1 .3c.6 0 1.3-.1 1.8-.4.1 0 .3-.1.3-.3 0-.1 0-.3.1-.4h.7 3.1 8.1c0 .3 0 .6.3.8.1.1.6.3 1 .3h1.1c.3 0 .7-.1 1-.4.1-.1.3-.3.3-.6v-1.3-5.8c0-.1 0-.3 0-.6v.2c0-.1.1-.1.1-.3 0-.1 0-.3 0-.3-.2-.6-.8-.9-1.2-1.1zm-2.5 2.3v1.8 3.5.3c-.1 0-.3 0-.4 0h-11.5v-6.3h2.9 8.8.6v.7z"/><circle cx="77.5" cy="51.4" r="32.1"/></g><path d="m96.5 63.5.2-.3c-1.5-1.7-23-4.8-24.3-7.5 0-.2-.2-.3-.2-.5-1.4-3.1-2.9-5.1-4.3-6.5-1-1.2-2.2-1.9-3.2-2.2-.5-.2-.9-.3-1.4-.5-1.2-.3-2-.2-2.9 0-1.4 0-2 .5-2 .5-2.9 7.5-1.2 16.3 4.8 22.3 2.2 2.2 4.8 3.7 7.7 4.8 1 .3 1.9.7 2.9.9 1.2.2 2.2.3 3.4.3s2.4 0 3.6-.2c1-.2 2-.3 3.2-.7 2-.7 4.1-1.7 6-3.1 4.7-3.3 6.5-7.3 6.5-7.3z" fill="url(#a)"/><path d="m88.4 35.9c-.2-.2-.5-.3-.7-.3-1.4-.7-2.7-1.2-4.3-1.7-.3 0-.5-.2-.9-.2 0 .3-.2.7-.2 1.2v.5.2.3.2.2.2.2c0 .2 0 .2.2.3v.2c0 .2.2.2.2.3v.2c0 .2.2.2.2.3v.2c0 .2.2.2.2.3 0 .2.2.2.2.3l.3.3.3.3.3.3c.5.3 1.2.7 1.9.9-.3 0-.7.2-1 .3-.3.2-.7.3-1 .5 0 0 0 0-.2 0l-.2.2s0 0-.2.2v.2s0 0-.2.2l-.2.2s0 .2-.2.2l-.2.2s0 .2-.2.2l-.2.2c0 .2-.2.2-.2.3v.2s0 .2-.2.2v.2s0 .2-.2.2v.2.2.2.3.2.3.2.5c0 .3 0 .9.2 1.2 2.9-.7 5.4-1.9 7.7-3.6.3-.3.7-.3 1.2-.3h.3.3c.2 0 .2 0 .2.2l.2.2c.3.3.7.9.7 1.4 0 0 .3 3.9-1.5 7.1-.3.9-1.2 1.5-2 1.9 0 0 0 0-.2 0s0 0-.2 0h-.2s0 0-.2 0h-.2c-.2 0-.2 0-.3 0h-.2-.2c-.2 0-.3 0-.5-.2-.2 0-.3 0-.3-.2-.2 0-.2-.2-.3-.2l-.2-.2.2.2c-.2 0-.2-.2-.3-.2 0 0 0 0-.2 0l-.2-.2s-.2 0-.2-.2c0 0-.2 0-.2-.2 0 0-.2 0-.2-.2 0 0-.2 0-.2-.2 0 0-.2 0-.2-.2 0 0-.2 0-.2-.2 0 0-.2 0-.2-.2-.2-.2-.2-.2-.3-.3 0 0 0 0-.2-.2l-.2-.2s0 0-.2-.2l-.2-.2s0 0-.2-.2l-.2-.2s0 0 0-.2c-.3-.3-.7-.7-1-1.2-.3-.5-.9-1-1.4-1.7-.2-.2-.3-.3-.3-.5-.2-.2-.3-.3-.5-.5-2.7-3.1-5.4-4.6-5.4-4.6-2-1.2-4.3-1.9-6.8-1.9-2 0-4.1.5-5.8 1.4-.5.3-1.2.9-1.9 1.5-1 1.2-1.7 2.6-2.2 4.1-.2.3-.2.7-.3.9 0 .2 0 .3-.2.5l.3.6c.7-.3 1.5-.5 2.4-.5 2.6 0 4.8 1.4 5.8 3.4 0 0 .5.7 1.2 1.9s1.7 2.9 2.7 4.3c.9 1.4 1.7 2.6 2 3.2 0 0 0 .2.2.2 0 0 0 .2.2.2 2.2 3.1 5.6 7 10 9.5s.2.2.5.2c.5.3 1 .5 1.5.9 1.7.9 4.1 1.9 6.6 2.2h.2.2s0 0 0-.2c0-.2 0-.3 0-.3-1.7-2-2.9-4.6-3.4-7.3h.5.2c2.2-.2 4.3-.7 6.1-1.5h.2c.5-.2.9-.5 1.2-.9.3-.3.5-.5.7-1 1.2-2.7 2-5.6 2-8.8 0-.3 0-.9 0-1.2 0 0 0 0 0-.2 0-.3 0-.7-.2-1-.2-1-.3-2.2-.7-3.2-1-3.7-3.2-7.1-6-9.7s0 0-.2-.2c-.2-.2-.5-.3-.7-.5s0 0-.2 0c-.2-.2-.2-.2-.3-.3l-.2-.2c-.2-.2-.3-.2-.3-.3z" fill="#fff"/><circle cx="74.8" cy="53.1" fill="#fff" r="1"/><path d="m83.3 33.9c-.3 0-.5-.2-.9-.2" fill="url(#b)"/><path d="m98.1 48.3c.3 1 .5 2.2.7 3.2 0 .3 0 .7.2 1v.2 1.2c0 .7 0 1.4-.2 2-1.5.7-3.2 1.2-4.9 1.2-4.3 0-8.2-2.4-10-6 0 0 0 0 .2.2 0 0 0 0 .2.2l.2.2s0 0 .2.2l.2.2s0 0 .2.2l.3.3s.2 0 .2.2c0 0 .2 0 .2.2 0 0 .2 0 .2.2 0 0 .2 0 .2.2 0 0 .2 0 .2.2 0 0 .2 0 .2.2 0 0 .2 0 .2.2l.2.2h.2c.2 0 .2.2.3.2l-.7-.9.2.2c.2 0 .2.2.3.2.2 0 .2.2.3.2.2 0 .3 0 .5.2h.2-.3.3.2.2.2.2.2c.9-.3 1.5-1 2-1.9 1.9-3.4 1.5-7.1 1.5-7.1 0-.5-.2-1-.7-1.4z" fill="url(#c)"/><path d="m63.7 26.7v8.3c2.2 0 4.3 1.2 5.3 3.1.2.3.5.5.9.5v-5.8c-.1-3.3-2.8-6.1-6.2-6.1z" fill="url(#e)"/><path d="m69.8 32.9v5.8c.3 0 .7-.2.9-.5 1-1.9 3.1-3.1 5.3-3.1v-8.3c-3.4-.1-6.2 2.7-6.2 6.1z" fill="url(#f)"/><circle cx="74.8" cy="53.1" fill="#3f3f3f" r="1"/></svg>