<svg enable-background="new 0 0 83.6 84" viewBox="0 0 83.6 84" xmlns="http://www.w3.org/2000/svg" xmlns:xlink="http://www.w3.org/1999/xlink"><linearGradient id="a" gradientTransform="matrix(.3125 0 0 -.3125 -123.6055 -101.4789)" gradientUnits="userSpaceOnUse" x1="500.5779" x2="771.2963" y1="-476.8879" y2="-309.0922"><stop offset="0" stop-color="#601531"/><stop offset="1" stop-color="#cb715d"/></linearGradient><path d="m9.5 51.2s.2-2.1-.5-2.8c-.2-.5-1.2-2.3-1.1-3.7-.1.1-2.2 5.3-2.4 7.3 0 .7 0 1.8 1.5 3.1.5.5 1.8 2 1.8 2.7 0 .1.3.1.3.1s.5-1.3 2.5-2.5c.6-.4 1.3-.7 1.8-2.7.1-.7.4-2.5 1.4-4.5-.1 0-1.9.9-2.7 1.4-.3.1-1.8.7-2.2 1.6-.1.1-.3.2-.4 0z" fill="#fff"/><path d="m12.8 55.4s-1 1.5-2.3 2.2c-.2.2-1.3 1.2-1.5 2.3-.1 0-.3-.1-.3-.1s0-1.3-.8-2c-.4-.4-1.8-2.3-2-2.6-.3-.3-.4-.8-.7-1.4 0 0-.7 5.5-.4 7.2 0 0 .3 1.5 1.9 2.7.5.4 1.8 1.3 2.6 2.4.1 0 .7-1.7 1.7-2.6.3-.4 1-1.2 1.3-1.7.2-.3.6-.1.5-6.4z" fill="#fff"/><path d="m12.4 74.7s-2.9-1.9-4-2c-.4-.2-1.8-.6-2.5-4.3-.4-2.1-.9-5.3-.9-5.3s.1-.1.2 0c.1.2.5 1.4 1.9 2.5.5.3 2.2 1.5 2.7 2.9.1.1.3 0 .3 0s-.2-1.4 1-2.9c.4-.6 1.3-1.2 1.7-2.6.1 0 .2-.1.2.1 0 .1.1 2.2.6 3.4.1.5 1 2.1.3 4-.2.7-.9 2-1 2.5-.2.4-.5 1.1-.5 1.7z" fill="#fff"/><path d="m32 75.5s-3.3.1-5.1 1.5c-.3.1-1.4.5-3-.7-.5-.2-4.6-2.8-5.1-3.2 0-.2 1.8.2 3-.2.8-.2 2.9-.3 4 .3 0 0 .3-.2.1-.4s-1.6-.8-1.8-3c-.1-1-.3-2.6-.3-2.8.1-.1 2.3 1.8 4.1 2.6.4.3 2.4 1.1 2.5 3-.1.3-.2.9 1.6 2.9z" fill="#fff"/><path d="m30.3 70.7s1.4 2 1.8 3.2c.2.4.8 1.4 1.9 2.2v.2s-2.1-.1-3.4.5c-.4.2-2.2 1-3.6 1 .1.2 2.4 1.5 6 2.1.7.2 1.7.6 3.2-.3.6-.3 2-2.1 3.8-2.5.1-.1-1.9-1.7-2.3-2.8-.2-.3-.9-1.8-3-2 0 0-3.3-.7-4.1-1.5-.2-.1-.2-.1-.3-.1z" fill="#fff"/><path d="m36.4 80.5s6.8.6 8 .2c.5-.2 1.5-.7 2.5-2.7.3-.3 1-1.4 1.6-1.7 0-.2-.4-.2-1.3-.8-.6-.4-2.3-1.8-2.8-2.2 0 0-1.5-.6-3.3-.4-.7 0-3-.1-3.7-.3.2.3 1.4.9 2.5 2.6.6.6 1.4 1.4 2.6 1.8 0 .1.1.2 0 .2s-1.8-.1-3.3 1.3c-.5.2-2 1.8-2.8 2z" fill="#fff"/><path d="m44.9 72.7s1.8 0 2.9-.3c.4-.1 2.3-.7 3.3-.9.5 0 1.3-.2 3.9 1.6.3.1 1.3.2 1.3.2s0 .1 0 .2-1.1 1.2-1.1 2.4c0 .3-.2 2.4-1.8 3-.6.2-3.3 1.3-7.1 1.7-.1-.1.1-.2.7-.9s1.7-2.5 2.3-2.9c.7-.4 1.9-.8 2-.9s0-.3-.1-.3-1.6.4-3.3-.8c-.4-.2-1.9-1.6-2.3-1.7-.3 0-.6-.2-.7-.4z" fill="#fff"/><path d="m63.5 68.3s-1.3.2-3-.3c-.6-.1-2-.7-3.7.4-.6.3-3.3 2.1-4.6 2.3.1.2.3.3.4.3s1.7.3 2.6.9c.3.2 2 .6 2.6.5 0 .2-1.4 1.6-1.3 2.7-.1.3-.7 2.2-1.4 2.9.3 0 4.3-1.6 6.1-3 1-.7 1.5-.8 1.7-2.8.1-1.8 0-2.5.2-2.9s.4-.9.4-.9.1 0 0-.1z" fill="#fff"/><path d="m83.6 42c0 23.1-18.7 41.8-41.8 41.8s-41.8-18.7-41.8-41.8 18.7-41.8 41.8-41.8 41.8 18.7 41.8 41.8z" fill="url(#a)"/><path d="m25.9 12.6s.8-.4 1.8-2.5c0 0 1.3-2.6 4.6-2.9.7 0 2.4-.1 6.5 0-.3.3-3 2.1-4.3 3.8-.3.4-1.8 2-4 2-2.3-.3-2.9-.5-4.6-.4z" fill="#fff"/><path d="m19.3 17.5s1.7-.5 4.4.2c0 0 1.2 0 1.4-.1s4.6-2.8 5.6-3c0 0 .3-.1-1.5-.4-.7-.1-2.8-1.1-5.1-.3 0-.3 0-.5.1-.6.2-.1 1.4-.3 2-2.8.2-.4 1.2-2.5 1.8-3.1-.2 0-5.4 1.9-6.9 4-.1.3-.5.8-.8 3.4-.3.6-.1 1.6-1 2.7z" fill="#fff"/><path d="m19.8 11.7s-5.1 4-5.5 5c0 0-1.1 1.7-.6 4.3.1.9.2 2.5.2 2.9.7-.3 2.9-.9 4.6-1.2 0 0 1.6-.3 3-2.2.4-.4 2.1-2 2.6-2.2 0 0-5-1-6.4.8-.2.1-.3-.1-.3-.1s.9-.7 1.3-2c0 0 .2-1.4.3-2.7.3-.9.9-2.5.8-2.6z" fill="#fff"/><path d="m10.3 31.6s-.4-2.3-1.6-4.5c-.1-.4-.6-1.9.8-3.8.6-1.1 3.2-4.7 3.2-4.7s-.1 2.6.1 3.4.4 2.5-.5 4.4c.1.1.4.1.4.1s.4-1.7 2-2.1c.6-.1 2.8-.5 4.3-1.4 0 .3-2.2 2.8-2.8 4.2-.2.4-.8 2.3-3.1 2.7-.4.3-2.1.7-2.8 1.7z" fill="#fff"/><path d="m9.5 33.2s.2-2.1-.5-2.8c-.2-.5-1.2-2.3-1.1-3.7-.1.1-2.2 5.3-2.4 7.3 0 .7 0 1.8 1.5 3.1.5.5 1.8 2 1.8 2.7 0 .1.3.1.3.1s.5-1.3 2.5-2.5c.6-.4 1.3-.7 1.8-2.7.1-.7.4-2.5 1.4-4.5-.1 0-1.9.9-2.7 1.4-.3.1-1.8.7-2.2 1.6-.1.1-.3.2-.4 0z" fill="#fff"/><path d="m12.8 37.5s-1 1.5-2.3 2.2c-.2.1-1.3 1.2-1.5 2.3-.1 0-.3-.1-.3-.1s0-1.3-.8-2c-.4-.4-1.8-2.3-2-2.6s-.4-.8-.6-1.3c0 0-.7 5.5-.4 7.2 0 0 .3 1.5 1.9 2.7.5.4 1.8 1.3 2.6 2.4.1 0 .7-1.7 1.7-2.6.3-.4 1-1.2 1.3-1.7.1-.5.5-.3.4-6.5z" fill="#fff"/><path d="m12.4 56.7s-2.9-1.9-4-2c-.4-.2-1.8-.6-2.5-4.3-.4-2-.9-5.3-.9-5.3s.1-.1.2 0c.1.2.5 1.4 1.9 2.5.5.3 2.2 1.5 2.7 2.9.1.1.3 0 .3 0s-.2-1.4 1-2.9c.4-.6 1.3-1.2 1.7-2.6.1 0 .2-.1.2.1 0 .1.1 2.2.6 3.4.1.5 1 2.1.3 4-.2.7-.9 2-1 2.5-.2.4-.5 1.1-.5 1.7z" fill="#fff"/><path d="m17.1 63.2s-.8-.6-3.9-.6c-.4 0-2.6-.4-3.3-2.6-.4-.6-1.3-2.5-2.6-5.3.1-.1.2 0 .2 0s.8 1.2 2.3 1.6c.7.2 2.9.8 3.4 1.9.1 0 .2-.2.2-.2s-.5-1.8.6-3.6c.1-.4.6-1.2.8-2.2.1 0 1.7 3.3 2.3 4.4 0 0 1.1 1.7.6 3-.1.5-.9 1.7-.6 3.6z" fill="#fff"/><path d="m23.8 69s-2.3-.3-3.6.3c-.3.1-2.6.3-3.8-1-.3-.3-3.8-3.7-4.3-4.8.1-.1.7.5 2.2.4 1.1 0 3.5.2 4.1 1.1h.3s0-.3-.1-.6-.7-2.3-.1-3.7c.1-.6 0-1.3-.2-2.2.1 0 1.3 1.6 2.1 2.4.7.8 3 2.7 2.7 3.9 0 .5 0 1.3.2 2.5.1.7.3 1.5.5 1.7z" fill="#fff"/><path d="m32 72.7s-3.3.1-5.1 1.5c-.3.1-1.4.5-3-.7-.5-.2-4.6-2.8-5.1-3.2 0-.2 1.8.2 3-.2.8-.2 2.9-.3 4 .3 0 0 .3-.2.1-.4s-1.6-.8-1.8-3c-.1-1-.3-2.6-.3-2.8.1-.1 2.3 1.8 4.1 2.6.4.3 2.4 1.1 2.5 3-.1.3-.2.9 1.6 2.9z" fill="#fff"/><path d="m30.3 67.9s1.4 2 1.8 3.2c.2.4.8 1.4 1.9 2.2v.2s-2.1-.1-3.4.5c-.4.2-2.2 1-3.6 1 .1.2 2.4 1.5 6 2.1.7.2 1.7.6 3.2-.3.6-.3 2-2.1 3.8-2.5.1-.1-1.9-1.7-2.3-2.8-.2-.3-.9-1.8-3-2 0 0-3.3-.7-4.1-1.5-.2-.1-.2-.1-.3-.1z" fill="#fff"/><path d="m36.4 77.7s6.8.6 8 .2c.5-.2 1.5-.7 2.5-2.7.3-.3 1-1.4 1.6-1.7 0-.2-.4-.2-1.3-.8-.6-.4-2.3-1.8-2.8-2.2 0 0-1.5-.6-3.3-.4-.7 0-3-.1-3.7-.3.2.3 1.4.9 2.5 2.6.6.6 1.4 1.4 2.6 1.8 0 .1.1.2 0 .2s-1.8-.1-3.3 1.3c-.5.2-2 1.8-2.8 2z" fill="#fff"/><path d="m44.9 69.9s1.8 0 2.9-.3c.4-.1 2.3-.7 3.3-.9.5 0 1.3-.2 3.9 1.6.3.1 1.3.2 1.3.2s0 .1 0 .2-1.1 1.2-1.1 2.4c0 .3-.2 2.4-1.8 3-.6.2-3.3 1.3-7.1 1.7-.1-.1.1-.2.7-.9s1.7-2.5 2.3-2.9c.7-.4 1.9-.8 2-.9s0-.3-.1-.3-1.6.4-3.3-.8c-.4-.2-1.9-1.6-2.3-1.7-.3 0-.6-.2-.7-.4z" fill="#fff"/><path d="m63.5 65.5s-1.3.2-3-.3c-.6-.1-2-.7-3.7.4-.6.3-3.3 2.1-4.6 2.3.1.2.3.3.4.3s1.7.3 2.6.9c.3.2 2 .6 2.6.5 0 .2-1.4 1.6-1.3 2.7-.1.3-.7 2.2-1.4 2.9.3 0 4.3-1.6 6.1-3 1-.7 1.5-.8 1.7-2.8.1-1.8 0-2.5.2-2.9s.4-.9.4-.9.1 0 0-.1z" fill="#fff"/><path d="m69 58.6s-1.4.7-2.6.9c-.5.1-2.2-.2-2.8.4-.2.2-3.7 3.8-4.7 4.2.1.1 1.8-.1 2.3.2.3.1.6.5 3.5.1 0 .3-.4 1.2-.6 1.8-.1.3-.3.3-.4 4.1.1 0 4.3-3.5 4.8-4.5.3-.6.7-.8.7-2.4-.1-.5-.5-2.2-.4-3.3.1-.6.3-1.4.2-1.5z" fill="#fff"/><path d="m64.3 58.8c.9-1.1 1.8-2.3 2.7-4.2.4-1 .9-1.6 2.7-2.5.8-.3 2.6-.8 3.1-1.5.2.2.4 2.1 1.3 2.9.3.5 1.3 1.9.3 3.6-.2.5-2.8 5.6-4.3 7.1-.1-.2-.6-3.5-.2-5.2.1-.6.3-1.4.7-2-.1 0-1.3 1.1-2.9 1.2-.5.1-3.1.7-3.4.6z" fill="#fff"/><path d="m73.5 48s-.7 1.8-2.7 2.5c-.3.1-1.9.7-2.3 1.3 0-.3.9-2.1 1.1-4.2.2-1 .5-1.8 1.5-2.9.9-.7 2.2-1.3 2.9-2.5.2-.5.2-2.3.2-2.3h.4v2.2c.1.2.1.8.7 1.3.2.3 2.1 2.5 2 3.3.1.6.2 4-1.9 8.2-.1-.1-.3-1.8-1-3.1-.3-.3-.8-1.1-.8-2.1s0-1.7-.1-1.7z" fill="#fff"/><path d="m41.6 30.6s-3-.1-3.6-2.8c-.2-.8-.3-1.9.4-3.6 1.7-2.1 2.2-2.9 2.4-3.3.3-.5.5-1.4-.3-2.4 0 0 1.3.4 2.1 2 .1.5.5 2.3-.5 3.3-.3.4-1.6 2.1-1.6 2.9-.2.9-.2 1.7.9 3.3.3.5.2.6.2.6z" fill="#fff"/><path d="m43.9 20.7c.6 3.9-1 3.9-2.1 6.3-.1.4-.7 2.4 1.8 3.7 0-.1-.5-1.6.6-2.6.7-.7 1.9-1.8 2.4-2.9.1-.8 0-3-2.7-4.5z" fill="#fff"/><path d="m47.2 26.3s0 1-.1 1.5c-.5 1.3-1.9 1.5-1.8 2.7 0 0-1.6.2-.7-1.3.9-1.1 1.4-1.1 2.6-2.9z" fill="#fff"/><path d="m36.2 32.4h12.8v1.4h-12.8z" fill="#fff"/><path d="m37 34.5h11v1.6h-11z" fill="#fff"/><path d="m36.3 36.9h12.5v1.2h-12.5z" fill="#fff"/><path d="m38 38.8h8.7l-1.9 12h-5.2z" fill="#fff"/><path d="m39 39.9h1.7l.5 9.4h-.7l-.5-8.8h-1z" fill="#712f49"/><path d="m41.2 39.9h1.7v9.4h-.7v-8.8h-1z" fill="#712f49"/><path d="m43.6 39.9h1.6l-.8 9.4h-.7l.7-8.8h-.8z" fill="#712f49"/><g fill="#fff"><path d="m38.8 51.7h6.7v.9h-6.7z"/><path d="m39.2 53.3h6v.4h-6z"/><path d="m38.8 54.5h6.8v.8h-6.8z"/><path d="m39.5 56h5.3c-.4.6-.5.8-.6 3.3-.3 0-3.3 0-3.8 0 .1-2.3-.2-2.9-.9-3.3z"/><path d="m41.6 60.1h1.6s-.4 1.4-.3 2.9c-.2 0-.9 0-.9 0s.2-1.6-.4-2.9z"/><path d="m47.5 41.1s6.5 1.2 7.9 7.4c.1 1.1.7 4.9-1.8 8.5h1.1c.3-.7.7-1 1.4-1 0 0 .3 0 .4-.2 0-.2.2-.6-.5-.6 0-.3.3-1.1.4-1.4.1 0 .8-.1.8-.1l.1-.8-.5-.1s0-1 0-1.4c.1 0 .9 0 .9-.2s.3-.8-.8-1c0 0-.3-.9-.1-1.1.2-.1.7 0 .7-.3s.2-.9 0-1c-.2 0-.9 0-1.2-.2-.1-.3-.4-.9-.1-1.1.3-.1.7-.4.7-.7-.1-.3-.7-.5-1.5-.5-.1-.1-.4-.5-.2-.9.3-.2.7-.7 0-1-.2 0-.6.3-.8.2-.2 0-1-.5-.9-.8 0-.3.4-.6.4-.9s-.4-.8-.6-.7-.6.6-1.2.5c-.3-.1-.8-.5-.6-1 .1-.5-.2-.9-.6-.8-.3.1-.3.5-.5.7-.3 0-.9.1-1.2-.5 0-.4 0-.9-.2-1-.6-.2-1.6-.6-1.5 2z"/><path d="m51.8 57.5c9.1-11-3.8-16.5-4.5-15.9 0 0-.1 1.6-.2 1.8.1-.6 11.9 4.4 2.9 14.1z"/><path d="m46.9 44c-.1.2-.6 3.3-.7 3.9 1.1-.3 4.8 3.4.1 5.7 1 .6 1.1 2 .8 2.6 0 0-1 .4-1.6.4 0 .4-.1.4-.1.8 7.3.2 10.8-10.8 1.5-13.4z"/><path d="m46 48.6s-.4 2-.3 2.2.7.1.7.3c.1.2.3 1 .1 1.3 1.4-.3 2.1-3.4-.5-3.8z"/><path d="m37.9 46.4c-1.3-.6-3.6-2-5.5.8 2 1.4 4.8-.2 5.5-.8z"/><path d="m36.5 48s-1.3-.3-1.8 1.6c-.2.7-.5 1.8-1 2.5.4 0 1.4 0 2.7-1.8.2-.3.3-1.7.1-2.3z"/><path d="m34.5 48.5s0 2-2.5 2.3c-.6.1-2.5.3-2.8.3.6-.4 1.5-1.1 2.4-2.2.6-.6 1.2-.7 2.9-.4z"/><path d="m32.7 51.3s-.1 1.8-3.2 2.6c.5-.6 1-1.2 1.4-2 .4-.5.9-.6 1.8-.6z"/><path d="m29.9 54.3s0 .9.7 2.1c.4-.4 1-1 1-2.7-.3 0-1.3.2-1.7.6z"/><path d="m34.8 52.4s.7-.3.9-.5c.1.7-.1 2.1-.3 2.5-.2-.1-.1-1.3-.6-2z"/><path d="m24.3 48.7c1.6-.7 3.3-1.9 5.4.3-.3.3-.7.9-2.5.5-.7-.4-1.4-.9-2.9-.8z"/><path d="m23.4 52.6s1.2-1 2.4-1.9c.6-.3 2.3-.6 2.6.1-.1.4-.5 1.1-2.1 1.5-.6 0-1.5.1-2.9.3z"/><path d="m26.5 53.1s-1.8 1.3-3.6 1.8c.1.2.5.3.8.3s1.4-.4 2-.7c.6-.2.9-.6.8-1.4z"/><path d="m29.3 51.6s-1.7-.2-2.3 1.8c-.1.8-.3 2.3-.4 2.8.5-.2 1.3-.7 1.9-1.3.1-.3-.3-.2-.4-.4s0-.7.5-.8c.6-.3.8-.6.7-2.1z"/><path d="m36.9 39h.4v6.7h-.4z" transform="matrix(.9629 -.27 .27 .9629 -10.0709 11.5773)"/><path d="m36 39h.4v6.3h-.4z" transform="matrix(.9458 -.3247 .3247 .9458 -11.7263 14.022)"/><path d="m34.6 39.2h.4v5.5h-.4z" transform="matrix(.903 -.4296 .4296 .903 -14.6449 19.0343)"/><path d="m33.7 39.5h.4v5.3h-.4z" transform="matrix(.8525 -.5228 .5228 .8525 -17.0346 23.9482)"/><path d="m32.7 40h.4v5h-.4z" transform="matrix(.7971 -.6039 .6039 .7971 -18.9767 28.512)"/><path d="m32 40.3h.4v5.1h-.4z" transform="matrix(.7475 -.6643 .6643 .7475 -20.3587 32.2137)"/><path d="m31.3 40.9h.4v4.9h-.4z" transform="matrix(.7133 -.7009 .7009 .7133 -21.3807 34.5318)"/><path d="m30.6 41.4h.4v5.1h-.4z" transform="matrix(.6703 -.7421 .7421 .6703 -22.4775 37.3014)"/><path d="m29.9 42h.4v5.1h-.4z" transform="matrix(.6319 -.775 .775 .6319 -23.4133 39.7318)"/><path d="m29.4 42.7h.4v5.1h-.4z" transform="matrix(.5491 -.8357 .8357 .5491 -24.4762 45.1446)"/><path d="m29 43.5h.4v5.1h-.4z" transform="matrix(.4898 -.8718 .8718 .4898 -25.2416 48.9004)"/><path d="m28.6 44.3h.4v5h-.4z" transform="matrix(.4375 -.8992 .8992 .4375 -25.8736 52.2082)"/><path d="m28.3 45h.4v4.7h-.4z" transform="matrix(.4156 -.9096 .9096 .4156 -26.4228 53.5436)"/><path d="m26.6 46.6h.4v1.8h-.4z" transform="matrix(.4719 -.8816 .8816 .4719 -27.7575 48.6878)"/></g><path d="m47.7 45s1.4-.1 1.6 1c-.1.4-1.2 1.7-1.5 1.8-.4.1-1.2-.3-1.1-.5 0-.4.5-1.8 1-2.3z" fill="#712f49"/><path d="m49 49s1.3-.2 2.1-.9c.1-.3-.1-1.2-.7-1.4-.3.1-1.8 1-1.8 1.4-.2.3 0 .6.4.9z" fill="#712f49"/><path d="m51.6 49.5s.4 1.3-.3 1.7c-.4.1-1.9.2-2.1-.1-.1-.3-.5-1 .4-1.5.9-.2 1.9-.1 2-.1z" fill="#712f49"/><path d="m49.4 51.7s2.3.5 1.6 1.4c-.1.4-.3.8-1.2.6-.4-.2-1.9-1-.4-2z" fill="#712f49"/><path d="m48.2 53.3s2.4 1.7.7 2.3c-.6.4-2.3-1.6-.7-2.3z" fill="#712f49"/><path d="m48.3 46s-.8.8-.8 1.1.5-.1.7-.4c.3-.3.1-.7.1-.7z" fill="#fff"/><path d="m49.8 50.3s1.2-.1 1.2 0 .2.5 0 .5c-.3 0-1.6.2-1.2-.5z" fill="#fff"/><path d="m49.2 52.4s1 .5 1 .7c-.1.2-1.3.2-1-.7z" fill="#fff"/><path d="m47.9 54s.8.9.6.9c-.2.1-.8-.1-.6-.9z" fill="#fff"/><path d="m50.1 47.7s-.9.5-1 .7.9.1 1-.7z" fill="#fff"/><path d="m246.1 62.9c0-2.6 0-5 0-7.4-.6-.2-1.1-.4-1.7-.6 0-.4 0-.9 0-1.4h5.6v1.5c-.4.2-.8.3-1.3.5v13.6c-.7 0-1.4 0-2.1 0-2.5-3.1-5-6.3-7.7-9.5v7.6c.5.2 1 .4 1.6.6v1.3c-2 0-3.9 0-5.9 0 0-.4 0-.8 0-1.3.5-.2 1.1-.3 1.8-.6 0-.4 0-.8 0-1.1 0-2.9-.1-5.8 0-8.7 0-1.1-.5-1.8-1.3-2.2-.2-.1-.4-.2-.7-.3 0-.4 0-.9 0-1.4.9-.1 1.8 0 2.6-.1 1.2-.1 1.9.3 2.6 1.2 1.9 2.6 3.9 5 5.9 7.5.1.3.3.5.6.8z" fill="#601531"/><path d="m142.5 61.1c0-1.1.2-2.2.6-3.3.9-2.5 2.7-4.1 5.4-4.5 1.5-.3 3.1-.2 4.5.4 2.5 1.2 3.8 3.3 4.2 5.9.3 1.6.2 3.1-.3 4.6-1.3 4-5.1 5.4-8.3 4.9-3.2-.6-5-2.7-5.8-5.7-.1-.7-.2-1.5-.3-2.3zm11 1.1c0-.3 0-.6 0-.9-.1-1.3-.3-2.5-.8-3.6-.7-1.4-1.8-2.3-3.4-2.3-1.3 0-1.8.4-2.2 1.7-.8 2.6-.7 5.1.2 7.7.1.3.3.7.5.9.8 1.3 1.9 1.8 3.4 1.7.8-.1 1.2-.3 1.6-1 .5-1.4.7-2.8.7-4.2z" fill="#601531"/><path d="m219.1 61.1c0-1.3.3-2.6.8-3.8 1.1-2.5 3-3.8 5.7-4.1 2.2-.3 4.2.2 5.8 1.7 1.2 1.1 1.9 2.5 2.3 4.1.4 1.8.3 3.6-.3 5.3-1.3 3.9-5 5.3-8.2 4.8s-5-2.7-5.8-5.7c-.2-.7-.2-1.4-.3-2.3zm10.9 1.1c0-.3 0-.6 0-.9-.1-1.3-.3-2.5-.8-3.6-.7-1.5-2.1-2.3-3.6-2.3-1.1.1-1.8.5-2.1 1.6-.8 2.6-.7 5.1.2 7.7.1.3.3.7.5.9.8 1.3 1.9 1.8 3.4 1.7.8-.1 1.2-.3 1.6-1 .7-1.3.8-2.7.8-4.1z" fill="#601531"/><path d="m104.4 67.1c.6.2 1.1.4 1.7.6v1.3c-2 0-4 0-6 0 0-.4 0-.8 0-1.3.1-.1.1-.1.2-.1 1.9-.6 1.4-.3 2.1-2.1 1.4-3.8 2.7-7.7 4.1-11.6.1-.2.2-.4.3-.6h4c.1.3.3.6.4.9 1.3 3.8 2.7 7.7 4 11.5.3 1 .8 1.7 1.9 1.8.1 0 .2.1.3.1v1.3c-2.4 0-4.8 0-7.3 0 0-.4 0-.8 0-1.3.5-.2 1.1-.3 1.7-.6-.3-.9-.6-1.8-.9-2.8-1.8 0-3.5 0-5.3 0-.6 1.1-.9 1.9-1.2 2.9zm5.6-4.8c-.7-2.1-1.3-4-1.9-5.9-.1 0-.1 0-.2 0-.6 1.9-1.3 3.9-1.9 5.8 1.3.1 2.5.1 4 .1z" fill="#601531"/><path d="m197.3 67.8v1.2c-.8.2-6.2.3-7.4.1 0-.1-.1-.3-.1-.4 0-.3 0-.6 0-.9.6-.2 1.1-.4 1.8-.6-.3-.9-.6-1.8-.9-2.8-1.8 0-3.5 0-5.3 0-.3.9-.6 1.8-.9 2.8.6.2 1.1.4 1.7.6v1.3c-2 0-4 0-6 0 0-.4 0-.8 0-1.3 0 0 .1-.1.1-.1 1.9-.6 1.5-.2 2.1-2.1 1.4-3.8 2.7-7.7 4-11.5.1-.2.2-.4.3-.6h4c.1.3.3.6.4.9 1.3 3.8 2.7 7.7 4 11.5.3 1 .8 1.7 1.8 1.8.2-.1.2 0 .4.1zm-11.2-5.4h2 2c-.6-2.1-1.2-4-2.1-5.8-.6 1.8-1.3 3.7-1.9 5.8z" fill="#601531"/><path d="m128.3 54.2v4.2c-.8 0-1.5 0-2.3 0-.2-.7-.4-1.3-.6-2-.1-.5-.4-.8-.9-.9-.4-.1-.8-.2-1.2-.2-.8-.1-1.3.2-1.6.8-.4.7-.4 1.4.2 2 .3.4.8.7 1.3.9.8.4 1.6.7 2.4 1 .5.2 1 .5 1.5.8 2.4 1.4 2.4 4.6 1 6.3-1.1 1.3-2.6 1.9-4.3 2.1-2 .2-3.8-.3-5.5-1.3 0-1.2 0-2.3 0-3.6h2.2c.2.7.3 1.3.5 2.1.9.7 2.1.9 3.2.9.3 0 .6-.2.8-.4.9-.9.8-2.5-.3-3.2-.5-.4-1.1-.6-1.7-.9-.8-.4-1.7-.7-2.5-1-3.4-1.5-3.2-5.6-.6-7.4 2-1.3 4.2-1.4 6.4-.8.8.1 1.4.4 2 .6z" fill="#601531"/><path d="m140.6 54.2v4.2c-.8 0-1.5 0-2.3 0-.2-.7-.4-1.3-.6-2-.1-.4-.3-.7-.8-.8-.4-.1-.8-.2-1.2-.3-.8-.2-1.3.2-1.7.9-.3.7-.3 1.4.2 2 .3.3.8.6 1.2.8.8.4 1.7.7 2.5 1.1.5.2 1 .5 1.5.8 2.3 1.3 2.4 4.3 1 6.1-1 1.3-2.3 1.9-3.8 2.1-2.2.4-4.2-.1-6.1-1.3 0-1.2 0-2.4 0-3.6h2.2c.2.7.3 1.4.5 2.1 1 .7 2.1.9 3.2.9.6 0 1.1-.4 1.3-1.1.3-.9 0-2-.8-2.5-.5-.3-1-.6-1.6-.8-.8-.4-1.7-.7-2.5-1-3.4-1.5-3.3-5.7-.6-7.5 1.7-1.2 3.6-1.3 5.5-1 1.1.2 2 .6 2.9.9z" fill="#601531"/><path d="m201.1 67.2c0-3.9 0-7.7 0-11.6-.7 0-1.3 0-2 0-.3.9-.5 1.8-.8 2.8-.7 0-1.3 0-2.1 0 0-1.7 0-3.3 0-4.9h13.6v2.5 2.4c-.7 0-1.4 0-2.2 0-.2-.9-.4-1.8-.7-2.8-.7 0-1.4 0-2.1 0-.2.7-.3 9.3-.1 11.6.5.2 1.1.4 1.7.6v1.3c-2.4 0-4.7 0-7.1 0 0-.4 0-.8 0-1.3.7-.2 1.2-.4 1.8-.6z" fill="#601531"/><path d="m169.9 64.9c.4.3.8.5 1.1.8-1.2 2.2-2.9 3.5-5.3 3.6-2.5.2-4.6-.8-6.1-2.9-1.3-2-1.5-4.2-1.2-6.5.3-1.7.9-3.2 2.1-4.5 1.3-1.3 2.8-2.1 4.6-2.2s3.5.1 5.1.9v4.2c-.8 0-1.5 0-2.3 0-.2-.8-.5-1.7-.7-2.5-1-.5-2-.6-3-.4-.3 0-.6.3-.7.5-.7.9-1 1.9-1.1 3-.2 1.5-.2 3.1.2 4.6.1.5.3 1 .6 1.4 1.1 2.4 4.4 2.7 6 .8.3-.2.5-.5.7-.8z" fill="#601531"/><path d="m212.5 55.4c-.5-.2-1.1-.4-1.6-.6 0-.4 0-.9 0-1.4h7.1v1.4c-.3.1-.5.2-.8.3s-.5.2-.8.3v11.8c.5.2 1.1.4 1.7.6v1.2c-2.3 0-4.7 0-7.1 0 0-.4 0-.8 0-1.3.5-.2 1-.3 1.6-.5-.1-3.9-.1-7.8-.1-11.8z" fill="#601531"/><path d="m173.7 55.4c-.5-.2-1-.4-1.6-.6 0-.4 0-.9 0-1.4h7.1v1.4c-.5.2-1 .3-1.7.6v11.8c.5.2 1 .4 1.7.6v1.2c-2.4 0-4.7 0-7.1 0 0-.4 0-.8 0-1.2.5-.2 1.1-.3 1.7-.5-.1-4-.1-7.9-.1-11.9z" fill="#601531"/><path d="m133.6 13.9c-1.5 3.5-3 7-4.5 10.5-.5 0-1 0-1.6 0-1.5-3.4-3-6.9-4.5-10.4-.2.6-.3 5.7-.1 8.5.5.2 1.1.4 1.7.6v1.3c-2 0-4 0-6 0 0-.4 0-.9 0-1.3.6-.2 1.1-.4 1.7-.6 0-3.9 0-7.8 0-11.8-.6-.2-1.2-.3-1.8-.5 0-.5 0-.9 0-1.4h6c1.5 3.5 3 7 4.5 10.8 1.5-3.7 3-7.2 4.4-10.8h5.6v1.5c-.5.1-1.1.3-1.7.4-.2.7-.2 9.7-.1 11.8.2.1.5.2.8.3s.5.2.9.3v1.4c-2.3 0-4.5 0-6.8 0 0-.5 0-.9 0-1.3.5-.2 1-.3 1.6-.5 0-3.1 0-6-.1-8.8.1 0 .1 0 0 0z" fill="#601531"/><path d="m219.7 10.8c-.5-.2-1.1-.4-1.7-.6 0-.5 0-.9 0-1.4h6v1.4c-.5.2-1.1.4-1.7.6v13.6c-.7 0-1.4 0-2.1 0-2.5-3.1-5-6.2-7.7-9.5v7.6c.5.2 1.1.4 1.7.6v1.3c-2 0-3.9 0-6 0 0-.3 0-.5 0-.7s0-.4 0-.6c.6-.2 1.1-.4 1.8-.6 0-.3 0-.7 0-1 0-3-.1-5.9 0-8.9 0-1.1-.6-1.7-1.4-2.1-.2-.1-.4-.2-.7-.3 0-.5 0-.9 0-1.5.7-.1 1.4 0 2.1 0s1.4 0 2.1 0c2.5 3.2 5 6.3 7.6 9.6 0-2.6 0-5 0-7.5z" fill="#601531"/><path d="m155.5 10.8c-.6-.2-1.1-.4-1.7-.6 0-.5 0-.9 0-1.4.2 0 .5-.1.7-.1h6.3c1.1 0 2.1.2 3.1.5 3.4 1.1 3.4 5 1.6 6.8-.4.4-.9.8-1.3 1.1.8 1.6 1.6 3.2 2.4 4.8.1.2.4.4.6.5.5.2 1.1.3 1.7.5v1.3c-1.7 0-3.5 0-5.3 0-1-2.1-2-4.2-3-6.3-.4 0-.9 0-1.3 0v4.4c.5.2 1.1.3 1.7.6v1.3c-2.4 0-4.7 0-7.1 0 0-.2 0-.4 0-.5 0-.3 0-.5 0-.8.6-.2 1.2-.4 1.7-.6-.1-3.8-.1-7.6-.1-11.5zm3.7 5.5c.7-.1 1.3-.1 2-.2.4 0 .7-.2.9-.4.8-.9 1-1.9.8-3.1-.2-1-.8-1.6-1.8-1.8-.6-.1-1.2-.1-1.8 0-.1 1.9-.1 3.6-.1 5.5z" fill="#601531"/><path d="m149.3 22.3c.4-.9.8-1.8 1.2-2.8h2.3c-.1 1.6-.2 3.2-.3 4.8-4.2 0-8.3 0-12.4 0 0-.5 0-.9 0-1.3.6-.2 1.1-.4 1.7-.6 0-3.9 0-7.8 0-11.7-.5-.2-1.1-.4-1.7-.6 0-.4 0-.9 0-1.3.6-.2 11.2-.2 12.2 0 .1 1.6.1 3.2.2 4.8-.8 0-1.5 0-2.3 0-.3-.9-.6-1.8-.9-2.8-1.2 0-2.4 0-3.7 0v4.4h4v2.2c-1.3 0-2.6 0-4 0v4.9z" fill="#601531"/><path d="m118 24.4c-2.4 0-4.9 0-7.3 0-.2-.4-.1-.9-.1-1.3.6-.2 1.1-.4 1.8-.6-.3-.9-.6-1.8-.9-2.7-1.8 0-3.5 0-5.3 0-.3.9-.6 1.8-.9 2.7.6.2 1.1.4 1.7.6v1.3c-.6.2-5 .2-6 0 0-.4 0-.8 0-1.3.3-.1.6-.2.9-.3.6-.1.9-.4 1.1-1 1-2.9 2-5.7 3-8.6.5-1.5 1-2.9 1.6-4.4h4.1c1.6 4.5 3.2 9.1 4.8 13.7.5.2 1.1.3 1.7.5-.2.4-.2.9-.2 1.4zm-11.2-6.8h4c-.6-2-1.3-3.9-1.9-5.8-.1 0-.1 0-.2 0-.6 1.9-1.3 3.9-1.9 5.8z" fill="#601531"/><path d="m195.7 19.7c-.3.9-.6 1.8-.9 2.7.6.2 1.1.4 1.7.6v1.3c-2 0-3.9 0-6 0 0-.5 0-.9 0-1.3.3-.1.6-.2 1-.3.5-.1.8-.4 1-.9 1.4-4 2.8-8.1 4.2-12.1.1-.3.2-.6.3-1h4.1c1.6 4.5 3.2 9.1 4.8 13.7.5.2 1.1.3 1.7.6v1.3c-2.5 0-4.9 0-7.4 0 0-.5 0-.9 0-1.3.6-.2 1.1-.4 1.7-.6-.3-.9-.6-1.8-.9-2.7-1.7 0-3.4 0-5.3 0zm2.8-7.9c-.1 0-.2 0-.2 0-.6 1.9-1.3 3.8-1.9 5.8h4c-.7-2-1.3-3.9-1.9-5.8z" fill="#601531"/><path d="m189.3 9.4v4.3c-.7 0-1.4 0-2.2 0-.2-.6-.4-1.3-.5-1.9-.1-.5-.3-.7-.8-.8-.8-.2-1.5-.3-2.3-.2-.4.1-.6.2-.8.5-.4.7-.8 1.4-.9 2.2-.4 2-.4 3.9.2 5.9.1.4.3.8.5 1.2 1.3 2.2 4.1 2.2 5.6.8.3-.3.6-.7 1-1 .4.3.7.5 1.1.8-1.1 2.1-2.7 3.4-5.1 3.6-4 .3-7-2.3-7.5-6.2-.3-2.1 0-4.1 1-6 1.3-2.4 3.3-3.7 6.1-3.8 1.5-.3 3.1-.1 4.6.6z" fill="#601531"/><path d="m176.5 8.8v1.4c-.6.2-1.1.4-1.7.6v11.8c.5.2 1 .3 1.6.5v1.2c-2.3 0-4.7 0-7.1 0 0-.4 0-.8 0-1.2.6-.2 1.1-.3 1.7-.5 0-4 0-7.8 0-11.8-.6-.2-1.1-.4-1.7-.6 0-.4 0-.9 0-1.4z" fill="#601531"/><path d="m194.8 44.5c.5.2 1 .3 1.6.5v1.3c-2.3 0-4.5 0-6.8 0 0-.4 0-.9 0-1.3.5-.2 1-.3 1.6-.5 0-2.9 0-5.7 0-8.5h-.1c-1.5 3.5-3 7-4.5 10.5-.5 0-1.1 0-1.6 0-1.5-3.5-3.1-7.1-4.6-10.6h-.1v8.6c.6.2 1.1.4 1.7.6v1.3c-.6.2-4.6.2-6 .1 0-.4 0-.8 0-1.3.5-.2 1.1-.4 1.7-.6 0-3.9 0-7.8 0-11.8-.6-.2-1.2-.3-1.8-.5 0-.5 0-.9 0-1.4.6-.2 4.5-.2 6-.1 1.5 3.5 3 7.1 4.5 10.8 1.5-3.7 3-7.2 4.4-10.8h5.7v1.5c-.6.2-1.2.3-1.8.4.1 4 .1 7.8.1 11.8z" fill="#601531"/><path d="m148.3 44.6c.6.2 1.1.3 1.7.5v1.3c-.6.2-4.5.2-6 .1 0-.4 0-.9 0-1.3.6-.2 1.1-.4 1.7-.6 0-.3 0-.7 0-.9 0-3-.1-5.9 0-8.9 0-1.1-.5-1.7-1.4-2.2-.2-.1-.4-.2-.7-.3 0-.5 0-.9 0-1.4h.7 2.8c.6 0 .9.2 1.3.6 1.8 2.3 3.5 4.5 5.3 6.7.4.6.9 1.1 1.3 1.7.1.2.2.4.3.5.1-.1.1-.1.2-.2 0-2.4 0-4.8 0-7.3-.5-.2-1.1-.3-1.7-.6 0-.4 0-.9 0-1.4h6v1.4c-.6.2-1.1.3-1.7.5v13.6c-.7 0-1.4 0-2.1 0-2.5-3.1-5-6.3-7.6-9.4-.2.7-.3 5.9-.1 7.6z" fill="#601531"/><path d="m128.5 38.6c.1-2 .5-3.8 1.8-5.4 1.2-1.5 2.8-2.3 4.6-2.5.9-.1 1.8-.1 2.7.1 2.7.5 4.3 2.3 5.2 4.8.8 2.2.8 4.5-.1 6.7-1.1 2.8-3.2 4.2-6.2 4.5-1.6.2-3.2-.1-4.5-1-1.8-1.1-2.7-2.8-3.2-4.8-.2-.9-.3-1.7-.3-2.4zm10.9.9c-.1-.8-.1-1.6-.2-2.3-.2-1-.5-2-1.1-2.9-.8-1.1-1.9-1.6-3.3-1.5-.9.1-1.7.4-1.9 1.4-.1.3-.2.7-.3 1-.4 1.7-.3 3.4-.1 5.1.2.9.4 1.8.9 2.5.7 1.2 1.7 1.8 3.1 1.9 1 0 1.7-.4 2.1-1.3.6-1.3.8-2.6.8-3.9z" fill="#601531"/><path d="m168 30.6c3.1 0 5.6 1.7 6.7 4.8.8 2.3.8 4.5 0 6.8-1 2.6-3.4 4.4-6.2 4.5-1.6.1-3.1-.2-4.4-1-1.6-1.1-2.6-2.6-3.1-4.4-.5-2.1-.5-4.2.3-6.2 1.1-2.8 3.2-4.2 6.2-4.4.1-.1.3-.1.5-.1zm3.4 8.6c0-.4-.1-1.2-.2-2-.2-1-.4-2-1.1-2.9-.8-1.1-1.9-1.6-3.2-1.5-1 .1-1.7.4-2 1.5-.1.3-.2.7-.3 1-.4 1.7-.3 3.4 0 5.1.2.9.4 1.8.9 2.5.7 1.1 1.6 1.8 3 1.8 1.5 0 1.6-.1 2.3-1.5.5-1.2.6-2.4.6-4z" fill="#601531"/><path d="m106.6 44.5h3.8c.4-.9.8-1.9 1.3-2.9h2.2c.1 1.6-.2 3.2-.2 4.8-4.2 0-8.3 0-12.5 0 0-.4 0-.8 0-1.3.5-.2 1.1-.4 1.7-.6 0-3.9 0-7.8 0-11.6-.5-.4-1.1-.4-1.7-.6 0-.5 0-1 0-1.5h12.3c.2 1.6.1 3.2.2 4.9-.8 0-1.5 0-2.3 0-.3-.9-.6-1.8-1-2.8-1.2 0-2.4 0-3.7 0v4.3h4v2.2c-1.3.1-2.6 0-4 .1-.1 1.6-.1 3.3-.1 5z" fill="#601531"/><path d="m126.8 31.5v4.3c-.7.1-1.5 0-2.3 0-.2-.7-.4-1.4-.5-2.1-.1-.4-.3-.6-.7-.7-.9-.3-1.9-.3-2.8-.2-.6.6-1 1.4-1.3 2.2-.5 2-.5 4 0 6.1.1.5.3 1 .6 1.4 1.3 2.3 4.3 2.2 5.7.8.3-.3.5-.6.9-1 .3.2.7.5 1.2.8-1.1 2-2.7 3.4-5 3.6-4.3.4-7.2-2.5-7.6-6.4-.2-2.1 0-4 1-5.8 1.3-2.3 3.3-3.7 6-3.8 1.6-.2 3.2.1 4.8.8z" fill="#601531"/><path d="m217.5 31.5v4.2c-.8 0-1.5 0-2.3 0-.2-.7-.4-1.3-.5-2-.1-.5-.3-.6-.7-.8-.8-.3-1.6-.3-2.4-.2-.3 0-.5.2-.8.4-.8 1-1.1 2.1-1.2 3.3-.2 1.5-.2 3.1.3 4.6.2.5.3 1 .6 1.4 1.3 2.3 4.3 2.3 5.7.8.3-.3.5-.6.8-.9.3.3.7.5 1.1.8-.1.2-.1.3-.2.4-1.5 2.4-3.6 3.6-6.3 3.3s-4.6-1.8-5.5-4.3c-1-2.7-.8-5.4.5-8 1.3-2.3 3.2-3.6 5.9-3.7 1.5-.1 3 .1 4.4.7.3-.2.5-.1.6 0z" fill="#601531"/><path d="m204.7 30.8v1.4c-.6.2-1.1.3-1.7.5v11.9c.5.2 1.1.4 1.7.6v1.2c-2.4 0-4.7 0-7.1 0 0-.4 0-.8 0-1.2.5-.2 1.1-.3 1.6-.5 0-4 0-7.9 0-11.9-.5-.2-1.1-.4-1.7-.6 0-.4 0-.9 0-1.4z" fill="#601531"/></svg>