<svg xmlns="http://www.w3.org/2000/svg" viewBox="-58.1 6.5 151 22"><path fill="#333" d="M67.1 12.3c-3 0-5.5 2.5-5.5 5.5s2.5 5.5 5.5 5.5 5.5-2.5 5.5-5.5-2.4-5.5-5.5-5.5zm0 8.1c-1.5 0-2.6-1.2-2.6-2.6 0-1.4 1.2-2.6 2.6-2.6 1.5 0 2.6 1.2 2.6 2.6.1 1.5-1.1 2.6-2.6 2.6zm-114.6.5c-.7.4-1.4.5-2.3.5-.9 0-1.7-.2-2.4-.5s-1.3-.7-1.8-1.3c-.5-.5-.8-1.2-1.1-1.9-.3-.7-.4-1.4-.4-2.2 0-.8.1-1.6.4-2.4s.6-1.4 1.1-1.9c.5-.5 1.1-1 1.8-1.3.7-.3 1.5-.5 2.3-.5.7 0 1.4.1 2 .4.7.3 1.2.7 1.6 1.3l1.7-1.3c-.6-.8-1.4-1.4-2.3-1.7-1-.4-1.9-.6-2.9-.6-1.2 0-2.2.2-3.2.6-1 .4-1.8.9-2.5 1.7-.7.7-1.2 1.6-1.6 2.5-.4 1-.6 2-.6 3.2 0 .9.2 1.9.5 2.8.4.9.9 1.7 1.5 2.5.7.7 1.5 1.3 2.4 1.8 1 .4 2 .7 3.2.7.9 0 1.6-.1 2.3-.3.7-.2 1.2-.5 1.7-.8.5-.3.8-.6 1.1-.9.3-.3.5-.5.6-.7l-1.7-1.3c-.2.7-.7 1.2-1.4 1.6zm13.5.2V16c0-.4-.1-.9-.2-1.3-.2-.4-.4-.8-.8-1.1-.3-.3-.8-.6-1.3-.7-.5-.2-1.2-.3-1.9-.3s-1.4.1-2.1.4c-.7.2-1.3.6-1.9 1.1l1.1 1.2c.2-.1.3-.3.5-.4.2-.1.4-.3.6-.4.2-.1.5-.2.8-.3.3-.1.6-.1 1-.1s.8.1 1.1.2.5.3.7.5c.2.2.3.4.4.7.1.3.1.5.1.8v.4h-1.4c-.8 0-1.5.1-2.2.2-.7.1-1.3.3-1.8.6s-.9.6-1.2 1.1c-.3.4-.4 1-.4 1.6 0 .5.1.9.3 1.3.2.4.4.7.8.9.3.3.7.4 1.1.6.4.1.9.2 1.3.2.8 0 1.4-.1 2-.4.6-.3 1.1-.7 1.5-1.4 0 .5 0 1 .1 1.5h1.7c0-.3 0-.5-.1-.8.3-.3.2-.6.2-1zm-1.7-2.3c0 .3 0 .7-.1 1-.1.3-.3.7-.5.9-.2.3-.5.5-.9.7-.4.2-.8.3-1.3.3-.7 0-1.2-.1-1.6-.4-.4-.3-.6-.7-.6-1.2 0-.4.1-.7.4-1 .2-.3.6-.4 1-.6.4-.1.8-.2 1.3-.3.5 0 .9-.1 1.4-.1h1v.7zm18.3-4.7c-.3-.4-.7-.7-1.2-1-.5-.3-1.1-.4-1.9-.4-.6 0-1.2.2-1.8.5-.6.3-1.1.8-1.4 1.4-.3-.6-.7-1.1-1.3-1.4-.5-.3-1.1-.5-1.9-.5-.5 0-.9.1-1.2.2-.4.1-.7.3-1 .5-.3.2-.5.4-.7.6-.2.2-.3.4-.3.5v-1.6h-1.8v10h1.9v-5.2c0-.6.1-1.1.2-1.5.1-.4.3-.8.6-1 .2-.3.5-.5.8-.6.3-.1.6-.2 1-.2.5 0 .8.1 1.1.2.3.2.5.4.6.7.1.3.2.6.3 1 0 .4.1.8.1 1.3v5.2h1.9v-5.5c0-.9.2-1.6.6-2.2.4-.6 1.1-.8 2-.8.5 0 .8.1 1.1.2.3.2.5.4.7.6.2.3.3.6.3.9 0 .4.1.7.1 1.1v5.6h1.9v-5.8c0-.6-.1-1.1-.2-1.6 0-.3-.2-.8-.5-1.2zm12.1.1c-.4-.5-1-.8-1.6-1.1-.6-.3-1.3-.4-2.1-.4-.7 0-1.4.2-2 .5-.6.3-1.1.7-1.5 1.2V7h-1.9v15.9h1.9v-1.4c.4.5.9.9 1.5 1.2.6.3 1.3.4 2 .4.8 0 1.5-.1 2.1-.4.6-.3 1.2-.6 1.6-1.1.4-.5.8-1 1-1.7.2-.6.4-1.3.4-2.1 0-.7-.1-1.4-.4-2.1-.2-.5-.5-1-1-1.5zm-.9 5.1c-.2.4-.4.8-.7 1.1-.3.3-.6.5-1 .7-.4.2-.9.3-1.4.3-.5 0-1-.1-1.4-.3-.4-.2-.8-.4-1-.7-.3-.3-.5-.7-.7-1.1-.2-.4-.2-.9-.2-1.4 0-.5.1-1 .2-1.4.2-.4.4-.8.7-1.1.3-.3.6-.5 1-.7.4-.2.9-.3 1.4-.3.5 0 1 .1 1.4.3.4.2.8.4 1 .7.3.3.5.7.7 1.1.2.4.2.9.2 1.4.1.5 0 1-.2 1.4zm7.8-6.5c-.3.1-.6.2-.8.4-.3.2-.5.3-.7.6-.2.2-.4.5-.5.7V13h-1.9v10h1.9v-5c0-1.1.2-1.9.7-2.4.5-.5 1.2-.8 2.1-.8h.5c.2 0 .3.1.5.1l.1-2c-.3-.1-.5-.1-.8-.1-.4-.1-.7-.1-1.1 0zm3.7 10.1h1.9v-10H5.3v10zM6.2 8c-.4 0-.7.1-1 .4-.2.3-.4.6-.4 1s.1.7.4 1c.3.3.6.4 1 .4s.7-.1 1-.4c.3-.3.4-.6.4-1s-.1-.7-.4-1c-.3-.3-.6-.4-1-.4zm11.2 6.4c-.4-.5-.9-.9-1.5-1.2-.6-.3-1.3-.5-2-.5-.8 0-1.5.1-2.1.4-.6.3-1.2.6-1.6 1.1-.4.5-.8 1-1 1.7-.2.6-.4 1.3-.4 2.1 0 .7.1 1.4.4 2.1.2.6.6 1.2 1 1.7s1 .9 1.6 1.1c.6.3 1.3.4 2.1.4.7 0 1.3-.1 2-.4.6-.3 1.1-.7 1.5-1.2v1.4h1.9V7h-1.9v7.4zm-.3 4.9c-.2.4-.4.8-.7 1.1-.3.3-.6.5-1 .7-.4.2-.9.3-1.4.3-.5 0-1-.1-1.4-.3-.4-.2-.8-.4-1-.7-.3-.3-.5-.7-.7-1.1-.2-.4-.2-.9-.2-1.4 0-.5.1-1 .2-1.4.2-.4.4-.8.7-1.1.3-.3.6-.5 1-.7.4-.2.9-.3 1.4-.3.5 0 1 .1 1.4.3.4.2.8.4 1 .7.3.3.5.7.7 1.1.2.4.2.9.2 1.4.1.5 0 1-.2 1.4zm12.3-4.9c-.4-.5-.9-.9-1.6-1.2-.6-.3-1.3-.4-2-.4-.8 0-1.5.1-2.1.4-.6.3-1.2.6-1.6 1.1-.4.5-.8 1-1 1.7-.2.6-.4 1.3-.4 2.1 0 .7.1 1.4.4 2 .3.6.6 1.2 1.1 1.6.5.5 1 .8 1.6 1.1.6.3 1.3.4 2 .4s1.4-.1 2-.4c.6-.3 1.1-.7 1.5-1.3h.1V23c0 .4-.1.8-.2 1.3-.1.4-.3.8-.6 1.1-.3.3-.6.6-1.1.8-.5.2-1.1.3-1.8.3s-1.4-.1-2-.4c-.6-.3-1.1-.7-1.6-1.2l-1.3 1.6c.7.7 1.5 1.1 2.3 1.4.8.3 1.7.4 2.6.4.8 0 1.6-.1 2.2-.4.7-.3 1.3-.6 1.7-1.1.5-.5.9-1 1.1-1.6.3-.6.4-1.3.4-2.1v-9.9h-1.9v1.2zm-.9 6c-.6.6-1.4.9-2.4.9s-1.8-.3-2.4-.9c-.6-.6-.9-1.4-.9-2.4 0-.5.1-1 .2-1.4.2-.4.4-.8.7-1.1.3-.3.6-.5 1-.7.4-.2.9-.3 1.4-.3.5 0 1 .1 1.4.3.4.2.8.4 1 .7.3.3.5.7.7 1.1.2.4.2.9.2 1.4 0 1-.3 1.8-.9 2.4zm13.4-6c-.4-.5-.9-.9-1.5-1.2-.6-.3-1.4-.5-2.3-.5-.8 0-1.4.1-2.1.4-.6.3-1.2.6-1.6 1.1-.5.5-.8 1-1.1 1.7-.3.6-.4 1.3-.4 2.1 0 .7.1 1.4.4 2.1.2.6.6 1.2 1 1.7s1 .8 1.6 1.1c.6.3 1.4.4 2.2.4 1.9 0 3.4-.7 4.5-2L41.1 20c-.4.5-.8.8-1.2 1.1-.4.3-1 .4-1.5.4-.4 0-.9-.1-1.3-.2s-.8-.3-1.1-.6c-.3-.3-.6-.6-.8-.9-.2-.4-.3-.8-.3-1.2H43V18c0-.6-.1-1.3-.3-1.9-.1-.7-.4-1.2-.8-1.7zm-7 2.7c0-.3.1-.7.2-1 .1-.3.4-.7.6-.9.3-.3.6-.5 1-.7.4-.2.8-.3 1.3-.3s.9.1 1.3.2.7.4.9.6c.2.3.4.6.5.9.1.4.2.7.2 1.2h-6zm22 2.8c-.5.3-1.1.4-1.8.4-.6 0-1.1-.1-1.7-.4-.5-.2-1-.6-1.3-1-.4-.4-.7-.9-.9-1.5-.2-.6-.3-1.2-.3-1.9s.1-1.3.3-1.9c.2-.6.5-1.1.9-1.5.4-.4.8-.8 1.4-1 .5-.2 1.1-.4 1.7-.4.6 0 1.2.1 1.6.3.5.2.9.5 1.2.9l2.5-2.1c-.3-.4-.7-.8-1.1-1-.4-.3-.8-.5-1.3-.7-.4-.2-.9-.3-1.4-.4-.5-.1-.9-.1-1.3-.1-1.2 0-2.3.2-3.2.5-1 .4-1.8.9-2.6 1.6-.7.7-1.3 1.5-1.7 2.5-.4 1-.6 2.1-.6 3.2 0 1.2.2 2.3.6 3.2.4 1 1 1.8 1.7 2.5s1.6 1.2 2.6 1.6c1 .4 2.1.5 3.2.5 1 0 2-.2 3-.6 1-.4 1.8-1.1 2.4-2l-2.8-2c-.1.6-.6 1-1.1 1.3zm23.4-7.5c-.7 0-1.3.2-1.8.5s-.9.8-1.2 1.4v-1.6h-3.2v10.2h3.2v-4.3c0-.5 0-1 .1-1.4.1-.4.2-.8.4-1.1.2-.3.5-.5.8-.7.4-.2.8-.3 1.4-.3.2 0 .5 0 .7.1.2 0 .4.1.7.2v-2.9c-.2 0-.3-.1-.5-.1h-.6zm12.2 5.4c0-.8-.1-1.6-.3-2.2-.2-.7-.5-1.2-1-1.7-.4-.5-.9-.8-1.5-1.1-.6-.3-1.3-.4-2-.4-.8 0-1.5.1-2.2.4-.7.3-1.3.6-1.8 1.1-.5.5-.9 1-1.2 1.7-.3.7-.4 1.4-.4 2.2 0 .8.1 1.6.4 2.2.3.7.7 1.2 1.2 1.7s1.1.8 1.8 1.1c.7.3 1.4.4 2.2.4.8 0 1.6-.2 2.4-.5.8-.4 1.4-.9 1.9-1.5l-2.2-1.6c-.3.4-.6.7-.9.9-.4.2-.8.3-1.3.3-.6 0-1.1-.2-1.6-.5-.4-.4-.7-.8-.8-1.4h7.4v-1.1zm-7.4-1.1c0-.3.1-.5.2-.7.1-.2.3-.4.4-.6.2-.2.4-.3.7-.4.3-.1.6-.2.9-.2.6 0 1.1.2 1.4.6.4.4.5.8.5 1.4h-4.1z"/></svg>