<?xml version="1.0" encoding="utf-8"?>
<!-- Generator: Adobe Illustrator 26.2.1, SVG Export Plug-In . SVG Version: 6.00 Build 0)  -->
<svg version="1.1" id="Layer_1" xmlns="http://www.w3.org/2000/svg" xmlns:xlink="http://www.w3.org/1999/xlink" x="0px" y="0px"
	 viewBox="0 0 83.3 61.3" style="enable-background:new 0 0 83.3 61.3;" xml:space="preserve">
<g transform="translate(.4 -26.7)">
	<path d="M32.2,88h-3.8V38.2h3.8V88z"/>
	<path d="M22.7,26.7h3.8v47.9h-3.8V26.7z"/>
	<path d="M3.4,74.6h-3.8V38.2h3.8V74.6z"/>
	<path d="M5.4,38.2h3.8v36.4H5.4V38.2z"/>
	<path d="M11.2,38.2H15v36.4h-3.8V38.2z"/>
	<path d="M20.7,74.6H17V38.2h3.8L20.7,74.6L20.7,74.6z"/>
	<path d="M38,74.6h-3.8V38.2H38V74.6z"/>
</g>
<g transform="translate(-44.93 -.028)">
	<path d="M195.7,20.6h6.7c1.1,0,2.2,0.2,3.3,0.6c0.9,0.4,1.8,1,2.4,1.8c0.7,0.8,1.2,1.7,1.5,2.7c0.4,1.1,0.5,2.3,0.5,3.5
		s-0.2,2.4-0.5,3.5c-0.3,1-0.8,1.9-1.5,2.7s-1.5,1.3-2.5,1.7c-1.1,0.4-2.2,0.6-3.4,0.6h-6.6L195.7,20.6z M202,35
		c1.4,0.1,2.8-0.5,3.7-1.5c0.9-1.2,1.3-2.7,1.2-4.2c0-0.8-0.1-1.6-0.3-2.4c-0.2-0.7-0.5-1.3-0.9-1.9c-0.4-0.5-0.9-0.9-1.5-1.2
		c-0.7-0.3-1.4-0.4-2.2-0.4h-3.2V35H202z M211.4,20.6h3v2.8h-3V20.6z M211.4,25.4h2.9v12.3h-2.9V25.4z M218.8,27.6
		c0.6-1.4,2-2.4,3.6-2.4c0.3,0,0.5,0,0.8,0.1v2.6h-0.1c-0.3-0.1-0.5-0.1-0.8-0.1c-0.9,0-1.7,0.3-2.4,0.9c-0.7,0.7-1,1.7-1,2.7v6.2
		H216V25.4h2.8V27.6z M229.4,38c-0.9,0-1.8-0.2-2.6-0.5c-0.7-0.3-1.4-0.8-2-1.4c-0.6-0.6-1-1.3-1.2-2.1c-0.3-0.8-0.4-1.6-0.4-2.5
		c0-0.9,0.1-1.8,0.4-2.6c0.3-0.8,0.7-1.5,1.2-2.1s1.2-1.1,1.9-1.4c0.8-0.3,1.6-0.5,2.5-0.5c0.8,0,1.6,0.1,2.4,0.4
		c0.7,0.3,1.3,0.7,1.8,1.3c0.6,0.7,1.1,1.5,1.3,2.4c0.3,1,0.4,2.1,0.4,3.1h-9.2c0.1,0.9,0.4,1.8,1,2.6c0.6,0.7,1.5,1,2.4,1
		c0.6,0,1.2-0.1,1.7-0.4c0.4-0.3,0.8-0.7,1-1.2h2.9c-0.1,0.5-0.4,1.1-0.7,1.5c-0.3,0.5-0.7,0.9-1.2,1.2s-1,0.6-1.6,0.8
		C230.8,37.9,230.1,38,229.4,38L229.4,38z M229.3,27.2c-0.8-0.1-1.6,0.3-2.2,0.9c-0.5,0.7-0.8,1.5-0.9,2.3h6.1
		c0-0.9-0.3-1.7-0.9-2.4C230.8,27.4,230.1,27.2,229.3,27.2L229.3,27.2z M241.9,38c-0.9,0-1.8-0.2-2.6-0.5c-0.7-0.3-1.4-0.8-2-1.4
		c-0.6-0.6-1-1.3-1.3-2.1s-0.4-1.6-0.4-2.5c0-0.9,0.1-1.8,0.4-2.6c0.3-0.8,0.7-1.5,1.2-2.1s1.2-1.1,1.9-1.4c0.8-0.3,1.7-0.5,2.6-0.5
		c0.7,0,1.4,0.1,2.1,0.3c0.6,0.2,1.2,0.5,1.7,0.9s0.9,0.8,1.1,1.4c0.3,0.6,0.5,1.2,0.6,1.8h-2.9c-0.1-0.6-0.4-1.2-0.9-1.6
		s-1.1-0.6-1.8-0.6c-0.5,0-1,0.1-1.4,0.3c-0.4,0.2-0.8,0.5-1,0.9c-0.3,0.4-0.5,0.9-0.6,1.4c-0.1,0.6-0.2,1.1-0.2,1.7
		s0.1,1.1,0.2,1.7c0.1,0.5,0.3,0.9,0.6,1.3c0.3,0.4,0.6,0.7,1,0.9s0.9,0.3,1.4,0.3c0.7,0,1.4-0.2,1.9-0.7s0.8-1.2,0.8-1.9h2.9
		c0,0.7-0.2,1.4-0.5,2s-0.7,1.1-1.1,1.5c-0.5,0.4-1.1,0.8-1.7,1C243.3,37.9,242.6,38.1,241.9,38z M247.7,25.4h1.9v-3.9h2.9v3.9h2.5
		v2h-2.6v6.9c0,0.3,0.1,0.6,0.3,0.9c0.3,0.2,0.7,0.3,1,0.2h0.5c0.2,0,0.3,0,0.4-0.1h0.1v2.3c-0.2,0-0.5,0.1-0.9,0.1
		s-0.7,0.1-1.1,0.1c-0.5,0-0.9,0-1.4-0.1c-0.4-0.1-0.8-0.3-1.1-0.5c-0.7-0.6-1-1.4-0.9-2.3v-7.5h-1.9L247.7,25.4z"/>
	<path d="M99.8,28.7c-0.2,0.5-0.3,1.1-0.5,1.8s-0.3,1.3-0.5,1.9c-0.2,0.7-0.3,1.4-0.5,2.1h-0.1l-0.5-2.1l-0.5-1.9
		c-0.2-0.7-0.3-1.2-0.5-1.7l-2.8-8.1h-4.2v17.1h2.9V27.3c0-0.6,0-1.1-0.1-1.7c0-0.6-0.1-1.3-0.1-2c0.1,0.6,0.3,1.2,0.4,1.8
		c0.1,0.5,0.3,1,0.4,1.6c0.2,0.5,0.3,1,0.4,1.5l3.3,9.4h2.6l3.2-9.4c0.2-0.5,0.3-1,0.4-1.5c0.1-0.6,0.3-1.1,0.4-1.6
		c0.2-0.6,0.3-1.2,0.4-1.8c0,0.7-0.1,1.3-0.1,2c0,0.6-0.1,1.1-0.1,1.7v10.5h3V20.6h-4.3L99.8,28.7z"/>
	<path d="M109.1,20.6h3.2v17.1h-3.2V20.6z"/>
	<path d="M113.6,23.3h5.4v14.4h3.2V23.3h5.3v-2.7h-13.9V23.3z"/>
	<path d="M145.4,22.2c-0.5-0.5-1.1-0.9-1.8-1.2c-0.8-0.3-1.6-0.4-2.5-0.4h-7.4v17.1h3.2v-6.4h4.3c0.8,0,1.6-0.1,2.4-0.4
		c0.7-0.2,1.3-0.6,1.8-1.1s0.9-1,1.1-1.7c0.3-0.7,0.4-1.4,0.4-2.2c0-0.7-0.1-1.4-0.4-2.1C146.2,23.2,145.8,22.7,145.4,22.2z
		 M142.9,27.9c-0.6,0.5-1.4,0.8-2.2,0.7h-3.8v-5.4h3.9c0.8-0.1,1.6,0.2,2.2,0.7c0.5,0.5,0.8,1.3,0.8,2
		C143.7,26.6,143.4,27.4,142.9,27.9z"/>
	<path d="M154.9,25.3c-0.3-0.1-0.5-0.1-0.8-0.1c-1.6-0.1-3,0.9-3.5,2.4h-0.1v-2.2h-2.8v12.3h2.9v-6.2c-0.1-1,0.3-2,1-2.7
		c0.6-0.6,1.5-1,2.4-0.9c0.3,0,0.5,0,0.8,0.1h0.1L154.9,25.3z"/>
	<path d="M166.5,29.2c-0.3-0.9-0.7-1.7-1.3-2.4c-0.5-0.5-1.1-1-1.8-1.3c-0.8-0.3-1.6-0.5-2.4-0.4c-0.9,0-1.7,0.2-2.5,0.5
		c-0.7,0.3-1.4,0.8-1.9,1.4c-0.6,0.6-1,1.3-1.2,2.1c-0.3,0.8-0.4,1.7-0.4,2.6s0.1,1.7,0.4,2.5c0.3,0.8,0.7,1.5,1.2,2.1
		c0.6,0.6,1.2,1.1,2,1.4c0.8,0.3,1.7,0.5,2.6,0.5c0.7,0,1.4-0.1,2.1-0.3c0.6-0.2,1.1-0.4,1.6-0.8c0.5-0.3,0.9-0.7,1.2-1.2
		s0.6-1,0.7-1.5h-2.9c-0.2,0.5-0.5,0.9-1,1.2s-1.1,0.5-1.7,0.4c-0.9,0.1-1.8-0.3-2.4-1c-0.6-0.7-0.9-1.7-1-2.6h9.2
		C167,31.3,166.8,30.2,166.5,29.2L166.5,29.2z M157.8,30.4c0.1-0.8,0.4-1.6,0.9-2.3c1.2-1.2,3.1-1.2,4.3,0l0,0
		c0.6,0.7,0.9,1.5,0.9,2.4h-6.1L157.8,30.4z"/>
	<path d="M176.7,31.2c-0.5-0.3-1-0.5-1.5-0.6c-0.6-0.1-1.1-0.3-1.7-0.4l-1.3-0.3c-0.3-0.1-0.7-0.2-1-0.3c-0.2-0.1-0.5-0.2-0.6-0.4
		c-0.2-0.2-0.2-0.4-0.2-0.7c0-0.4,0.2-0.8,0.5-1.1c0.5-0.3,1-0.5,1.6-0.4c1.4,0,2.2,0.5,2.4,1.6h2.8c-0.1-1-0.7-2-1.5-2.6
		c-1.1-0.7-2.4-1.1-3.7-1c-0.7,0-1.3,0.1-2,0.2c-0.5,0.1-1.1,0.3-1.5,0.7c-0.4,0.3-0.8,0.7-1,1.2s-0.4,1-0.4,1.6s0.1,1.2,0.4,1.7
		c0.2,0.4,0.6,0.8,1,1.1c0.4,0.3,0.9,0.5,1.4,0.6c0.6,0.2,1.1,0.3,1.7,0.4c0.5,0.1,0.9,0.2,1.3,0.3c0.3,0.1,0.7,0.2,1,0.3
		c0.2,0.1,0.4,0.3,0.6,0.5c0.2,0.2,0.2,0.4,0.2,0.7c0,0.5-0.2,0.9-0.6,1.2c-0.5,0.4-1.2,0.5-1.8,0.5c-0.7,0-1.4-0.1-2-0.5
		c-0.5-0.4-0.9-1-1-1.6H167c0.1,1.2,0.7,2.3,1.6,3c1.2,0.8,2.6,1.2,4.1,1.1c0.7,0,1.4-0.1,2.1-0.3c0.6-0.1,1.2-0.4,1.7-0.7
		s0.8-0.7,1.1-1.2s0.4-1.1,0.4-1.7c0-0.6-0.1-1.2-0.4-1.8C177.5,31.8,177.2,31.4,176.7,31.2L176.7,31.2z"/>
	<path d="M189.1,32.3c-0.3-0.4-0.6-0.8-1-1.1c-0.5-0.3-1-0.5-1.5-0.6c-0.6-0.1-1.1-0.3-1.7-0.4l-1.3-0.3c-0.3-0.1-0.7-0.2-1-0.3
		c-0.2-0.1-0.5-0.2-0.6-0.4c-0.2-0.2-0.2-0.4-0.2-0.7c0-0.4,0.2-0.8,0.5-1.1c0.5-0.3,1-0.5,1.6-0.4c1.4,0,2.2,0.5,2.4,1.6h2.8
		c-0.1-1-0.7-2-1.5-2.6c-1.1-0.7-2.4-1.1-3.7-1c-0.7,0-1.3,0.1-2,0.2c-0.5,0.1-1.1,0.3-1.5,0.7c-0.4,0.3-0.8,0.7-1,1.2
		s-0.4,1-0.4,1.6s0.1,1.2,0.4,1.7c0.2,0.4,0.6,0.8,1,1.1c0.4,0.3,0.9,0.5,1.4,0.6c0.6,0.2,1.1,0.3,1.7,0.4c0.5,0.1,0.9,0.2,1.3,0.3
		c0.3,0.1,0.7,0.2,1,0.3c0.2,0.1,0.4,0.3,0.6,0.5c0.2,0.2,0.2,0.4,0.2,0.7c0,0.5-0.2,0.9-0.6,1.2c-0.5,0.4-1.2,0.5-1.8,0.5
		c-0.7,0-1.4-0.1-2-0.5c-0.5-0.4-0.9-1-1-1.6h-2.8c0.1,1.2,0.7,2.3,1.6,3c1.2,0.8,2.6,1.2,4.1,1.1c0.7,0,1.4-0.1,2.1-0.3
		c0.6-0.1,1.2-0.4,1.7-0.7s0.8-0.7,1.1-1.2s0.4-1.1,0.4-1.7C189.5,33.5,189.4,32.9,189.1,32.3z"/>
</g>
</svg>
