<svg enable-background="new 0 0 754.6 755" viewBox="0 0 754.6 755" xmlns="http://www.w3.org/2000/svg"><g fill="#011e41"><path d="m436 233c-.4 2.2-.8 4.2-1.3 6.4 13.8-8.8 28.6-21.1 42.4-37.8-1-5.1-2.3-10.2-4-15.1-8.7 17.9-22.6 34.2-37.1 46.5z"/><path d="m436.8 220.4c11.3-12.4 22.3-28.3 30.7-47.6-2.4-4.9-5.1-9.5-8.1-13.8-3.7 20.1-12.7 39.2-23.2 54.7.3 2.2.6 4.4.6 6.7z"/><path d="m478.8 216.8c-9.3 13.2-29.1 26.5-49.3 36.2-.9 1.9-2 3.7-3.1 5.6 14.6-4.6 31-12 48.8-23.9-1.4 7.4-3.5 14.3-6.3 20.5-20.5 9.1-37.6 13.7-52 15.5-1.7 1.7-3.5 3.3-5.2 4.9 14 .1 30.6-1.9 50.8-8.3-4.5 6.9-9.9 12.9-15.7 18.1-18.4 1.4-33.5.3-46.3-2.2-1.9 1-4 2-6 2.9 11.4 4.6 24.2 7.9 38.7 9.1-5.4 3.2-11 5.8-16.6 7.8-13.2-3.7-24.7-8.1-34.6-12.9-2.6.5-5.1.9-7.8 1.2 8.2 5.6 17.7 10.9 28.6 15.6-6.2 1.2-12.3 1.9-18.1 1.9-1.3-.4-3.2-1-4.5-1.5-7.1-5.3-13.5-10.6-19.2-16-3.2-.3-6.4-.8-9.5-1.5 5 5.9 10.8 11.8 17.3 17.5-6.7-1.2-13.1-3.2-19.2-5.8-3.8-5.4-7.2-10.6-10-15.7-2.9-1.3-5.9-2.8-8.7-4.5 2 4.6 4.5 9.5 7.4 14.3-5.9-3.6-11.3-7.9-16.1-12.9-2.7-5.1-4.7-9.7-6.3-14-12.1-13.3-19.2-31.4-18.1-51.1 2.2-36.3 32.6-65.1 69-65.3 31.3-.2 57.8 20.4 66.7 48.7 6.8-14.9 12.3-33.4 14-56.8-3.6-3.7-7.4-7.2-11.5-10.5 2.9 21.6 1 40.1-3.7 55.7-2.2-4.4-4.7-8.6-7.6-12.7.9-14.7-.1-32.5-5.6-54-4.6-2.4-9.3-4.5-14.2-6.3 8.7 16.3 13.2 35.6 14.5 53.5-3.3-3.7-6.8-7.3-10.8-10.5-4.1-14-11.1-29.7-22.4-47.9-4.5-.5-9.3-1.2-14.3-1.3 12.2 13.1 21.3 27.9 27.8 42.5-5-3.3-10.2-6.1-15.7-8.6-7.6-10.8-17.4-22-30.1-33.2-4.9.5-9.6 1.4-14.2 2.7 11.4 6.8 21.9 15.7 31 25.6-5.9-1.7-11.8-2.8-17.9-3.3-8.3-6.1-17.7-11.9-28-17.2-4.7 1.9-9.3 4.2-13.7 6.8 9.1.9 18.1 4.7 27.4 10.1-5.5.3-10.9 1-16.1 2.3-6.7-2.2-13.8-4.1-21.8-5.4-4.2 3.2-8.3 6.7-12 10.5 5.2-.8 11.3-1 18.1-.4-11.4 4.2-22.4 10-31.8 17-12 17.8-18.9 39.2-18.9 62.2 0 61.8 50.1 111.9 111.6 111.9 61.2 0 111.6-49.7 111.6-111.9-.3-1.4-.3-3.2-.4-5z"/><path d="m247.7 413.1h-16l-26 36.3-25.9-36.3h-16.1l32 43.1-32.3 43.5h16l26.3-37 26.2 37h16.2l-32.3-43.5z"/><path d="m573.9 469c10.5-4.5 17.5-13.4 17.5-26.6 0-18.8-13.3-29.3-35.1-29.3h-37.9v86.7h14.3v-27.4h26c8.2 7.7 15.1 17.3 20.1 27.4h17.5c-5.4-10.8-14.7-23.4-22.4-30.8zm-41.2-43.1h23.2c12.7 0 20.7 5.8 20.7 17.2 0 11.5-7.9 16.9-20 16.9h-24.1v-34.1z"/><path d="m671.8 413.1h-32.4v86.7h32.4c28 0 46.1-17.5 46.1-43.4s-18-43.3-46.1-43.3zm-1 74h-17v-61.2h17c18.6 0 32.5 11 32.5 30.6s-13.9 30.6-32.5 30.6z"/><path d="m83 411c-25.1 0-46.3 20.4-46.3 45.3s21.4 45.3 46.3 45.3 46.3-20.4 46.3-45.3-21.2-45.3-46.3-45.3zm0 77.6c-17.8 0-32.8-14.5-32.8-32.3s15-32.3 32.8-32.3 32.8 14.5 32.8 32.3-15 32.3-32.8 32.3z"/><path d="m430 411c-25.1 0-46.3 20.4-46.3 45.3s21.3 45.3 46.3 45.3c25.1 0 46.3-20.4 46.3-45.3s-21.2-45.3-46.3-45.3zm0 77.6c-17.8 0-32.8-14.5-32.8-32.3s15-32.3 32.8-32.3 32.8 14.5 32.8 32.3-15 32.3-32.8 32.3z"/><path d="m286.5 499.7h14.3v-31.1h41.7c2.6-3.8 4.5-7.8 6.1-12.4h-47.9v-30.5h53v-12.7h-67.2z"/><path d="m573.9 548.8c0-7.9-5.6-12.3-15-12.3h-16.1v36.6h6.1v-11.5h10.9c3.5 3.2 6.3 7.3 8.4 11.5h7.4c-2.2-4.5-6.1-9.7-9.3-12.9 4.8-2 7.6-5.8 7.6-11.4zm-15.2 7.4h-9.7v-14.5h9.7c5.4 0 9 2.3 9 7.2-.1 5.2-3.5 7.3-9 7.3z"/><path d="m71.8 557.6c0 5.9-3.2 10.5-10 10.5s-10.1-4.6-10.1-10.5v-21.1h-6.1v21.1c0 9.5 6.1 16.4 16.1 16.4 10.2 0 16-6.8 16-16.4v-21.1h-6.1z"/><path d="m643.5 545.6c0-2.6 2.3-4.4 7-4.4 2.8 0 6.5.9 10.5 3.3l3.2-5c-3.5-2.3-8.5-3.8-13.6-3.8-7.9 0-13.7 3.6-13.7 10.4 0 13.7 21.8 9 21.8 17.3 0 2.8-2.9 5.1-7.2 5.1-3.8 0-8.6-1.4-12.3-4.9l-3.3 4.7c3.7 3.5 10 5.6 15.5 5.6 7.8 0 14.1-4.5 14.1-11 .1-13.1-22-9.1-22-17.3z"/><path d="m321.2 545.6c0-2.6 2.3-4.4 7-4.4 2.8 0 6.5.9 10.5 3.3l3.2-5c-3.5-2.3-8.5-3.8-13.6-3.8-7.9 0-13.7 3.6-13.7 10.4 0 13.7 21.8 9 21.8 17.3 0 2.8-2.9 5.1-7.2 5.1-3.8 0-8.6-1.4-12.3-4.9l-3.3 4.7c3.7 3.5 10 5.6 15.5 5.6 7.8 0 14.1-4.5 14.1-11 .1-13.1-22-9.1-22-17.3z"/><path d="m687.2 545.6c0-2.6 2.3-4.4 7-4.4 2.8 0 6.5.9 10.5 3.3l3.2-5c-3.5-2.3-8.4-3.8-13.6-3.8-7.9 0-13.7 3.6-13.7 10.4 0 13.7 21.8 9 21.8 17.3 0 2.8-2.9 5.1-7.2 5.1-3.8 0-8.6-1.4-12.3-4.9l-3.3 4.7c3.7 3.5 10 5.6 15.5 5.6 7.8 0 14.1-4.5 14.1-11 0-13.1-22-9.1-22-17.3z"/><path d="m121.6 562.7-22.1-26.2h-5.1v36.6h6v-26.8l22.2 26.8h5.1v-36.6h-6.1z"/><path d="m146.9 536.5h6.1v36.6h-6.1z"/><path d="m361.1 536.5h6.1v36.6h-6.1z"/><path d="m383 541.9h12.4v31.2h6.2v-31.2h12.4v-5.4h-31z"/><path d="m298 548.8c0-7.9-5.6-12.3-15-12.3h-16.1v36.6h6.1v-11.5h10.9c3.5 3.2 6.3 7.3 8.5 11.5h7.6c-2.2-4.5-6.1-9.7-9.3-12.9 4.5-2 7.3-5.8 7.3-11.4zm-15.1 7.4h-9.7v-14.5h9.7c5.4 0 9 2.3 9 7.2-.1 5.2-3.5 7.3-9 7.3z"/><path d="m443.8 553.5c-2.8-4-6.8-10.8-10-17h-7c4.7 9.1 10.2 17.8 14.1 23.3v13.4h6.1v-13.4c3.8-5.5 9.2-14.1 14.1-23.3h-7.2c-3.3 6.1-7.4 13-10.1 17z"/><path d="m187.2 566.2c-5.1-10.5-8.1-17.8-11.8-29.8h-6.7c4.6 14.9 9.3 26.2 15.1 36.6h6.4c5.6-10.4 10.5-21.8 15.1-36.6h-6.3c-3.6 12.1-6.5 19.3-11.8 29.8z"/><path d="m221.2 573.1h28.2v-5.4h-22v-10.4h17.3c1-1.7 1.9-3.3 2.6-5.1h-19.8v-10.4h22v-5.4h-28.2v36.7z"/><path d="m592.2 573.1h28v-5.4h-22v-10.4h17.3c1-1.7 1.9-3.3 2.6-5.1h-19.8v-10.4h22v-5.4h-28v36.7z"/><path d="m510.9 536.5h-16.1v36.6h6.1v-31.2h9.7c5.4 0 9 2.4 9 7.3 0 5.2-3.5 7.4-9 7.4h-5.5l-2.3 5.2h7.8c9.1 0 15.4-4.5 15.4-12.9-.1-8.1-5.8-12.4-15.1-12.4z"/></g></svg>