<?xml version="1.0" encoding="utf-8"?>
<!-- Generator: Adobe Illustrator 23.1.1, SVG Export Plug-In . SVG Version: 6.00 Build 0)  -->
<svg version="1.1" xmlns="http://www.w3.org/2000/svg" xmlns:xlink="http://www.w3.org/1999/xlink" x="0px" y="0px"
	 viewBox="0 0 754.6 174.8" style="enable-background:new 0 0 754.6 174.8;" xml:space="preserve">
<style type="text/css">
	.st0{fill:#011E41;}
</style>
<g id="Layer_2">
</g>
<g id="OUP_Logo">
	<g>
		<path class="st0" d="M140.9,95.8c-0.3,1.7-0.6,3.3-1,5c10.8-6.9,22.3-16.5,33.1-29.5c-0.8-4-1.8-8-3.1-11.8
			C163.1,73.5,152.2,86.2,140.9,95.8z"/>
		<path class="st0" d="M141.5,86c8.8-9.7,17.4-22.1,24-37.2c-1.9-3.8-4-7.4-6.3-10.8c-2.9,15.7-9.9,30.6-18.1,42.7
			C141.3,82.5,141.5,84.2,141.5,86z"/>
		<path class="st0" d="M174.3,83.2c-7.3,10.3-22.7,20.7-38.5,28.3c-0.7,1.5-1.6,2.9-2.4,4.4c11.4-3.6,24.2-9.4,38.1-18.7
			c-1.1,5.8-2.7,11.2-4.9,16c-16,7.1-29.4,10.7-40.6,12.1c-1.3,1.3-2.7,2.6-4.1,3.8c10.9,0.1,23.9-1.5,39.7-6.5
			c-3.5,5.4-7.7,10.1-12.3,14.1c-14.4,1.1-26.2,0.2-36.2-1.7c-1.5,0.8-3.1,1.6-4.7,2.3c8.9,3.6,18.9,6.2,30.2,7.1
			c-4.2,2.5-8.6,4.5-13,6.1c-10.3-2.9-19.3-6.3-27-10.1c-2,0.4-4,0.7-6.1,0.9c6.4,4.4,13.8,8.5,22.3,12.2c-4.6,0.9-9.1,1.4-13.4,1.5
			c-0.9,0-1.8,0-2.7,0c-6.2-4.5-11.7-9-16.5-13.6c-2.5-0.2-5-0.6-7.4-1.2c3.9,4.6,8.4,9.2,13.5,13.7c-5.2-0.9-10.2-2.5-15-4.5
			c-3-4.2-5.6-8.3-7.8-12.3c-2.3-1-4.6-2.2-6.8-3.5c1.6,3.6,3.5,7.4,5.8,11.2c-4.6-2.8-8.8-6.2-12.6-10.1c-2.1-4-3.7-7.6-4.9-10.9
			c-8.8-9.6-14.2-22.5-14.2-36.6c0-30,24.3-54.3,54.3-54.3c24.3,0,44.9,16,51.8,38c5.3-11.6,9.6-26.1,10.9-44.4
			c-2.8-2.9-5.8-5.6-9-8.2c2.3,16.9,0.8,31.3-2.9,43.5c-1.7-3.4-3.7-6.7-5.9-9.9c0.7-11.5-0.1-25.4-4.4-42.2
			c-3.6-1.9-7.3-3.5-11.1-4.9c6.8,12.7,10.3,27.8,11.3,41.8c-2.6-2.9-5.3-5.7-8.4-8.2c-3.2-10.9-8.7-23.2-17.5-37.4
			C98.4,0.6,94.6,0.1,90.7,0c9.5,10.2,16.6,21.8,21.7,33.2c-3.9-2.6-8-4.8-12.3-6.7C94.2,18.1,86.5,9.3,76.6,0.6
			C72.8,1,69.1,1.7,65.5,2.7C74.4,8,82.6,15,89.7,22.7c-4.6-1.3-9.2-2.2-14-2.6c-6.5-4.8-13.8-9.3-21.9-13.4
			c-3.7,1.5-7.3,3.3-10.7,5.3c7.1,0.7,14.1,3.7,21.4,7.9c-4.3,0.2-8.5,0.8-12.6,1.8c-5.2-1.7-10.8-3.2-17-4.2
			c-3.3,2.5-6.5,5.2-9.4,8.2c4.1-0.6,8.8-0.8,14.1-0.3c-8.9,3.3-17.5,7.8-24.8,13.3C5.4,52.6,0,69.3,0,87.3
			c0,48.3,39.1,87.4,87.2,87.4c47.8,0,87.2-38.8,87.2-87.4C174.4,86,174.4,84.6,174.3,83.2z"/>
	</g>
	<g>
		<g>
			<polygon class="st0" points="387.3,24.8 374.8,24.8 354.5,53.2 334.3,24.8 321.7,24.8 346.7,58.5 321.5,92.5 334,92.5 
				354.5,63.6 375,92.5 387.6,92.5 362.4,58.5 			"/>
			<path class="st0" d="M642.1,68.5c8.2-3.5,13.7-10.5,13.7-20.8c0-14.7-10.4-22.9-27.4-22.9h-29.6v67.7h11.2V71.1h20.3
				c6.4,6,11.8,13.5,15.7,21.4h13.7C655.4,84.1,648.1,74.3,642.1,68.5z M609.9,34.8H628c9.9,0,16.2,4.5,16.2,13.4
				c0,9-6.2,13.2-15.6,13.2h-18.8V34.8z"/>
			<path class="st0" d="M718.6,24.8h-25.3v67.7h25.3c21.9,0,36-13.7,36-33.9S740.5,24.8,718.6,24.8z M717.8,82.6h-13.3V34.8h13.3
				c14.5,0,25.4,8.6,25.4,23.9C743.2,74,732.3,82.6,717.8,82.6z"/>
			<path class="st0" d="M258.7,23.2c-19.6,0-36.2,15.9-36.2,35.4S239.2,94,258.7,94s36.2-15.9,36.2-35.4S278.3,23.2,258.7,23.2z
				 M258.7,83.8c-13.9,0-25.6-11.3-25.6-25.2s11.7-25.2,25.6-25.2s25.6,11.3,25.6,25.2S272.6,83.8,258.7,83.8z"/>
			<path class="st0" d="M529.7,23.2c-19.6,0-36.2,15.9-36.2,35.4S510.1,94,529.7,94c19.6,0,36.2-15.9,36.2-35.4
				S549.3,23.2,529.7,23.2z M529.7,83.8c-13.9,0-25.6-11.3-25.6-25.2s11.7-25.2,25.6-25.2s25.6,11.3,25.6,25.2
				S543.6,83.8,529.7,83.8z"/>
			<path class="st0" d="M417.6,92.5h11.2V68.2h32.6c2-3,3.5-6.1,4.8-9.7h-37.4V34.7h41.4v-9.9h-52.5L417.6,92.5L417.6,92.5z"/>
		</g>
		<g>
			<path class="st0" d="M642.1,130.8c0-6.2-4.4-9.6-11.7-9.6h-12.6v28.6h4.8v-9h8.5c2.7,2.5,4.9,5.7,6.6,9h5.8
				c-1.7-3.5-4.8-7.6-7.3-10.1C639.9,138.2,642.1,135.2,642.1,130.8z M630.2,136.6h-7.6v-11.3h7.6c4.2,0,7,1.8,7,5.6
				C637.2,135,634.5,136.6,630.2,136.6z"/>
			<path class="st0" d="M249.9,137.7c0,4.6-2.5,8.2-7.8,8.2c-5.3,0-7.9-3.6-7.9-8.2v-16.5h-4.8v16.5c0,7.4,4.8,12.8,12.6,12.8
				c8,0,12.5-5.3,12.5-12.8v-16.5h-4.8L249.9,137.7L249.9,137.7z"/>
			<path class="st0" d="M696.5,128.3c0-2,1.8-3.4,5.5-3.4c2.2,0,5.1,0.7,8.2,2.6l2.5-3.9c-2.7-1.8-6.6-3-10.6-3
				c-6.2,0-10.7,2.8-10.7,8.1c0,10.7,17,7,17,13.5c0,2.2-2.3,4-5.6,4c-3,0-6.7-1.1-9.6-3.8l-2.6,3.7c2.9,2.7,7.8,4.4,12.1,4.4
				c6.1,0,11-3.5,11-8.6C713.7,131.6,696.5,134.7,696.5,128.3z"/>
			<path class="st0" d="M444.7,128.3c0-2,1.8-3.4,5.5-3.4c2.2,0,5.1,0.7,8.2,2.6l2.5-3.9c-2.7-1.8-6.6-3-10.6-3
				c-6.2,0-10.7,2.8-10.7,8.1c0,10.7,17,7,17,13.5c0,2.2-2.3,4-5.6,4c-3,0-6.7-1.1-9.6-3.8l-2.6,3.7c2.9,2.7,7.8,4.4,12.1,4.4
				c6.1,0,11-3.5,11-8.6C462,131.6,444.7,134.7,444.7,128.3z"/>
			<path class="st0" d="M730.6,128.3c0-2,1.8-3.4,5.5-3.4c2.2,0,5.1,0.7,8.2,2.6l2.5-3.9c-2.7-1.8-6.6-3-10.6-3
				c-6.2,0-10.7,2.8-10.7,8.1c0,10.7,17,7,17,13.5c0,2.2-2.3,4-5.6,4c-3,0-6.7-1.1-9.6-3.8l-2.6,3.7c2.9,2.7,7.8,4.4,12.1,4.4
				c6.1,0,11-3.5,11-8.6C747.8,131.6,730.6,134.7,730.6,128.3z"/>
			<polygon class="st0" points="288.8,141.7 271.6,121.2 267.6,121.2 267.6,149.8 272.3,149.8 272.3,128.9 289.6,149.8 293.6,149.8 
				293.6,121.2 288.8,121.2 			"/>
			<rect x="308.6" y="121.2" class="st0" width="4.8" height="28.6"/>
			<rect x="475.9" y="121.2" class="st0" width="4.8" height="28.6"/>
			<polygon class="st0" points="493,125.4 502.7,125.4 502.7,149.8 507.5,149.8 507.5,125.4 517.2,125.4 517.2,121.2 493,121.2 			
				"/>
			<path class="st0" d="M426.6,130.8c0-6.2-4.4-9.6-11.7-9.6h-12.6v28.6h4.8v-9h8.5c2.7,2.5,4.9,5.7,6.6,9h5.9
				c-1.7-3.5-4.8-7.6-7.3-10.1C424.4,138.2,426.6,135.2,426.6,130.8z M414.8,136.6h-7.6v-11.3h7.6c4.2,0,7,1.8,7,5.6
				C421.8,135,419.1,136.6,414.8,136.6z"/>
			<path class="st0" d="M540.5,134.5c-2.2-3.1-5.3-8.4-7.8-13.3h-5.5c3.7,7.1,8,13.9,11,18.2v10.5h4.8v-10.5c3-4.3,7.2-11,11-18.2
				h-5.6C545.8,126,542.6,131.4,540.5,134.5z"/>
			<path class="st0" d="M340.1,144.4c-4-8.2-6.3-13.9-9.2-23.3h-5.2c3.6,11.6,7.3,20.5,11.8,28.6h5c4.4-8.1,8.2-17,11.8-28.6h-4.9
				C346.5,130.6,344.2,136.2,340.1,144.4z"/>
			<path class="st0" d="M366.6,149.8h22v-4.2h-17.2v-8.1h13.5c0.8-1.3,1.5-2.6,2-4h-15.5v-8.1h17.2v-4.2h-22L366.6,149.8
				L366.6,149.8z"/>
			<path class="st0" d="M656.4,149.8h21.9v-4.2h-17.2v-8.1h13.5c0.8-1.3,1.5-2.6,2-4h-15.5v-8.1h17.2v-4.2h-21.9V149.8z"/>
			<path class="st0" d="M592.9,121.2h-12.6v28.6h4.8v-24.4h7.6c4.2,0,7,1.9,7,5.7c0,4.1-2.7,5.8-7,5.8h-4.3l-1.8,4.1h6.1
				c7.1,0,12-3.5,12-10.1C604.6,124.6,600.2,121.2,592.9,121.2z"/>
		</g>
	</g>
</g>
</svg>
