<?xml version="1.0" encoding="utf-8"?>
<!-- Generator: Adobe Illustrator 26.2.1, SVG Export Plug-In . SVG Version: 6.00 Build 0)  -->
<svg version="1.1" id="Layer_1" xmlns="http://www.w3.org/2000/svg" xmlns:xlink="http://www.w3.org/1999/xlink" x="0px" y="0px"
	 viewBox="0 0 24.9 30" style="enable-background:new 0 0 24.9 30;" xml:space="preserve">
<style type="text/css">
	.st0{fill:#00285A;}
	.st1{fill-rule:evenodd;clip-rule:evenodd;fill:#EE7D11;}
</style>
<g id="Page-1">
	<g id="logo-springer">
		<path id="Shape" class="st0" d="M23.7,23H4.3v-1.2h1.6c0.3-3.9,4-5.3,6-8.4H9.6c-1.1,0.4-2.9,3-2.9,4.4h-3l0-1.2l-1,0.8l-2.6-3
			c0,0-0.1-0.2-0.1-0.3c0-0.1,0-0.2,0-0.2l4.1-5.6l0.7-2.2L6,5.7l1.2-1.6L6.8,1.3c1.1-0.4,2.2,0,2.7,0.5c0-0.8,0-1.7,0-1.7
			c2-0.2,2.7,0.9,3,2.1c0.5,0,1,0.1,1.5,0.2C14,2,14.2,1.8,14.5,1.8c0.4,0,0.6,0.3,0.6,0.6v0.2c0.9,0.3,1.7,0.7,2.4,1.2
			c0.1-0.2,0.3-0.2,0.5-0.2c0.4,0,0.6,0.3,0.6,0.6c0,0.2,0,0.3-0.1,0.4c0.7,0.6,1.3,1.3,1.8,2c0.1,0,0.2-0.1,0.3-0.1
			c0.4,0,0.7,0.3,0.7,0.6c0,0.2-0.1,0.5-0.3,0.5c0.4,0.7,0.7,1.6,1,2.4c0,0,0.1,0,0.2,0c0.4,0,0.6,0.3,0.6,0.6
			c0,0.3-0.2,0.6-0.5,0.6c0.2,0.9,0.3,1.7,0.4,2.6c0.4,0,0.7,0.3,0.7,0.6c0,0.4-0.3,0.6-0.6,0.7c0,0.9,0,1.8-0.1,2.7
			c0.3,0,0.6,0.3,0.6,0.7s-0.3,0.6-0.7,0.6h0c-0.2,0.9-0.3,1.8-0.5,2.8h1.7V23z M20.7,21.9c2.4-9.8-0.4-17.6-8-18.5
			c0,0.4,0,0.7,0,1.1c0,0.5,0,0.9,0,0.9l-1.2-0.2c0-0.4,0.1-3.2-0.9-3.8c0,0,0,1.5-0.3,3L9.2,4.1c0-1-0.5-1.4-1.1-1.7l0.3,2l-0.7,1
			L8,6.3L5.9,7L5.3,8.8l-3.8,5.3l1.4,1.7l1.6-1.4l0.4,0.2v2h0.9c0.4-1.4,1.6-3.1,2.7-3.9L7.8,12l0.9-0.8l0.9,1.1c0,0,3.1,0,3.1,0
			c0.5-1,0.7-2.2,0.7-3.6h1.2c0,4.7-2.3,6.5-5.3,9.4c-1.1,1.1-2,2.2-2.1,3.8H20.7z M3.6,12.8c0,0.5,0,1.4-0.3,1.8l-0.9-0.3
			c0.3-0.4,0.5-1,0.5-1.5L3.6,12.8z M8.3,8.2l-1.8,1L6.3,7.7l1.9-0.2L8.3,8.2z"/>
		<polygon id="Path" class="st1" points="23.7,29.1 4.3,29.1 4.3,26.7 23.7,26.7 		"/>
		<path id="Shape_00000118382252911909565640000012841037982806268560_" class="st0" d="M36.2,23.3c-1.6,0-2.8-0.4-4-0.9
			c-0.2-1.1-0.3-2.5-0.4-4l0.9-0.2c0.5,2,1.3,4,3.7,4c1.7,0,2.8-1.1,2.8-2.7c0-4.2-7-3.3-7-8.2c0-2.2,1.8-4.2,5-4.2
			c1.1,0,2.2,0.3,3.4,0.7c0.1,0.9,0.2,1.8,0.2,3.6l-0.9,0c-0.4-1.4-1.1-3.2-3.2-3.2c-1.6,0-2.3,1.1-2.3,2.3c0,3.9,7.1,3.1,7.1,8.2
			C41.6,21.3,39.4,23.3,36.2,23.3z M47.9,23.2c-0.7,0-1.2-0.2-1.5-0.3v3.9c0,1.4,0.2,1.5,2.1,1.7v0.8h-5.8v-0.8
			c1.5-0.2,1.6-0.3,1.6-1.7v-11c0-1.4,0-1.5-1.4-1.6v-0.7c1.2-0.2,2.4-0.6,3.6-1V14l2.2-1.2c0.3-0.2,0.6-0.2,0.9-0.2
			c2.5,0,4,2.2,4,4.4C53.4,20.5,51,22.8,47.9,23.2z M48.4,14.2c-0.7,0-1.5,0.5-2.1,0.8V21c0.5,0.5,1.2,0.9,2.1,0.9
			c1.2,0,2.8-0.9,2.8-4C51.2,15.3,50,14.2,48.4,14.2z M61.2,15.2c-0.2-0.3-0.6-0.4-1-0.4c-0.5,0-1.2,0.6-1.6,1.9v3.8
			c0,1.4,0.2,1.5,1.9,1.6V23h-5.6v-0.8c1.4-0.1,1.6-0.2,1.6-1.6v-4.6c0-1.4-0.1-1.4-1.4-1.6v-0.7c1.2-0.2,2.4-0.5,3.5-0.9v2.5h0
			c0.7-1.4,1.8-2.4,2.7-2.4c0.8,0,1.4,0.6,1.4,1.3C62.7,14.9,61.8,15.7,61.2,15.2z M69.1,23h-5.3v-0.8c1.4-0.1,1.6-0.2,1.6-1.7V16
			c0-1.6-0.1-1.6-1.5-1.8v-0.7c1.3-0.2,2.5-0.5,3.6-0.9v7.8c0,1.5,0.1,1.6,1.6,1.7V23z M66.4,10.5c-0.8,0-1.4-0.6-1.4-1.4
			c0-0.8,0.6-1.4,1.4-1.4c0.8,0,1.4,0.6,1.4,1.4C67.8,9.8,67.2,10.5,66.4,10.5z M81.6,23h-4.8v-0.8c1.2-0.1,1.3-0.2,1.3-1.6v-4
			c0-1.5-0.7-2.4-1.9-2.4c-0.8,0-1.7,0.6-2.3,1.1v5.3c0,1.3,0.1,1.4,1.3,1.6V23h-5v-0.8c1.4-0.1,1.6-0.2,1.6-1.6v-4.7
			c0-1.4-0.1-1.5-1.3-1.6v-0.7c1.2-0.2,2.4-0.5,3.4-0.9v1.6c0.5-0.5,2.1-1.6,3.3-1.6c1.8,0,3,1.3,3,3.2v4.8c0,1.3,0.2,1.4,1.4,1.6
			L81.6,23L81.6,23z M93.3,13.2c-0.2,0.4-0.6,1.1-1,1.3l-1.2-0.1c0.3,0.5,0.6,1.4,0.6,2.1c0,2.5-2.3,3.9-4.3,3.9c-0.1,0-0.5,0-0.7,0
			c-0.5,0.2-0.9,0.7-0.9,1.1c0,0.4,0.4,0.8,1.4,0.8h2.5c1.4,0,3.4,0.7,3.4,3c0,2.6-2.8,4.8-6,4.8c-2.8,0-4.3-1.7-4.3-3.1
			c0-0.9,0.5-1.6,2.4-3.1c-0.7-0.2-1.9-0.9-1.8-2.3c0.9-0.4,1.8-1.1,2.2-1.6c-1.1-0.4-2.1-1.7-2.1-3.2c0-2.7,2.4-4.1,4.4-4.1
			c0.9,0,1.7,0.2,2.4,0.6c1.1,0,2.1-0.2,3.1-0.3L93.3,13.2z M90.1,24.2C89.5,24,88.7,24,87.5,24c-1.8,0-2.5,1.3-2.5,2.3
			c0,1.4,1.2,2.5,3.1,2.5c2.1,0,3.2-1.4,3.2-2.7C91.2,25.2,90.7,24.5,90.1,24.2z M87.5,13.7c-0.9,0-1.8,0.9-1.8,2.6s0.9,3,2.1,3
			c0.9,0,1.8-0.8,1.8-2.7C89.5,15,88.7,13.7,87.5,13.7z M102,17.3c-0.4,0-3.2,0.2-5.8,0.3c0.1,2.7,1.7,3.9,3.3,3.9
			c0.9,0,1.6-0.2,2.4-1.1l0.5,0.7c-1.4,1.7-3,2.1-3.7,2.1c-2.9,0-4.6-2.2-4.6-4.8c0-3.2,2.4-5.7,4.8-5.7c2,0,3.6,1.7,3.6,3.7
			C102.5,16.9,102.4,17.2,102,17.3z M98.5,13.7c-0.9,0-1.9,1-2.2,2.8l3.5-0.1c0.5,0,0.5-0.1,0.5-0.5C100.4,14.8,99.6,13.7,98.5,13.7
			z M110.3,15.2c-0.3-0.3-0.7-0.4-1-0.4c-0.5,0-1.2,0.6-1.7,1.9v3.8c0,1.4,0.2,1.5,1.9,1.6V23h-5.6v-0.8c1.4-0.1,1.6-0.2,1.6-1.6
			v-4.6c0-1.4-0.1-1.4-1.4-1.6v-0.7c1.3-0.2,2.5-0.5,3.5-0.9v2.5h0c0.7-1.4,1.7-2.4,2.7-2.4c0.8,0,1.4,0.6,1.4,1.3
			C111.8,14.9,110.7,15.7,110.3,15.2z"/>
	</g>
</g>
</svg>
