<svg enable-background="new 0 0 113.1 110.3" viewBox="0 0 113.1 110.3" xmlns="http://www.w3.org/2000/svg"><path d="m71.9 48.5h-30.8v-1.9h2.5c.5-6.2 6.4-8.4 9.5-13.4h-3.7c-1.7.6-4.6 4.8-4.6 7h-4.8v-1.9l-1.6 1.3-4.1-4.8s-.2-.3-.2-.5 0-.3 0-.3l6.5-8.9 1.1-3.5 1.9-.6 1.9-2.5-.5-4.5c1.7-.6 3.5 0 4.3.8 0-1.3 0-2.7 0-2.7 3.2-.3 4.3 1.4 4.8 3.3.8 0 1.6.2 2.4.3 0-.6.3-1 .8-1 .6 0 1 .5 1 1v.3c1.4.5 2.7 1.1 3.8 1.9.2-.3.5-.3.8-.3.6 0 1 .5 1 1 0 .3 0 .5-.2.6 1.1 1 2.1 2.1 2.9 3.2.2 0 .3-.2.5-.2.6 0 1.1.5 1.1 1 0 .3-.2.8-.5.8.6 1.1 1.1 2.5 1.6 3.8h.3c.6 0 1 .5 1 1s-.3 1-.8 1c.3 1.4.5 2.7.6 4.1.6 0 1.1.5 1.1 1 0 .6-.5 1-1 1.1 0 1.4 0 2.9-.2 4.3.5 0 1 .5 1 1.1s-.5 1-1.1 1c-.3 1.4-.5 2.9-.8 4.5h2.7v1.7h-.2zm-4.8-1.7c3.8-15.6-.6-28-12.7-29.4v1.7 1.4l-1.9-.3c0-.6.2-5.1-1.4-6 0 0 0 2.4-.5 4.8l-1.7-.5c0-1.6-.8-2.2-1.7-2.7l.5 3.2-1.1 1.6.4 1.4-3.3 1.1-1 2.9-6 8.4 2.2 2.7 2.5-2.2.6.3v3.2h1.4c.6-2.2 2.5-4.9 4.3-6.2l-1.1-1.2 1.4-1.3 1.4 1.7h4.9c.8-1.6 1.1-3.5 1.1-5.7h1.9c0 7.5-3.7 10.3-8.4 14.9-1.7 1.7-3.2 3.5-3.3 6h21.5zm-27.1-14.5c0 .8 0 2.2-.5 2.9l-1.4-.5c.5-.6.8-1.6.8-2.4zm7.4-7.3-2.9 1.6-.3-2.4 3-.3z" fill="#00285a"/><path clip-rule="evenodd" d="m71.9 58.2h-30.8v-3.8h30.8z" fill="#ee7d11" fill-rule="evenodd"/><path d="m21 83.8c-1.6 0-2.8-.4-4-.9-.2-1.1-.3-2.5-.4-4l.9-.2c.5 2 1.3 4 3.7 4 1.7 0 2.8-1.1 2.8-2.7 0-4.2-7-3.3-7-8.2 0-2.2 1.8-4.2 5-4.2 1.1 0 2.2.3 3.4.7.1.9.2 1.8.2 3.6h-.9c-.4-1.4-1.1-3.2-3.2-3.2-1.6 0-2.3 1.1-2.3 2.3 0 3.9 7.1 3.1 7.1 8.2.1 2.6-2.1 4.6-5.3 4.6zm11.7-.1c-.7 0-1.2-.2-1.5-.3v3.9c0 1.4.2 1.5 2.1 1.7v.8h-5.8v-.8c1.5-.2 1.6-.3 1.6-1.7v-11c0-1.4 0-1.5-1.4-1.6v-.7c1.2-.2 2.4-.6 3.6-1v1.5l2.2-1.2c.3-.2.6-.2.9-.2 2.5 0 4 2.2 4 4.4-.2 3.5-2.6 5.8-5.7 6.2zm.5-9c-.7 0-1.5.5-2.1.8v6c.5.5 1.2.9 2.1.9 1.2 0 2.8-.9 2.8-4 0-2.6-1.2-3.7-2.8-3.7zm12.8 1c-.2-.3-.6-.4-1-.4-.5 0-1.2.6-1.6 1.9v3.8c0 1.4.2 1.5 1.9 1.6v.9h-5.6v-.8c1.4-.1 1.6-.2 1.6-1.6v-4.6c0-1.4-.1-1.4-1.4-1.6v-.7c1.2-.2 2.4-.5 3.5-.9v2.5c.7-1.4 1.8-2.4 2.7-2.4.8 0 1.4.6 1.4 1.3s-.9 1.5-1.5 1zm7.9 7.8h-5.3v-.8c1.4-.1 1.6-.2 1.6-1.7v-4.5c0-1.6-.1-1.6-1.5-1.8v-.7c1.3-.2 2.5-.5 3.6-.9v7.8c0 1.5.1 1.6 1.6 1.7zm-2.7-12.5c-.8 0-1.4-.6-1.4-1.4s.6-1.4 1.4-1.4 1.4.6 1.4 1.4c0 .7-.6 1.4-1.4 1.4zm15.2 12.5h-4.8v-.8c1.2-.1 1.3-.2 1.3-1.6v-4c0-1.5-.7-2.4-1.9-2.4-.8 0-1.7.6-2.3 1.1v5.3c0 1.3.1 1.4 1.3 1.6v.8h-5v-.8c1.4-.1 1.6-.2 1.6-1.6v-4.7c0-1.4-.1-1.5-1.3-1.6v-.7c1.2-.2 2.4-.5 3.4-.9v1.6c.5-.5 2.1-1.6 3.3-1.6 1.8 0 3 1.3 3 3.2v4.8c0 1.3.2 1.4 1.4 1.6zm11.7-9.8c-.2.4-.6 1.1-1 1.3l-1.2-.1c.3.5.6 1.4.6 2.1 0 2.5-2.3 3.9-4.3 3.9-.1 0-.5 0-.7 0-.5.2-.9.7-.9 1.1s.4.8 1.4.8h2.5c1.4 0 3.4.7 3.4 3 0 2.6-2.8 4.8-6 4.8-2.8 0-4.3-1.7-4.3-3.1 0-.9.5-1.6 2.4-3.1-.7-.2-1.9-.9-1.8-2.3.9-.4 1.8-1.1 2.2-1.6-1.1-.4-2.1-1.7-2.1-3.2 0-2.7 2.4-4.1 4.4-4.1.9 0 1.7.2 2.4.6 1.1 0 2.1-.2 3.1-.3zm-3.2 11c-.6-.2-1.4-.2-2.6-.2-1.8 0-2.5 1.3-2.5 2.3 0 1.4 1.2 2.5 3.1 2.5 2.1 0 3.2-1.4 3.2-2.7-.1-.9-.6-1.6-1.2-1.9zm-2.6-10.5c-.9 0-1.8.9-1.8 2.6s.9 3 2.1 3c.9 0 1.8-.8 1.8-2.7-.1-1.6-.9-2.9-2.1-2.9zm14.5 3.6c-.4 0-3.2.2-5.8.3.1 2.7 1.7 3.9 3.3 3.9.9 0 1.6-.2 2.4-1.1l.5.7c-1.4 1.7-3 2.1-3.7 2.1-2.9 0-4.6-2.2-4.6-4.8 0-3.2 2.4-5.7 4.8-5.7 2 0 3.6 1.7 3.6 3.7 0 .5-.1.8-.5.9zm-3.5-3.6c-.9 0-1.9 1-2.2 2.8l3.5-.1c.5 0 .5-.1.5-.5.1-1.1-.7-2.2-1.8-2.2zm11.8 1.5c-.3-.3-.7-.4-1-.4-.5 0-1.2.6-1.7 1.9v3.8c0 1.4.2 1.5 1.9 1.6v.9h-5.6v-.8c1.4-.1 1.6-.2 1.6-1.6v-4.6c0-1.4-.1-1.4-1.4-1.6v-.7c1.3-.2 2.5-.5 3.5-.9v2.5c.7-1.4 1.7-2.4 2.7-2.4.8 0 1.4.6 1.4 1.3.1.7-1 1.5-1.4 1z" fill="#00285a"/></svg>